<?xml version="1.0" encoding="UTF-8" standalone="no"?>
<!-- Created with Inkscape (http://www.inkscape.org/) -->

<svg
   xmlns:dc="http://purl.org/dc/elements/1.1/"
   xmlns:cc="http://creativecommons.org/ns#"
   xmlns:rdf="http://www.w3.org/1999/02/22-rdf-syntax-ns#"
   xmlns:svg="http://www.w3.org/2000/svg"
   xmlns="http://www.w3.org/2000/svg"
   xmlns:sodipodi="http://sodipodi.sourceforge.net/DTD/sodipodi-0.dtd"
   xmlns:inkscape="http://www.inkscape.org/namespaces/inkscape"
   width="256"
   height="256"
   viewBox="0 0 256 256"
   id="svg29137"
   version="1.1"
   inkscape:version="0.91 r13725"
   sodipodi:docname="05.svg">
  <defs
     id="defs29139" />
  <sodipodi:namedview
     id="base"
     pagecolor="#ffffff"
     bordercolor="#666666"
     borderopacity="1.0"
     inkscape:pageopacity="0.0"
     inkscape:pageshadow="2"
     inkscape:zoom="0.35"
     inkscape:cx="144.52546"
     inkscape:cy="484.11801"
     inkscape:document-units="px"
     inkscape:current-layer="layer1"
     showgrid="false"
     units="px"
     inkscape:window-width="1366"
     inkscape:window-height="702"
     inkscape:window-x="0"
     inkscape:window-y="0"
     inkscape:window-maximized="1" />
  <metadata
     id="metadata29142">
    <rdf:RDF>
      <cc:Work
         rdf:about="">
        <dc:format>image/svg+xml</dc:format>
        <dc:type
           rdf:resource="http://purl.org/dc/dcmitype/StillImage" />
        <dc:title></dc:title>
      </cc:Work>
    </rdf:RDF>
  </metadata>
  <g
     inkscape:label="Layer 1"
     inkscape:groupmode="layer"
     id="layer1"
     transform="translate(0,-796.36216)">
    <path
       inkscape:connector-curvature="0"
       id="path20330"
       style="fill:#231f20;fill-opacity:1;fill-rule:evenodd;stroke:none"
       d="m 225.97496,865.05683 c 10.73998,0 19.46,8.72 19.46,19.47 0,10.74 -8.72,19.45 -19.46,19.45 -10.74,0 -19.46,-8.71 -19.46,-19.45 0,-10.75 8.71998,-19.47 19.46,-19.47 l 0,0 z m -127.920028,52.85 0,-62.13 c 0,-2.17 -1.76,-3.94 -3.94,-3.94 l -55.67998,0 c -2.19,0 -3.94,1.77 -3.94,3.94 l 0,62.13 -19.98,0 c -2.19002,0 -3.95,1.76 -3.95,3.94 0,1.09 0.4504,2.08 1.17,2.8 l 51.58,59.67002 c 1.41,1.63998 3.88,1.82 5.53,0.4 0.16,-0.14 0.3104,-0.28002 0.44,-0.44 l 51.729998,-59.86002 c 1.42,-1.63998 1.24,-4.13 -0.4,-5.54 -0.74,-0.63998 -1.65,-0.96 -2.57,-0.96 l 0,-0.008 -19.989998,0 0,0 z m -7.86,-58.19 0,62.13 c 0,2.18 1.76002,3.93 3.92,3.93 l 15.340018,0 -43.179998,49.96 -43.18,-49.96 15.34,0 c 2.17,0 3.93,-1.75 3.93,-3.93 l 0,-62.13 47.83,0 0,0 z m 110.520008,49.7 c -4.96,7.05 -18.21998,37.3 -18.21998,37.3 0,0 -12.42003,-13.27 -25.25001,-13.68 -12.84002,-0.4104 -18.63002,8.29 -24.86002,20.73 -6.21,12.43 -18.61998,30.26002 -13.25,36.88 5.39,6.64 14.92,10.78997 23.19,-2.46998 8.29,-13.27 13.26002,-27.78002 19.06,-26.95 5.78002,0.83 16.56001,18.24 31.05003,20.72 14.5,2.48998 22.36,-6.63 22.36,-13.26002 0,-6.63 6.32,-11.11 11.18,-16.98998 20.32,-24.6 -12.46,-60.43 -25.26002,-42.28002 l 0,0" />
  </g>
</svg>
