<?xml version="1.0" encoding="UTF-8" standalone="no"?>
<!-- Created with Inkscape (http://www.inkscape.org/) -->

<svg
   xmlns:dc="http://purl.org/dc/elements/1.1/"
   xmlns:cc="http://creativecommons.org/ns#"
   xmlns:rdf="http://www.w3.org/1999/02/22-rdf-syntax-ns#"
   xmlns:svg="http://www.w3.org/2000/svg"
   xmlns="http://www.w3.org/2000/svg"
   xmlns:sodipodi="http://sodipodi.sourceforge.net/DTD/sodipodi-0.dtd"
   xmlns:inkscape="http://www.inkscape.org/namespaces/inkscape"
   width="256"
   height="256"
   viewBox="0 0 256 256"
   id="svg29137"
   version="1.1"
   inkscape:version="0.91 r13725"
   sodipodi:docname="06.svg">
  <defs
     id="defs29139" />
  <sodipodi:namedview
     id="base"
     pagecolor="#ffffff"
     bordercolor="#666666"
     borderopacity="1.0"
     inkscape:pageopacity="0.0"
     inkscape:pageshadow="2"
     inkscape:zoom="0.35"
     inkscape:cx="144.52546"
     inkscape:cy="712.68944"
     inkscape:document-units="px"
     inkscape:current-layer="layer1"
     showgrid="false"
     units="px"
     inkscape:window-width="1366"
     inkscape:window-height="702"
     inkscape:window-x="0"
     inkscape:window-y="0"
     inkscape:window-maximized="1" />
  <metadata
     id="metadata29142">
    <rdf:RDF>
      <cc:Work
         rdf:about="">
        <dc:format>image/svg+xml</dc:format>
        <dc:type
           rdf:resource="http://purl.org/dc/dcmitype/StillImage" />
        <dc:title></dc:title>
      </cc:Work>
    </rdf:RDF>
  </metadata>
  <g
     inkscape:label="Layer 1"
     inkscape:groupmode="layer"
     id="layer1"
     transform="translate(0,-796.36216)">
    <path
       inkscape:connector-curvature="0"
       id="path20332"
       style="fill:#231f20;fill-opacity:1;fill-rule:evenodd;stroke:none"
       d="m 231.54996,859.46687 c 10.75,0 19.45,8.72 19.45,19.46 0,10.74 -8.7,19.45 -19.45,19.45 -10.75,0 -19.45,-8.71 -19.45,-19.45 0,-10.74 8.7,-19.46 19.45,-19.46 l 0,0 z m -160.50999,21.9 -62.1100004,0 c -2.17,0 -3.93,1.77 -3.93,3.94 l 0,55.67001 c 0,2.19 1.76,3.94 3.93,3.94 l 62.1100004,0 0,19.98 c 0,2.18 1.76,3.93 3.95,3.93 1.08,0 2.08,-0.44 2.79,-1.16 l 59.65,-51.55998 c 1.63999,-1.41 1.81999,-3.89 0.4,-5.53002 -0.14,-0.16 -0.28,-0.3 -0.4304,-0.4304 l -59.8496,-51.73001 c -1.64,-1.41 -4.13,-1.23 -5.53002,0.4104 -0.65038,0.74 -0.96,1.65 -0.96,2.56 l -0.016,0 0,19.98 z m -58.16,7.88 62.11,0 c 2.16,0 3.92,-1.77 3.92,-3.94 l 0,-15.33 49.96,43.17001 -49.96,43.16 0,-15.33 c 0,-2.17 -1.76,-3.92998 -3.92,-3.92998 l -62.11,0 0,-47.80003 z m 209.56999,12.49 c 0,0 -11.18,-4.96 -16.15,2.07 -4.97,7.05003 -18.23,37.30003 -18.23,37.30003 0,0 -12.42,-13.26002 -25.24,-13.67002 -12.82,-0.4104 -18.62,8.28002 -24.83999,20.71 -6.21,12.44002 -18.63,30.25 -13.24,36.88002 5.37,6.63 14.90999,10.78 23.17999,-2.49 8.28,-13.25 13.25,-27.76 19.04,-26.93 5.8,0.83 16.56,18.24 31.04,20.72 14.5,2.49 22.37,-6.63 22.37,-13.26 0,-6.63002 6.31,-11.1 11.17,-16.99 6.45,-7.8 13.65,-44.34001 -9.1,-44.34001 l 0,0" />
  </g>
</svg>
