<?xml version="1.0" encoding="UTF-8" standalone="no"?>
<!-- Created with Inkscape (http://www.inkscape.org/) -->

<svg
   xmlns:dc="http://purl.org/dc/elements/1.1/"
   xmlns:cc="http://creativecommons.org/ns#"
   xmlns:rdf="http://www.w3.org/1999/02/22-rdf-syntax-ns#"
   xmlns:svg="http://www.w3.org/2000/svg"
   xmlns="http://www.w3.org/2000/svg"
   xmlns:sodipodi="http://sodipodi.sourceforge.net/DTD/sodipodi-0.dtd"
   xmlns:inkscape="http://www.inkscape.org/namespaces/inkscape"
   width="256"
   height="256"
   viewBox="0 0 256 256"
   id="svg29137"
   version="1.1"
   inkscape:version="0.91 r13725"
   sodipodi:docname="07.svg">
  <defs
     id="defs29139" />
  <sodipodi:namedview
     id="base"
     pagecolor="#ffffff"
     bordercolor="#666666"
     borderopacity="1.0"
     inkscape:pageopacity="0.0"
     inkscape:pageshadow="2"
     inkscape:zoom="0.35"
     inkscape:cx="144.52546"
     inkscape:cy="369.8323"
     inkscape:document-units="px"
     inkscape:current-layer="layer1"
     showgrid="false"
     units="px"
     inkscape:window-width="1366"
     inkscape:window-height="702"
     inkscape:window-x="0"
     inkscape:window-y="0"
     inkscape:window-maximized="1" />
  <metadata
     id="metadata29142">
    <rdf:RDF>
      <cc:Work
         rdf:about="">
        <dc:format>image/svg+xml</dc:format>
        <dc:type
           rdf:resource="http://purl.org/dc/dcmitype/StillImage" />
        <dc:title></dc:title>
      </cc:Work>
    </rdf:RDF>
  </metadata>
  <g
     inkscape:label="Layer 1"
     inkscape:groupmode="layer"
     id="layer1"
     transform="translate(0,-796.36216)">
    <path
       inkscape:connector-curvature="0"
       id="path20342"
       style="fill:#231f20;fill-opacity:1;fill-rule:evenodd;stroke:none"
       d="m 25.708622,891.50215 32.48,102.07002 111.360018,0 c 0,0 20.88,-37.11002 0.58958,-37.69002 -20.3,-0.58958 -93.389998,4.63002 -93.389998,4.63002 0,0 -16.80998,-51.04 -24.92998,-59.16 -8.13,-8.11 -13.35,-14.49 -13.35,-17.98 0,-3.47 2.9,-26.09 -10.44,-27.26 -13.34,-1.15002 -13.34,12.17998 -11.59,16.25 1.73,4.05998 9.27,19.13998 9.27,19.13998 l 0,0 z m 210.419998,39.17 c 2.34002,0 4.24,1.90002 4.24,4.24 0,2.34 -1.9,4.24 -4.24,4.24 -11.30998,0 -21.55998,-4.59 -28.96998,-12.01 -7.42,-7.42 -12,-17.66 -12,-28.97 0,-11.31 4.58,-21.55 12,-28.97 7.41,-7.41 17.66,-12.01 28.96998,-12.01 2.34002,0 4.24,1.91 4.24,4.24 0,2.34 -1.9,4.24 -4.24,4.24 -8.96998,0 -17.09998,3.64 -22.98998,9.51 -5.88,5.9 -9.51002,14.02 -9.51002,22.99 0,8.98 3.63002,17.1 9.51002,22.98 5.89,5.89 14.02,9.52 22.98998,9.52 l 0,0 z m -75.38998,-75.52 c 8.06,0 14.6,6.54 14.6,14.61002 0,8.06 -6.54,14.6 -14.6,14.6 -8.05002,0 -14.6,-6.54 -14.6,-14.6 0,-8.07002 6.55,-14.61002 14.6,-14.61002 l 0,0 z m -6.83,31.73 c 0,0 -8.4,-3.73 -12.12,1.56 -3.73,5.28002 -13.67,27.99 -13.67,27.99 0,0 -9.33,-9.96 -18.96,-10.28 -9.629998,-0.3 -13.969998,6.23 -18.629998,15.55 -4.67002,9.34 -13.99,22.71 -9.94,27.69 4.03,4.97 11.17,8.08 17.38998,-1.87 0.6104,-0.98 1.19,-1.96998 1.77,-2.94998 1.499998,3.59 3.019998,6.30998 3.019998,6.30998 l 69.7,0 20.33,-63.88998 c 0,0 4.73,-9.44 5.82,-11.98 1.08,-2.54 1.08,-10.89 -7.26,-10.16 -8.35,0.72 -6.54,14.87 -6.54,17.05 0,2.18 -3.27,6.18 -8.36,11.26 -5.07,5.08 -15.6,37.02 -15.6,37.02 0,0 -3.06,-0.2104 -7.8,-0.5304 1.44,-3.35 4.88,-6.11 7.68,-9.5 4.83,-5.86 10.24,-33.27 -6.83,-33.27 l 0,0 z m -42.68,40.5 c 0.34,-0.0896 0.6904,-0.1296 1.05,-0.072 0.14,0.016 0.3096,0.048 0.4696,0.1096 l -1.52,-0.04 0,0" />
  </g>
</svg>
