<?xml version="1.0" encoding="UTF-8" standalone="no"?>
<!-- Created with Inkscape (http://www.inkscape.org/) -->

<svg
   xmlns:dc="http://purl.org/dc/elements/1.1/"
   xmlns:cc="http://creativecommons.org/ns#"
   xmlns:rdf="http://www.w3.org/1999/02/22-rdf-syntax-ns#"
   xmlns:svg="http://www.w3.org/2000/svg"
   xmlns="http://www.w3.org/2000/svg"
   xmlns:sodipodi="http://sodipodi.sourceforge.net/DTD/sodipodi-0.dtd"
   xmlns:inkscape="http://www.inkscape.org/namespaces/inkscape"
   width="256"
   height="256"
   viewBox="0 0 256 256"
   id="svg29137"
   version="1.1"
   inkscape:version="0.91 r13725"
   sodipodi:docname="09.svg">
  <defs
     id="defs29139" />
  <sodipodi:namedview
     id="base"
     pagecolor="#ffffff"
     bordercolor="#666666"
     borderopacity="1.0"
     inkscape:pageopacity="0.0"
     inkscape:pageshadow="2"
     inkscape:zoom="0.35"
     inkscape:cx="144.52546"
     inkscape:cy="484.11801"
     inkscape:document-units="px"
     inkscape:current-layer="layer1"
     showgrid="false"
     units="px"
     inkscape:window-width="1366"
     inkscape:window-height="702"
     inkscape:window-x="0"
     inkscape:window-y="0"
     inkscape:window-maximized="1" />
  <metadata
     id="metadata29142">
    <rdf:RDF>
      <cc:Work
         rdf:about="">
        <dc:format>image/svg+xml</dc:format>
        <dc:type
           rdf:resource="http://purl.org/dc/dcmitype/StillImage" />
        <dc:title></dc:title>
      </cc:Work>
    </rdf:RDF>
  </metadata>
  <g
     inkscape:label="Layer 1"
     inkscape:groupmode="layer"
     id="layer1"
     transform="translate(0,-796.36216)">
    <path
       inkscape:connector-curvature="0"
       id="path20354"
       style="fill:#231f20;fill-opacity:1;fill-rule:nonzero;stroke:none"
       d="m 119.67001,838.22713 c -47.870017,0 -78.630017,22.29 -92.190017,50.81 -5.3,11.16 -7.96,23.25 -7.96,35.33 0,12.08 2.66,24.16 7.96,35.32 13.56,28.53002 44.32,50.81007 92.190017,50.81007 6.01,0 11.39,-2.91 15.23,-7.6001 3.57,-4.37997 5.8,-10.36995 5.8,-16.89997 l 0,-123.27 c 0,-6.53 -2.23,-12.52 -5.8,-16.9 -3.84,-4.69 -9.22,-7.6 -15.23,-7.6 l 0,0 z m 111.33,141.84 c 3.03,0 5.48,-2.46 5.48,-5.48 0,-3.03 -2.45,-5.48 -5.48,-5.48 l -74.49,0 c -3.03,0 -5.48,2.45 -5.48,5.48 0,3.02 2.45,5.48 5.48,5.48 l 74.49,0 0,0 z m 0,-26.44998 c 3.03,0 5.48,-2.45 5.48,-5.48 0,-3.03002 -2.45,-5.47 -5.48,-5.47 l -74.5,0 c -3.02,0 -5.47,2.44 -5.47,5.47 0,3.03 2.45,5.48 5.47,5.48 l 74.5,0 0,0 z m 0,-26.44 c 3.03,0 5.48,-2.45 5.48,-5.48 0,-3.02 -2.45,-5.48 -5.48,-5.48 l -74.5,0 c -3.02,0 -5.47,2.46 -5.47,5.48 0,3.03 2.45,5.48 5.47,5.48 l 74.5,0 0,0 z m 0,-26.44 c 3.03,0 5.48,-2.46 5.48,-5.48 0,-3.02 -2.45,-5.48 -5.48,-5.48 l -74.5,0 c -3.02,0 -5.47,2.46 -5.47,5.48 0,3.02 2.45,5.48 5.47,5.48 l 74.5,0 0,0 z m 0,-26.44002 c 3.03,0 5.48,-2.44998 5.48,-5.48 0,-3.02 -2.45,-5.48 -5.48,-5.48 l -74.49,0 c -3.03,0 -5.48,2.46 -5.48,5.48 0,3.03002 2.45,5.48 5.48,5.48 l 74.49,0 0,0 z m -193.630017,19.41 c 11.88,-24.98998 39.28,-44.52 82.300017,-44.52 2.55,0 4.93,1.37 6.75,3.57002 2.05,2.52 3.32,6.03998 3.32,9.96998 l 0,123.27 c 0,3.93 -1.27,7.46 -3.32,9.97 -1.82,2.21 -4.2,3.57 -6.75,3.57 -43.020017,0 -70.420017,-19.52 -82.300017,-44.52 -4.59,-9.65 -6.89,-20.15 -6.89,-30.65 0,-10.51 2.3,-21.01 6.89,-30.66 l 0,0" />
    <rect
       style="opacity:1;fill:none;fill-opacity:1;stroke:#000000;stroke-width:0.99610895;stroke-linecap:butt;stroke-linejoin:round;stroke-miterlimit:4;stroke-dasharray:none;stroke-dashoffset:17.67000008;stroke-opacity:1"
       id="rect30507"
       width="255.00389"
       height="255.00389"
       x="0.49805447"
       y="796.86023" />
  </g>
</svg>
