<?xml version="1.0" encoding="UTF-8" standalone="no"?>
<!-- Created with Inkscape (http://www.inkscape.org/) -->

<svg
   xmlns:dc="http://purl.org/dc/elements/1.1/"
   xmlns:cc="http://creativecommons.org/ns#"
   xmlns:rdf="http://www.w3.org/1999/02/22-rdf-syntax-ns#"
   xmlns:svg="http://www.w3.org/2000/svg"
   xmlns="http://www.w3.org/2000/svg"
   xmlns:sodipodi="http://sodipodi.sourceforge.net/DTD/sodipodi-0.dtd"
   xmlns:inkscape="http://www.inkscape.org/namespaces/inkscape"
   width="256"
   height="256"
   viewBox="0 0 256 256"
   id="svg29137"
   version="1.1"
   inkscape:version="0.91 r13725"
   sodipodi:docname="12.svg">
  <defs
     id="defs29139" />
  <sodipodi:namedview
     id="base"
     pagecolor="#ffffff"
     bordercolor="#666666"
     borderopacity="1.0"
     inkscape:pageopacity="0.0"
     inkscape:pageshadow="2"
     inkscape:zoom="0.35"
     inkscape:cx="144.52546"
     inkscape:cy="484.11801"
     inkscape:document-units="px"
     inkscape:current-layer="layer1"
     showgrid="false"
     units="px"
     inkscape:window-width="1366"
     inkscape:window-height="702"
     inkscape:window-x="0"
     inkscape:window-y="0"
     inkscape:window-maximized="1" />
  <metadata
     id="metadata29142">
    <rdf:RDF>
      <cc:Work
         rdf:about="">
        <dc:format>image/svg+xml</dc:format>
        <dc:type
           rdf:resource="http://purl.org/dc/dcmitype/StillImage" />
        <dc:title></dc:title>
      </cc:Work>
    </rdf:RDF>
  </metadata>
  <g
     inkscape:label="Layer 1"
     inkscape:groupmode="layer"
     id="layer1"
     transform="translate(0,-796.36216)">
    <path
       inkscape:connector-curvature="0"
       id="path20346"
       style="fill:#231f20;fill-opacity:1;fill-rule:nonzero;stroke:none"
       d="m 128.515,847.55294 c 9.02,0 17.65998,1.61 25.65998,4.55 l 0,-20.76 -51.31,0 0,20.76 c 7.99,-2.94 16.64,-4.55 25.65002,-4.55 l 0,0 z m 3.32,148.55999 0,24.59007 c 0,1.83 -1.49,3.3 -3.32,3.3 -1.82002,0 -3.31,-1.47 -3.31,-3.3 l 0,-24.59007 c -17.92,-0.7904 -34.190014,-7.92 -46.620014,-19.21 l -17.62,17.62 c -1.3,1.29 -3.39,1.29 -4.68,0 -1.29,-1.3 -1.29,-3.39 0,-4.68 l 17.6,-17.6 c -11.37,-12.33 -18.62,-28.51 -19.57,-46.36 l -24.94,0.008 c -1.83,0 -3.29,-1.48 -3.29,-3.3 0,-1.82 1.46,-3.3 3.29,-3.3 l 24.87,0 c 0.60958,-17.93999 7.59998,-34.27999 18.75,-46.80999 l -17.45,-17.4496 c -1.29,-1.29 -1.29,-3.38 0,-4.68 1.3,-1.28 3.4,-1.28 4.69,0 l 17.37,17.38 c 5.5,-5.16 11.78,-9.51 18.64,-12.83 l 0,-26.87 c 0,-1.83 1.48998,-3.31 3.32,-3.31 l 57.910014,0 c 1.82998,0 3.32,1.48 3.32,3.31 l 0,26.87 c 6.32,3.06 12.15,6.99 17.33,11.64 l 16.91,-16.92 c 1.3,-1.28 3.38998,-1.28 4.67998,0 1.29,1.3 1.29,3.39 0,4.68 l -16.86,16.87 c 11.63,12.46 19.03,28.92 19.9,47.08999 l 23.88,0 c 1.81,0 3.28002,1.48 3.28002,3.29 0,1.82 -1.47,3.3 -3.28002,3.3 l -23.86,0 c -0.7104,18.15 -7.95,34.63 -19.42,47.16 l 17.09,17.1 c 1.29,1.29 1.29,3.38 0,4.67 -1.29,1.3 -3.38,1.3 -4.67998,0 l -17.09002,-17.09 c -12.46998,11.41 -28.82,18.62 -46.84,19.42 l 0,0 z m -7.23,-46.52 7.83,0 0,-8.64 -7.83,0 0,8.64 z m 0,-55.43999 0,21.29999 1.96998,18.22 3.88002,0 1.98,-18.22 0,-21.29999 -7.83,0 0,0 z m 48.71,-17.09 c -11.46,-11.46 -27.31,-18.55 -44.8,-18.55 -17.49,0 -33.330014,7.09 -44.790014,18.55 -11.47,11.47 -18.57002,27.31 -18.57002,44.80999 0,17.49 7.1,33.33 18.57002,44.79 11.46,11.46 27.300014,18.57 44.790014,18.57 17.48998,0 33.34,-7.11 44.8,-18.57 11.47,-11.46 18.57,-27.3 18.57,-44.79 0,-17.49999 -7.1,-33.33999 -18.57,-44.80999 l 0,0" />
  </g>
</svg>
