<?xml version="1.0" encoding="UTF-8" standalone="no"?>
<!-- Created with Inkscape (http://www.inkscape.org/) -->

<svg
   xmlns:dc="http://purl.org/dc/elements/1.1/"
   xmlns:cc="http://creativecommons.org/ns#"
   xmlns:rdf="http://www.w3.org/1999/02/22-rdf-syntax-ns#"
   xmlns:svg="http://www.w3.org/2000/svg"
   xmlns="http://www.w3.org/2000/svg"
   xmlns:sodipodi="http://sodipodi.sourceforge.net/DTD/sodipodi-0.dtd"
   xmlns:inkscape="http://www.inkscape.org/namespaces/inkscape"
   width="256"
   height="256"
   viewBox="0 0 256 256"
   id="svg29137"
   version="1.1"
   inkscape:version="0.91 r13725"
   sodipodi:docname="13.svg">
  <defs
     id="defs29139" />
  <sodipodi:namedview
     id="base"
     pagecolor="#ffffff"
     bordercolor="#666666"
     borderopacity="1.0"
     inkscape:pageopacity="0.0"
     inkscape:pageshadow="2"
     inkscape:zoom="0.35"
     inkscape:cx="144.52546"
     inkscape:cy="484.11801"
     inkscape:document-units="px"
     inkscape:current-layer="layer1"
     showgrid="false"
     units="px"
     inkscape:window-width="1366"
     inkscape:window-height="702"
     inkscape:window-x="0"
     inkscape:window-y="0"
     inkscape:window-maximized="1" />
  <metadata
     id="metadata29142">
    <rdf:RDF>
      <cc:Work
         rdf:about="">
        <dc:format>image/svg+xml</dc:format>
        <dc:type
           rdf:resource="http://purl.org/dc/dcmitype/StillImage" />
        <dc:title></dc:title>
      </cc:Work>
    </rdf:RDF>
  </metadata>
  <g
     inkscape:label="Layer 1"
     inkscape:groupmode="layer"
     id="layer1"
     transform="translate(0,-796.36216)">
    <path
       inkscape:connector-curvature="0"
       id="path20352"
       style="fill:#231f20;fill-opacity:1;fill-rule:nonzero;stroke:none"
       d="m 53.554988,855.02715 c -1.43,-1.42 -1.43,-3.74 0,-5.17 1.43,-1.42 3.73,-1.42 5.17,0 l 25.76,25.78 c 1.42,1.42 1.42,3.74 0,5.17 -1.42,1.42 -3.74,1.42 -5.16,0 l -25.77,-25.78 0,0 z m 74.480002,14.87 c 15.14,0 28.86,6.13 38.78,16.06 9.93,9.93 16.08,23.65 16.08,38.79 0,15.14 -6.15,28.85 -16.08,38.78 -9.92,9.93 -23.64,16.07 -38.78,16.07 -15.13,0 -28.850002,-6.15 -38.770002,-16.07 -9.94,-9.93 -16.07,-23.64 -16.07,-38.78 0,-15.14 6.13,-28.86 16.07,-38.79 9.92,-9.93 23.640002,-16.06 38.770002,-16.06 l 0,0 z m 31.03,23.81 c -7.94,-7.94 -18.91,-12.86 -31.03,-12.86 -12.13,0 -23.09,4.92 -31.030002,12.86 -7.94,7.94 -12.86002,18.91 -12.86002,31.04 0,12.12 4.92002,23.09 12.86002,31.03 7.940002,7.94 18.900002,12.86 31.030002,12.86 12.12,0 23.09,-4.92 31.03,-12.86 7.96,-7.94 12.87,-18.91 12.87,-31.03 0,-12.13 -4.91,-23.1 -12.87,-31.04 l 0,0 z m -34.68,-71.01 c 0,-2.02 1.63,-3.66 3.65,-3.66 2.01,0 3.66,1.64 3.66,3.66 l 0,36.44 c 0,2.02 -1.65,3.66 -3.66,3.66 -2.02,0 -3.65,-1.64 -3.65,-3.66 l 0,-36.44 z m 72.94,27.22 c 1.44,-1.43 3.75,-1.43 5.17,0 1.42,1.43 1.42,3.74 0,5.17 l -25.77,25.77 c -1.42,1.42 -3.73,1.42 -5.17,0 -1.42,-1.43 -1.42,-3.74 0,-5.17 l 25.77,-25.77 0,0 z m 32.35,70.83 c 2,0 3.64,1.64 3.64,3.65 0,2.02 -1.64,3.65 -3.64,3.65 l -36.46,0 c -2.01,0 -3.65,-1.63 -3.65,-3.65 0,-2.01 1.64,-3.65 3.65,-3.65 l 36.46,0 0,0 z m -27.23,72.95 c 1.43,1.43 1.43,3.74 0,5.17 -1.43,1.42005 -3.74,1.42005 -5.17,0 l -25.76,-25.77 c -1.43,-1.44 -1.43,-3.75 0,-5.17 1.42,-1.43 3.73,-1.43 5.16,0 l 25.77,25.77 0,0 z m -70.83,32.33005 c 0,2.02 -1.63,3.66 -3.66,3.66 -2.01,0 -3.65,-1.64 -3.65,-3.66 l 0,-36.44005 c 0,-2.02 1.64,-3.65 3.65,-3.65 2.03,0 3.66,1.63 3.66,3.65 l 0,36.44005 z M 58.664988,998.80715 c -1.43,1.42005 -3.74,1.42005 -5.17,0 -1.42,-1.43 -1.42,-3.74 0,-5.17 l 25.77,-25.77 c 1.43,-1.42 3.75,-1.42 5.18,0 1.42,1.43 1.42,3.75 0,5.17 l -25.78,25.77 0,0 z m -32.33,-70.83 c -2.02,0 -3.65,-1.63 -3.65,-3.65 0,-2.01 1.63,-3.65 3.65,-3.65 l 36.45,0 c 2.01,0 3.64,1.64 3.64,3.65 0,2.02 -1.63,3.65 -3.64,3.65 l -36.45,0 0,0" />
  </g>
</svg>
