<?xml version="1.0" encoding="UTF-8" standalone="no"?>
<!-- Created with Inkscape (http://www.inkscape.org/) -->

<svg
   xmlns:dc="http://purl.org/dc/elements/1.1/"
   xmlns:cc="http://creativecommons.org/ns#"
   xmlns:rdf="http://www.w3.org/1999/02/22-rdf-syntax-ns#"
   xmlns:svg="http://www.w3.org/2000/svg"
   xmlns="http://www.w3.org/2000/svg"
   xmlns:sodipodi="http://sodipodi.sourceforge.net/DTD/sodipodi-0.dtd"
   xmlns:inkscape="http://www.inkscape.org/namespaces/inkscape"
   width="256"
   height="256"
   viewBox="0 0 256 256"
   id="svg29137"
   version="1.1"
   inkscape:version="0.91 r13725"
   sodipodi:docname="17.svg">
  <defs
     id="defs29139" />
  <sodipodi:namedview
     id="base"
     pagecolor="#ffffff"
     bordercolor="#666666"
     borderopacity="1.0"
     inkscape:pageopacity="0.0"
     inkscape:pageshadow="2"
     inkscape:zoom="0.35"
     inkscape:cx="144.52546"
     inkscape:cy="484.11801"
     inkscape:document-units="px"
     inkscape:current-layer="layer1"
     showgrid="false"
     units="px"
     inkscape:window-width="1366"
     inkscape:window-height="702"
     inkscape:window-x="0"
     inkscape:window-y="0"
     inkscape:window-maximized="1" />
  <metadata
     id="metadata29142">
    <rdf:RDF>
      <cc:Work
         rdf:about="">
        <dc:format>image/svg+xml</dc:format>
        <dc:type
           rdf:resource="http://purl.org/dc/dcmitype/StillImage" />
        <dc:title></dc:title>
      </cc:Work>
    </rdf:RDF>
  </metadata>
  <g
     inkscape:label="Layer 1"
     inkscape:groupmode="layer"
     id="layer1"
     transform="translate(0,-796.36216)">
    <path
       inkscape:connector-curvature="0"
       id="path20318"
       style="fill:#231f20;fill-opacity:1;fill-rule:nonzero;stroke:none"
       d="m 128.00501,842.55084 c 22.42,0 42.72,9.1 57.44,23.8 14.69,14.7 23.79,35.01 23.79,57.43 0,22.43 -9.1,42.75 -23.79,57.44 -14.72,14.71 -35.02,23.80006 -57.44,23.80006 -22.43,0 -42.750002,-9.09006 -57.440002,-23.80006 -14.71,-14.69 -23.8,-35.01 -23.8,-57.44 0,-22.42 9.09,-42.73 23.8,-57.43 14.69,-14.7 35.010002,-23.8 57.440002,-23.8 l 0,0 z m -3.4,55.68 0,18.44 1.72,15.77 3.35,0 1.72,-15.77 0,-18.44 -6.79,0 0,0 z m 0,47.98 6.79,0 0,-7.46 -6.79,0 0,7.46 z m 8.79,-77.23 46.93,83.39 c 1.66,2.96 0.6,6.72 -2.35,8.38 -0.95,0.52 -1.99,0.78 -3.01,0.78 l 0,0.008 -93.930002,0 c -3.39,0 -6.15,-2.76 -6.15,-6.17 0,-1.2 0.3504,-2.33 0.94,-3.29 l 46.820002,-83.13 c 1.65,-2.97 5.41,-4.02 8.37,-2.36 1.03,0.58 1.83,1.41 2.38,2.39 l 0,0 z m 31.04,80.23 -36.43,-64.71 -36.450002,64.71 72.880002,0 0,0 z m 10.66,-101.02 c -2.02,-1.26 -2.65,-3.92 -1.39,-5.95 1.26,-2.03 3.92,-2.65 5.95,-1.38 14.06,8.78 25.73,21.04 33.81,35.59 7.79,14.04 12.24,30.18 12.24,47.33 0,17.8 -4.78,34.49 -13.1,48.88 -8.62,14.88 -21.06,27.28 -35.98,35.86006 -2.07,1.19 -4.71,0.48 -5.89,-1.58 -1.18,-2.06 -0.46,-4.7 1.59,-5.88 13.59,-7.83006 24.94,-19.14006 32.81,-32.72006 7.58,-13.09 11.91,-28.31 11.91,-44.56 0,-15.67 -4.03,-30.38 -11.12,-43.14 -7.35,-13.25 -18,-24.44 -30.83,-32.45 l 0,0 z m -93.270002,151.77 c 2.03,1.24006 2.67,3.89006 1.44,5.91006 -1.23,2.04 -3.87,2.68 -5.92,1.45 -14.35,-8.72006 -26.29,-21.04006 -34.54,-35.68006 -7.96,-14.15 -12.51,-30.48 -12.51,-47.86 0,-17.37 4.55,-33.7 12.51,-47.84 8.25,-14.65 20.19,-26.96 34.54,-35.69 2.05,-1.23 4.69,-0.5896 5.92,1.45 1.23,2.04 0.5904,4.69 -1.44,5.92 -13.08,7.93 -23.95,19.17 -31.48,32.54 -7.25,12.89 -11.4,27.77 -11.4,43.62 0,15.86 4.15,30.74 11.4,43.63 7.53,13.38 18.4,24.61 31.48,32.55 l 0,0 z m 95.970002,-125.96 c -12.75,-12.75 -30.36,-20.63 -49.79,-20.63 -19.45,0 -37.050002,7.88 -49.800002,20.63 -12.74,12.74 -20.62,30.35 -20.62,49.78 0,19.45 7.88,37.06 20.62,49.8 12.75,12.74 30.350002,20.63 49.800002,20.63 19.43,0 37.04,-7.89 49.79,-20.63 12.74,-12.74 20.62,-30.35 20.62,-49.8 0,-19.43 -7.88,-37.04 -20.62,-49.78 l 0,0" />
  </g>
</svg>
