<?xml version="1.0" encoding="UTF-8" standalone="no"?>
<!-- Created with Inkscape (http://www.inkscape.org/) -->

<svg
   xmlns:dc="http://purl.org/dc/elements/1.1/"
   xmlns:cc="http://creativecommons.org/ns#"
   xmlns:rdf="http://www.w3.org/1999/02/22-rdf-syntax-ns#"
   xmlns:svg="http://www.w3.org/2000/svg"
   xmlns="http://www.w3.org/2000/svg"
   xmlns:sodipodi="http://sodipodi.sourceforge.net/DTD/sodipodi-0.dtd"
   xmlns:inkscape="http://www.inkscape.org/namespaces/inkscape"
   width="256"
   height="256"
   viewBox="0 0 256 256"
   id="svg29137"
   version="1.1"
   inkscape:version="0.91 r13725"
   sodipodi:docname="18.svg">
  <defs
     id="defs29139" />
  <sodipodi:namedview
     id="base"
     pagecolor="#ffffff"
     bordercolor="#666666"
     borderopacity="1.0"
     inkscape:pageopacity="0.0"
     inkscape:pageshadow="2"
     inkscape:zoom="0.35"
     inkscape:cx="144.52546"
     inkscape:cy="484.11801"
     inkscape:document-units="px"
     inkscape:current-layer="layer1"
     showgrid="false"
     units="px"
     inkscape:window-width="1366"
     inkscape:window-height="702"
     inkscape:window-x="0"
     inkscape:window-y="0"
     inkscape:window-maximized="1" />
  <metadata
     id="metadata29142">
    <rdf:RDF>
      <cc:Work
         rdf:about="">
        <dc:format>image/svg+xml</dc:format>
        <dc:type
           rdf:resource="http://purl.org/dc/dcmitype/StillImage" />
        <dc:title></dc:title>
      </cc:Work>
    </rdf:RDF>
  </metadata>
  <g
     inkscape:label="Layer 1"
     inkscape:groupmode="layer"
     id="layer1"
     transform="translate(0,-796.36216)">
    <path
       inkscape:connector-curvature="0"
       id="path20320"
       style="fill:#231f20;fill-opacity:1;fill-rule:nonzero;stroke:none"
       d="m 81.815008,999.96085 c 2.019983,1.24005 2.670003,3.89005 1.44,5.91005 -1.23,2.04 -3.86002,2.68 -5.90002,1.45 -14.36998,-8.72005 -26.30998,-21.04005 -34.53998,-35.68005 -0.36002,-0.62 -0.6904,-1.24 -1.03002,-1.86 l 9.93,0 c 7.45,12.34 17.79,22.71 30.1,30.18 l 0,0 z m 46.170002,-157.41 c 22.42998,0 42.75,9.1 57.44,23.8 14.71998,14.7 23.79,35.01 23.79,57.43 0,22.43 -9.07002,42.75 -23.79,57.44 -14.69,14.71 -35.01002,23.80005 -57.44,23.80005 -22.43,0 -42.719999,-9.09005 -57.430002,-23.80005 -14.7,-14.69 -23.8,-35.01 -23.8,-57.44 0,-22.42 9.09998,-42.73 23.8,-57.43 14.710003,-14.7 35.000002,-23.8 57.430002,-23.8 l 0,0 z m 49.8,31.45 c -12.75,-12.75 -30.35,-20.63 -49.8,-20.63 -19.43,0 -37.030019,7.88 -49.770002,20.63 -12.75,12.74 -20.64,30.35 -20.64,49.78 0,19.45 7.89,37.05 20.64,49.8 12.739983,12.74 30.340002,20.63 49.770002,20.63 19.44998,0 37.05,-7.89 49.8,-20.63 12.74,-12.75 20.63,-30.35 20.63,-49.8 0,-19.43 -7.89,-37.04 -20.63,-49.78 l 0,0 z m -2.69,-25.81 c -2.03,-1.26 -2.66,-3.92 -1.39,-5.95 1.27,-2.03 3.92,-2.65 5.94,-1.39 14.06,8.78 25.74,21.05 33.82,35.6 l 0.7304,1.35 -9.92,0 c -7.25,-12.01 -17.29,-22.18 -29.18,-29.61 l 0,0 z m 45.38,44.04 c 3.38,9.91 5.23,20.52 5.23,31.55 0,11.04 -1.85,21.65 -5.22,31.56 l -9.19,0 c 3.71,-9.8 5.75,-20.43 5.75,-31.56 0,-11.12 -2.03,-21.74 -5.75,-31.55 l 9.18,0 0,0 z m -6.28,77.55 c -0.5096,0.97 -1.04,1.93 -1.6,2.88 -8.61,14.88 -21.05,27.28 -35.98,35.86005 -2.07,1.1899 -4.69,0.4799 -5.88,-1.58 -1.19,-2.07 -0.48,-4.7 1.59,-5.88 13.1,-7.54005 24.12,-18.33005 31.95,-31.28005 l 9.92,0 0,0 z m -178.690002,-14.44 c -3.38002,-9.91 -5.21,-20.52 -5.21,-31.56 0,-11.03 1.82998,-21.64 5.21,-31.55 l 9.19998,0 c -3.73,9.81 -5.76,20.44 -5.76,31.55 0,11.11 2.03,21.75 5.76,31.56 l -9.19998,0 0,0 z m 6.28,-77.54 c 0.34,-0.62 0.6696,-1.25 1.03,-1.86 8.23,-14.65 20.17,-26.96 34.54,-35.69 2.04,-1.23 4.67,-0.5896 5.9,1.45 1.230003,2.04 0.580003,4.69 -1.44,5.92 -12.31,7.47 -22.65,17.84 -30.1,30.18 l -9.93,0 0,0" />
  </g>
</svg>
