<?xml version="1.0" encoding="UTF-8" standalone="no"?>
<!-- Created with Inkscape (http://www.inkscape.org/) -->

<svg
   xmlns:dc="http://purl.org/dc/elements/1.1/"
   xmlns:cc="http://creativecommons.org/ns#"
   xmlns:rdf="http://www.w3.org/1999/02/22-rdf-syntax-ns#"
   xmlns:svg="http://www.w3.org/2000/svg"
   xmlns="http://www.w3.org/2000/svg"
   xmlns:sodipodi="http://sodipodi.sourceforge.net/DTD/sodipodi-0.dtd"
   xmlns:inkscape="http://www.inkscape.org/namespaces/inkscape"
   width="256"
   height="256"
   viewBox="0 0 256 256"
   id="svg29137"
   version="1.1"
   inkscape:version="0.91 r13725"
   sodipodi:docname="19.svg">
  <defs
     id="defs29139" />
  <sodipodi:namedview
     id="base"
     pagecolor="#ffffff"
     bordercolor="#666666"
     borderopacity="1.0"
     inkscape:pageopacity="0.0"
     inkscape:pageshadow="2"
     inkscape:zoom="0.35"
     inkscape:cx="144.52546"
     inkscape:cy="484.11801"
     inkscape:document-units="px"
     inkscape:current-layer="layer1"
     showgrid="false"
     units="px"
     inkscape:window-width="1366"
     inkscape:window-height="702"
     inkscape:window-x="0"
     inkscape:window-y="0"
     inkscape:window-maximized="1" />
  <metadata
     id="metadata29142">
    <rdf:RDF>
      <cc:Work
         rdf:about="">
        <dc:format>image/svg+xml</dc:format>
        <dc:type
           rdf:resource="http://purl.org/dc/dcmitype/StillImage" />
        <dc:title></dc:title>
      </cc:Work>
    </rdf:RDF>
  </metadata>
  <g
     inkscape:label="Layer 1"
     inkscape:groupmode="layer"
     id="layer1"
     transform="translate(0,-796.36216)">
    <path
       inkscape:connector-curvature="0"
       id="path20324"
       style="fill:#231f20;fill-opacity:1;fill-rule:nonzero;stroke:none"
       d="m 131.505,861.04714 c 15.36,0.7896 29.3,7.04 39.89,16.84 l 12.13998,-12.13 0,-19.64 c 0,-1.57 1.28002,-2.83 2.84002,-2.83 1.55,0 2.82,1.26 2.82,2.83 l 0,13.97 10.15,-10.14 c 1.1,-1.11 2.91,-1.11 4.01,0 1.1,1.1 1.1,2.9 0,4 l -10.15,10.15 13.97,0 c 1.57,0 2.84,1.26 2.84,2.83 0,1.56 -1.27,2.83 -2.84,2.83 l -19.64,0 -12.15,12.17 c 9.69,10.73 15.82,24.79 16.38,40.26 l 16.95,0 13.89,-13.89 c 1.09998,-1.1 2.9,-1.1 4,0 1.09998,1.11 1.09998,2.9 0,4.01 l -9.87,9.88 14.34,0 c 1.56,0 2.82,1.27 2.82,2.83 0,1.57 -1.26,2.83 -2.82,2.83 l -14.34,0 9.87,9.88 c 1.09998,1.11 1.09998,2.91 0,4.01 -1.1,1.1 -2.90002,1.1 -4,0 l -13.89,-13.89 -16.98,0 c -0.78002,15.49 -7.09,29.53 -17.02,40.16 l 11.9,11.89 19.63,0 c 1.57,0 2.83,1.27 2.83,2.83 0,1.56 -1.26,2.82 -2.83,2.82 l -13.97,0 10.15,10.15 c 1.09,1.11 1.09,2.91 0,4.01 -1.11999,1.11006 -2.9,1.11006 -4.01,0 l -10.14,-10.14 0,13.97006 c 0,1.56 -1.28,2.84 -2.85,2.84 -1.55,0 -2.81999,-1.28 -2.81999,-2.84 l 0,-19.64006 -11.92001,-11.92 c -10.81,9.7 -24.96,15.75 -40.51,16.24 l 0,16.85006 13.89001,13.89 c 1.10999,1.1 1.10999,2.91 0,4 -1.1,1.11 -2.91001,1.11 -4.01002,0 l -9.88,-9.87 0,14.34 c 0,1.57 -1.28,2.84 -2.84,2.84 -1.56,0 -2.82,-1.27 -2.82,-2.84 l 0,-14.34 -9.89,9.87 c -1.11,1.11 -2.89001,1.11 -4.01,0 -1.09,-1.09 -1.09,-2.89 0,-4 l 13.9,-13.89 0,-16.92006 c -15.45,-0.88 -29.440001,-7.27 -40.000001,-17.23 l -12.05,12.05 0,19.64006 c 0,1.56 -1.27,2.84 -2.82,2.84 -1.57,0 -2.84,-1.28 -2.84,-2.84 l 0,-13.98006 -10.14,10.15 c -1.12,1.11 -2.9,1.11 -4.02,0 -1.09,-1.11 -1.09,-2.9 0,-4.01 l 10.15,-10.14 -13.97,0 c -1.57,0 -2.83,-1.27 -2.83,-2.84 0,-1.56 1.26,-2.83 2.83,-2.83 l 19.64,0 12.1,-12.1 c -9.58,-10.79 -15.55,-24.87 -16.01,-40.32 l -17.27,0 -13.87,13.88 c -1.12,1.11 -2.91,1.11 -4.01,0 -1.11,-1.1 -1.11,-2.9 0,-4 l 9.88,-9.88 -14.35,0 c -1.56,0 -2.83,-1.27 -2.83,-2.84 0,-1.56 1.27,-2.83 2.83,-2.83 l 14.35,0 -9.88,-9.88 c -1.11,-1.11 -1.11,-2.9 0,-4.01 1.1,-1.1 2.89,-1.1 4.01,0 l 13.87,13.89 17.36,0 c 0.87,-15.33 7.2,-29.21 17.05,-39.74 l -12.31,-12.31 -19.63,0 c -1.57,0 -2.83,-1.26 -2.83,-2.82 0,-1.57 1.26,-2.84 2.83,-2.84 l 13.98,0 -10.14,-10.14 c -1.11,-1.11 -1.11,-2.9 0,-4.01 1.08999,-1.1 2.89,-1.1 3.99,0 l 10.15,10.15 0,-13.97 c 0,-1.56 1.27,-2.83 2.83,-2.83 1.56,0 2.83,1.27 2.83,2.83 l 0,19.63 12.34999,12.35 c 10.72,-9.59 24.700001,-15.6 40.090001,-16.17 l 0,-17.35 -13.89,-13.88 c -1.11,-1.11 -1.11,-2.9 0,-4.01 1.11,-1.1 2.9,-1.1 4,0 l 9.89,9.88 0,-14.35 c 0,-1.55 1.27,-2.83 2.83,-2.83 1.56,0 2.84,1.28 2.84,2.83 l 0,14.35 9.87,-9.88 c 1.11,-1.1 2.9,-1.1 4.01,0 1.09,1.11 1.09,2.9 0,4.01 l -13.88,13.88 0,17.4 z m 35.66,24.56 c -9.99,-9.98 -23.77,-16.15 -39,-16.15 -15.22,0 -29.010021,6.17 -38.990001,16.15 -9.98,9.98 -16.16,23.77 -16.16,39 0,15.22 6.18,29.02 16.16,39 9.98,9.97 23.770001,16.15 38.990001,16.15 15.23,0 29.01,-6.18 39,-16.15 9.98,-9.98 16.15998,-23.78 16.15998,-39 0,-15.23 -6.17998,-29.02 -16.15998,-39 l 0,0" />
  </g>
</svg>
