<?xml version="1.0" encoding="UTF-8" standalone="no"?>
<!-- Created with Inkscape (http://www.inkscape.org/) -->

<svg
   xmlns:dc="http://purl.org/dc/elements/1.1/"
   xmlns:cc="http://creativecommons.org/ns#"
   xmlns:rdf="http://www.w3.org/1999/02/22-rdf-syntax-ns#"
   xmlns:svg="http://www.w3.org/2000/svg"
   xmlns="http://www.w3.org/2000/svg"
   xmlns:sodipodi="http://sodipodi.sourceforge.net/DTD/sodipodi-0.dtd"
   xmlns:inkscape="http://www.inkscape.org/namespaces/inkscape"
   width="256"
   height="256"
   viewBox="0 0 256 256"
   id="svg29137"
   version="1.1"
   inkscape:version="0.91 r13725"
   sodipodi:docname="21.svg">
  <defs
     id="defs29139" />
  <sodipodi:namedview
     id="base"
     pagecolor="#ffffff"
     bordercolor="#666666"
     borderopacity="1.0"
     inkscape:pageopacity="0.0"
     inkscape:pageshadow="2"
     inkscape:zoom="0.35"
     inkscape:cx="144.52546"
     inkscape:cy="484.11801"
     inkscape:document-units="px"
     inkscape:current-layer="layer1"
     showgrid="false"
     units="px"
     inkscape:window-width="1366"
     inkscape:window-height="702"
     inkscape:window-x="0"
     inkscape:window-y="0"
     inkscape:window-maximized="1" />
  <metadata
     id="metadata29142">
    <rdf:RDF>
      <cc:Work
         rdf:about="">
        <dc:format>image/svg+xml</dc:format>
        <dc:type
           rdf:resource="http://purl.org/dc/dcmitype/StillImage" />
        <dc:title></dc:title>
      </cc:Work>
    </rdf:RDF>
  </metadata>
  <g
     inkscape:label="Layer 1"
     inkscape:groupmode="layer"
     id="layer1"
     transform="translate(0,-796.36216)">
    <path
       inkscape:connector-curvature="0"
       id="path20322"
       style="fill:#231f20;fill-opacity:1;fill-rule:nonzero;stroke:none"
       d="m 49.672399,913.46314 c 1.95,0 3.29,2.34 3.29,4.09 l 0,41.5 c 5.39,-3.58 18.77,-10 36.63001,-1.2 23.460001,11.57 32.550001,10.87 47.610001,1.76002 15.06,-9.11002 39.91,-5.96002 49.71,3.5 7.33,7.07998 24.67,-0.94002 32.93,-5.43 l 0,-80.43 c 0,-0.18 -0.1296,-0.3096 -0.3096,-0.3096 l -6.35,0 c -1.76,0 -4.09,-1.21 -4.09,-3.19 l 0,-17.48 c 0,-1.48 1.2,-2.69 2.68,-2.69 l 2.21,0 0,-2.38 -26.48,0 0,2.38 2.21,0 c 1.48998,0 2.69998,1.21 2.69998,2.69 l 0,13.98 c 0.3696,4.47 -1.61,6.69 -4.13998,6.69 l -135.000011,0 c -0.0904,0 -0.1704,0.04 -0.2104,0.08 l -0.008,0.024 c -0.048,0.04 -0.0904,0.12 -0.0904,0.2096 l 0,17.17 c 0,3.23 -3.02,3.92 -6.22,3.4 l -15.98,0 c -1.48,0 -2.68,-1.21 -2.68,-2.7 0,-1.48 1.2,-2.69 2.68,-2.69 l 14.13,0 0,-15.18 c 0,-2.29 0.94,-4.39 2.45,-5.91 l 0.008,0 0.008,0 0.016,-0.032 c 1.53,-1.51 3.61,-2.44 5.89,-2.44 l 133.759991,0 0,-9.91 -2.21,0 c -1.49,0 -2.7,-1.2 -2.7,-2.69 l 0,-7.76 c 0,-1.48 1.21,-2.69 2.7,-2.69 l 31.86,0 c 1.48,0 2.69,1.21 2.69,2.69 l 0,7.76 c 0,1.49 -1.21,2.69 -2.69,2.69 l -2.21,0 0,9.91 5.06,0 c 4.59,0 8.39,3.79 8.39,8.38 l 0,117.28 c 0,2.29 -0.95,4.38 -2.47,5.90004 l -0.008,0.01 0,0.01 -0.016,0.01 c -1.52,1.52 -3.61,2.44 -5.88998,2.44 l -166.260011,0 c -2.28,0 -4.38,-0.94 -5.91,-2.45 l -0.008,-0.01 -0.008,-0.01 0,-0.01 c -1.5108,-1.52204 -2.4508,-3.61204 -2.4508,-5.89204 l 0,-75.69 -14.13,0 c -1.48,0 -2.68,-1.2 -2.68,-2.7 0,-1.47 1.2,-2.68 2.68,-2.68 l 18.91,0 0,0" />
  </g>
</svg>
