<?xml version="1.0" encoding="UTF-8" standalone="no"?>
<!-- Created with Inkscape (http://www.inkscape.org/) -->

<svg
   xmlns:dc="http://purl.org/dc/elements/1.1/"
   xmlns:cc="http://creativecommons.org/ns#"
   xmlns:rdf="http://www.w3.org/1999/02/22-rdf-syntax-ns#"
   xmlns:svg="http://www.w3.org/2000/svg"
   xmlns="http://www.w3.org/2000/svg"
   xmlns:sodipodi="http://sodipodi.sourceforge.net/DTD/sodipodi-0.dtd"
   xmlns:inkscape="http://www.inkscape.org/namespaces/inkscape"
   width="256"
   height="256"
   viewBox="0 0 256 256"
   id="svg29137"
   version="1.1"
   inkscape:version="0.91 r13725"
   sodipodi:docname="22.svg">
  <defs
     id="defs29139" />
  <sodipodi:namedview
     id="base"
     pagecolor="#ffffff"
     bordercolor="#666666"
     borderopacity="1.0"
     inkscape:pageopacity="0.0"
     inkscape:pageshadow="2"
     inkscape:zoom="0.35"
     inkscape:cx="144.52546"
     inkscape:cy="484.11801"
     inkscape:document-units="px"
     inkscape:current-layer="layer1"
     showgrid="false"
     units="px"
     inkscape:window-width="1366"
     inkscape:window-height="702"
     inkscape:window-x="0"
     inkscape:window-y="0"
     inkscape:window-maximized="1" />
  <metadata
     id="metadata29142">
    <rdf:RDF>
      <cc:Work
         rdf:about="">
        <dc:format>image/svg+xml</dc:format>
        <dc:type
           rdf:resource="http://purl.org/dc/dcmitype/StillImage" />
        <dc:title></dc:title>
      </cc:Work>
    </rdf:RDF>
  </metadata>
  <g
     inkscape:label="Layer 1"
     inkscape:groupmode="layer"
     id="layer1"
     transform="translate(0,-796.36216)">
    <path
       inkscape:connector-curvature="0"
       id="path20310"
       style="fill:#231f20;fill-opacity:1;fill-rule:nonzero;stroke:none"
       d="m 65.933584,900.83314 38.070006,0 0,-18.04 -18.680006,0 0,-9.92 47.320006,0 0,9.92 -18.69,0 0,18.04 44.77,0 87.80003,-18.9 c 2.22,-0.46 4.41,0.96 4.89,3.17 0.3,1.48 -0.2304,2.94 -1.27,3.9 l -9.07,9.09 c -8.39,8.5 -30.59003,29.8 -49.34003,47.79 -15.73,15.07 -29,27.79 -29.05,27.9 -0.76002,1.31 -2.13,2.04 -3.54,2.06 l 0,0.008 -93.210006,0 c -4.14,0 -7.89,-1.69 -10.61,-4.4 -2.71,-2.73 -4.41,-6.48 -4.41,-10.61 l 0,-33.57 c -7.16,-3.05 -25.2,-10.91 -36.55,-17.35 -8.4799997,-4.81 -10.9299997,-9.84 -10.4499997,-14.82 0.4296,-4.7 3.52,-8.64 6.4099997,-12.33 3.15998,-4.02 5.82,-6.37 9.84,-6.72 3.6,-0.3104 7.79,1.27 14.14,5.06 9.65,5.75 23.13,16.79 27.38998,20.33 1.35,-0.4 2.76002,-0.6096 4.24,-0.6096 l 0,0 z m 176.270036,8.29 c 2.78,6.84 9.98,10.8 9.94,19.76 0,5.56 -4.5,10.06 -10.07,10.06 -5.5501,0 -10.0501,-4.5 -10.0501,-10.06 0.04,-8.96 7.54,-14.34 10.18,-19.76 l 0,0 z m -191.290036,11.01 0,-4.29 c 0,-4.14 1.7,-7.89 4.41,-10.6 0.1,-0.1096 0.2104,-0.2096 0.32,-0.32 -5.38,-4.4 -16.49,-13.29 -24.72,-18.18 -5.06,-3.03 -8.13,-4.32 -10.22,-4.13 -1.67,0.14 -3.16,1.63 -5.2,4.23 -2.33,2.95 -4.81,6.12 -5.07,8.87 -0.2296,2.49 1.47,5.28 7.17,8.51 9.87,5.59002 25.14,12.38002 33.31,15.91 l 0,0 z m 108.230006,-11.07 -93.210006,0 c -1.88,0 -3.56,0.76 -4.8,1.99 -1.23002,1.24 -1.99,2.92 -1.99,4.79 l 0,45 c 0,1.86 0.76,3.56 1.99,4.79 1.23998,1.23 2.92,1.98 4.8,1.98 l 91.540006,0 c 4.37,-4.45 15.66,-15.27 28.57,-27.64 18.34,-17.6 39.98,-38.35 48.64003,-47.08 l -74.44003,16.01 c -0.3504,0.1 -0.72,0.16 -1.1,0.16 l 0,0" />
  </g>
</svg>
