<?xml version="1.0" encoding="UTF-8" standalone="no"?>
<!-- Created with Inkscape (http://www.inkscape.org/) -->

<svg
   xmlns:dc="http://purl.org/dc/elements/1.1/"
   xmlns:cc="http://creativecommons.org/ns#"
   xmlns:rdf="http://www.w3.org/1999/02/22-rdf-syntax-ns#"
   xmlns:svg="http://www.w3.org/2000/svg"
   xmlns="http://www.w3.org/2000/svg"
   xmlns:sodipodi="http://sodipodi.sourceforge.net/DTD/sodipodi-0.dtd"
   xmlns:inkscape="http://www.inkscape.org/namespaces/inkscape"
   width="256"
   height="256"
   viewBox="0 0 256 256"
   id="svg29137"
   version="1.1"
   inkscape:version="0.91 r13725"
   sodipodi:docname="01.svg">
  <defs
     id="defs29139" />
  <sodipodi:namedview
     id="base"
     pagecolor="#ffffff"
     bordercolor="#666666"
     borderopacity="1.0"
     inkscape:pageopacity="0.0"
     inkscape:pageshadow="2"
     inkscape:zoom="0.35"
     inkscape:cx="-127.85714"
     inkscape:cy="520"
     inkscape:document-units="px"
     inkscape:current-layer="layer1"
     showgrid="false"
     units="px"
     inkscape:window-width="1366"
     inkscape:window-height="702"
     inkscape:window-x="0"
     inkscape:window-y="0"
     inkscape:window-maximized="1" />
  <metadata
     id="metadata29142">
    <rdf:RDF>
      <cc:Work
         rdf:about="">
        <dc:format>image/svg+xml</dc:format>
        <dc:type
           rdf:resource="http://purl.org/dc/dcmitype/StillImage" />
        <dc:title></dc:title>
      </cc:Work>
    </rdf:RDF>
  </metadata>
  <g
     inkscape:label="Layer 1"
     inkscape:groupmode="layer"
     id="layer1"
     transform="translate(0,-796.36216)">
    <path
       inkscape:connector-curvature="0"
       id="path20312-3"
       style="fill:#231f20;fill-opacity:1;fill-rule:nonzero;stroke:none"
       d="m 79.984573,1018.7576 c 0.97,1.38 1.12,3.27 0.2304,4.83 -1.25,2.14 -4,2.89 -6.13,1.65 -16.56,-9.52 -30.34997,-23.28 -39.91997,-39.78002 -9.24,-15.96 -14.53,-34.48 -14.53,-54.21 0,-29.92 12.14,-57.01 31.73997,-76.61 19.62,-19.61 46.71,-31.75 76.630007,-31.75 29.91,0 57,12.14 76.61,31.75 19.62,19.6 31.75,46.69 31.75,76.61 0,19.73 -5.29,38.25 -14.53,54.21 -9.55,16.50002 -23.35,30.26002 -39.91,39.78002 -2.15,1.24 -4.89,0.4904 -6.12,-1.65 -0.9,-1.56 -0.76,-3.45 0.22,-4.83 l -16.82,-29.12002 c -0.5896,-1.02 -0.24,-2.31 0.78,-2.88998 1,-0.6 2.29,-0.24 2.89,0.76 l 16.59,28.76 c 13.66,-8.28 25.15,-19.78 33.46,-33.44 l -28.77,-16.61 c -1,-0.58 -1.34,-1.87 -0.76,-2.88 0.58,-1.01002 1.87,-1.35 2.88,-0.78002 l 28.77,16.62 c 7.51,-13.6 11.91,-29.14 12.27,-45.69998 l -33.23,0 c -1.19,0 -2.13,-0.95 -2.13,-2.13002 0,-1.15998 0.94,-2.11998 2.13,-2.11998 l 33.25,0 c -0.34,-16.55002 -4.72,-32.11002 -12.2,-45.73 l -28.85,16.65 c -1.01,0.6 -2.30998,0.23998 -2.88998,-0.7696 -0.5896,-1.01002 -0.24962,-2.30002 0.76,-2.89 l 28.86,-16.66 c -4.16,-6.85 -9.12,-13.18 -14.77,-18.82 -5.61,-5.61 -11.89,-10.55002 -18.71,-14.7 l -16.66002,28.88 c -0.5896,1.01 -1.88,1.36 -2.89,0.78 -1.01,-0.58 -1.36,-1.87 -0.78,-2.89 l 16.68002,-28.87 c -13.62002,-7.52 -29.20002,-11.93 -45.77002,-12.27 l 0,33.35 c 0,1.17 -0.96,2.11 -2.11,2.11 -1.17,0 -2.12,-0.94 -2.12,-2.11 l 0,-33.35 c -16.5704,0.34 -32.150407,4.7496 -45.770407,12.2496 l 16.68,28.89 c 0.5896,1.02 0.24,2.31 -0.7696,2.89 -1.02,0.58 -2.31,0.2304 -2.89,-0.78 l -16.67,-28.88 c -6.82,4.15 -13.1,9.09 -18.71,14.7 -5.64,5.64 -10.59997,11.97 -14.75997,18.82 l 28.84997,16.66 c 1.01,0.5896 1.36,1.88 0.78,2.89 -0.5896,1.01 -1.88,1.37 -2.9,0.7696 l -28.83997,-16.65 c -7.5,13.62 -11.87,29.17998 -12.21,45.73 l 33.26997,0 c 1.16,0 2.12,0.96 2.12,2.12 0,1.17998 -0.96,2.13 -2.12,2.13 l -33.26997,0 c 0.3704,16.56 4.77,32.1 12.27,45.69998 l 28.78997,-16.61998 c 1.01,-0.5696 2.3,-0.2304 2.89,0.78 0.58,1.01 0.2304,2.3 -0.7896,2.88 l -28.76997,16.61 c 8.30997,13.66 19.80997,25.15 33.46997,33.44 l 16.6,-28.76 c 0.58,-1 1.87,-1.36 2.89,-0.76 1.01,0.58 1.36,1.87 0.7696,2.88998 l -16.81,29.12002 0,0 z m -12.31,-135.64002 c -2.06,-1.85 -2.23,-5.02 -0.3896,-7.07 1.84,-2.07 5.02,-2.25 7.08,-0.4104 l 45.230007,40.6 c 2.49,-1.4 5.35,-2.19 8.41,-2.19 9.49,0 17.2,7.71 17.2,17.2 0,9.51 -7.71,17.21 -17.2,17.21 -9.5,0 -17.2,-7.7 -17.2,-17.21 0,-2.79 0.6696,-5.44 1.85,-7.77 l -44.980007,-40.36 0,0" />
  </g>
</svg>
