<?xml version="1.0" encoding="UTF-8" standalone="no"?>
<!-- Created with Inkscape (http://www.inkscape.org/) -->

<svg
   xmlns:dc="http://purl.org/dc/elements/1.1/"
   xmlns:cc="http://creativecommons.org/ns#"
   xmlns:rdf="http://www.w3.org/1999/02/22-rdf-syntax-ns#"
   xmlns:svg="http://www.w3.org/2000/svg"
   xmlns="http://www.w3.org/2000/svg"
   xmlns:sodipodi="http://sodipodi.sourceforge.net/DTD/sodipodi-0.dtd"
   xmlns:inkscape="http://www.inkscape.org/namespaces/inkscape"
   width="256"
   height="256"
   viewBox="0 0 256 256"
   id="svg29137"
   version="1.1"
   inkscape:version="0.91 r13725"
   sodipodi:docname="29.svg">
  <defs
     id="defs29139" />
  <sodipodi:namedview
     id="base"
     pagecolor="#ffffff"
     bordercolor="#666666"
     borderopacity="1.0"
     inkscape:pageopacity="0.0"
     inkscape:pageshadow="2"
     inkscape:zoom="0.35"
     inkscape:cx="144.60111"
     inkscape:cy="484.26334"
     inkscape:document-units="px"
     inkscape:current-layer="layer1"
     showgrid="false"
     units="px"
     inkscape:window-width="1366"
     inkscape:window-height="702"
     inkscape:window-x="0"
     inkscape:window-y="0"
     inkscape:window-maximized="1" />
  <metadata
     id="metadata29142">
    <rdf:RDF>
      <cc:Work
         rdf:about="">
        <dc:format>image/svg+xml</dc:format>
        <dc:type
           rdf:resource="http://purl.org/dc/dcmitype/StillImage" />
        <dc:title></dc:title>
      </cc:Work>
    </rdf:RDF>
  </metadata>
  <g
     inkscape:label="Layer 1"
     inkscape:groupmode="layer"
     id="layer1"
     transform="translate(0,-796.36216)">
    <path
       inkscape:connector-curvature="0"
       id="path20372"
       style="fill:#231f20;fill-opacity:1;fill-rule:nonzero;stroke:none"
       d="m 128,844.34836 c 21.92998,0 41.8,8.89 56.17998,23.27 14.38002,14.38 23.27,34.24 23.27,56.18 0,21.94 -8.88998,41.8 -23.27,56.18 -14.38,14.38 -34.25,23.27004 -56.17998,23.27004 -21.92,0 -41.800023,-8.89004 -56.170003,-23.27004 -14.38002,-14.38 -23.28002,-34.24 -23.28002,-56.18 0,-21.94 8.9,-41.8 23.28002,-56.18 14.36998,-14.38 34.250003,-23.27 56.170003,-23.27 l 0,0 z m -33.910003,26.83 0,106.36 14.290003,0 0,-42.4 27.66,0 c 6.86,-0.016 12.65998,-0.83 17.44998,-2.42 4.75,-1.6 8.63002,-3.87 11.54,-6.82 2.94,-2.96 5.07002,-6.48 6.42,-10.56 1.33,-4.09 1.98,-8.63 1.96002,-13.62 -0.048,-7.32 -1.54,-13.22 -4.5,-17.7 -2.97,-4.5 -7.14,-7.77 -12.52,-9.83 -5.36002,-2.05 -11.69002,-3.03 -18.98,-3.01 l -43.320023,0 0,0 z m 14.290003,12.01 26.14,0 c 8.19998,-0.032 14.31,1.45 18.3,4.5 4.03,3.07 6.03,7.83 6.01,14.34 0.048,6.99 -1.89,12.25 -5.82,15.8 -3.94,3.54 -10.11,5.32002 -18.49,5.32002 l -26.14,0 0,-39.96 z m 65.69,-33.32 c -2,-1.23 -2.6,-3.84 -1.36,-5.82 1.23,-1.99 3.82,-2.59 5.82,-1.36 13.75,8.59 25.16,20.59 33.06,34.81 7.62,13.74 11.97,29.52 11.97,46.3 0,17.4 -4.66,33.73 -12.81,47.81 -8.43,14.55 -20.6,26.67 -35.19,35.07004 -2.02,1.16 -4.6,0.46 -5.76002,-1.56 -1.15998,-2.02 -0.4496,-4.6 1.55002,-5.75004 13.29,-7.64 24.38998,-18.71 32.07998,-32 7.42002,-12.81 11.67002,-27.68 11.67002,-43.57 0,-15.32 -3.96,-29.72 -10.88002,-42.2 -7.19998,-12.96 -17.61,-23.9 -30.15,-31.73 l 0,0 z m -91.240003,148.42 c 1.99,1.21 2.63,3.80004 1.42,5.79004 -1.2,1.99 -3.79,2.63 -5.78,1.43 -14.05,-8.54004 -25.71,-20.59004 -33.78,-34.91004 -7.79,-13.84 -12.25,-29.8 -12.25,-46.8 0,-16.99 4.46,-32.96 12.25,-46.8 8.07,-14.32 19.73,-26.36 33.78,-34.9 1.99,-1.21 4.58,-0.5696 5.78,1.41 1.21,2 0.5704,4.59 -1.42,5.8 -12.78,7.76 -23.41,18.74 -30.77,31.83 -7.11,12.6 -11.15,27.16 -11.15,42.66 0,15.5 4.04,30.06 11.15,42.67 7.36,13.08 17.99,24.05 30.77,31.82 l 0,0 z M 176.7,875.09836 c -12.47,-12.46 -29.69,-20.17 -48.7,-20.17 -19.01,0 -36.230003,7.71 -48.690003,20.17 -12.47,12.46 -20.18,29.68 -20.18,48.7 0,19.02 7.71,36.24 20.18,48.7 12.46,12.46 29.680003,20.17 48.690003,20.17 19.01,0 36.23,-7.71 48.7,-20.17 12.45,-12.46 20.17,-29.68 20.17,-48.7 0,-19.02 -7.72,-36.24 -20.17,-48.7 l 0,0" />
  </g>
</svg>
