<?xml version="1.0" encoding="UTF-8" standalone="no"?>
<!-- Created with Inkscape (http://www.inkscape.org/) -->

<svg
   xmlns:dc="http://purl.org/dc/elements/1.1/"
   xmlns:cc="http://creativecommons.org/ns#"
   xmlns:rdf="http://www.w3.org/1999/02/22-rdf-syntax-ns#"
   xmlns:svg="http://www.w3.org/2000/svg"
   xmlns="http://www.w3.org/2000/svg"
   xmlns:sodipodi="http://sodipodi.sourceforge.net/DTD/sodipodi-0.dtd"
   xmlns:inkscape="http://www.inkscape.org/namespaces/inkscape"
   width="256"
   height="256"
   viewBox="0 0 256 256"
   id="svg29137"
   version="1.1"
   inkscape:version="0.91 r13725"
   sodipodi:docname="32.svg">
  <defs
     id="defs29139" />
  <sodipodi:namedview
     id="base"
     pagecolor="#ffffff"
     bordercolor="#666666"
     borderopacity="1.0"
     inkscape:pageopacity="0.0"
     inkscape:pageshadow="2"
     inkscape:zoom="0.35"
     inkscape:cx="144.60111"
     inkscape:cy="484.26334"
     inkscape:document-units="px"
     inkscape:current-layer="layer1"
     showgrid="false"
     units="px"
     inkscape:window-width="1366"
     inkscape:window-height="702"
     inkscape:window-x="0"
     inkscape:window-y="0"
     inkscape:window-maximized="1" />
  <metadata
     id="metadata29142">
    <rdf:RDF>
      <cc:Work
         rdf:about="">
        <dc:format>image/svg+xml</dc:format>
        <dc:type
           rdf:resource="http://purl.org/dc/dcmitype/StillImage" />
        <dc:title></dc:title>
      </cc:Work>
    </rdf:RDF>
  </metadata>
  <g
     inkscape:label="Layer 1"
     inkscape:groupmode="layer"
     id="layer1"
     transform="translate(0,-796.36216)">
    <path
       inkscape:connector-curvature="0"
       id="path20384"
       style="fill:#231f20;fill-opacity:1;fill-rule:evenodd;stroke:none"
       d="m 179.91001,845.11714 -17.26,0 0,47.97 -44.61,0 0,-47.97 -15.65,0 38.76,-38.76 38.76,38.76 0,0 z m -55.01,40.04 9.08,0 0,-14.19998 7,0 c 0.2104,-0.008 0.5504,0 0.99,0 0.4704,0.032 0.97,0.1 1.53,0.2304 0.5504,0.1 1.11,0.3304 1.65,0.6104 0.5096,0.30958 0.97,0.7496 1.34,1.31998 0.3704,0.58 0.62,1.33 0.7104,2.24 0.1,1.46 0.1904,2.68 0.2104,3.67 0.024,1 0.064,1.83 0.1304,2.54 0.04,0.68 0.16,1.3 0.3296,1.86 0.18,0.5704 0.4504,1.13 0.87,1.73 l 9.24,0 c -0.3504,-0.4904 -0.6104,-0.97 -0.81,-1.47 -0.1896,-0.5 -0.32,-1.07 -0.4096,-1.69 -0.08,-0.6 -0.1496,-1.35 -0.1896,-2.2 -0.032,-0.86 -0.048,-1.93 -0.08,-3.11 0,-0.7304 -0.04,-1.53 -0.12,-2.45 -0.1,-0.89 -0.32,-1.8 -0.6496,-2.71 -0.34,-0.92 -0.88,-1.74 -1.62,-2.49 -0.76,-0.73998 -1.8,-1.31 -3.12,-1.72 l 0,-0.1 c 0.6496,-0.2096 1.36,-0.5296 2.13,-0.97 0.76,-0.42 1.49,-1.01 2.19,-1.75 0.68,-0.7304 1.26,-1.67 1.71,-2.8 0.44,-1.13 0.6704,-2.5 0.6896,-4.12 0,-1.65 -0.2496,-3.08 -0.6896,-4.26 -0.4704,-1.2 -1.07,-2.21 -1.82,-2.99 -0.7896,-0.82 -1.62,-1.47 -2.57,-1.96 -0.94,-0.48 -1.9,-0.87 -2.89,-1.11 -0.97,-0.24 -1.91,-0.44 -2.8,-0.52 -0.88,-0.048 -1.66,-0.12 -2.32,-0.1 l -19.71,0 0,38.52 z m 9.08,-31.04 7.97,0 c 1.32,0 2.42,0.12 3.35,0.44002 0.92,0.3 1.61,0.80998 2.1,1.53998 0.48,0.72 0.72,1.72 0.72,2.97 0.024,0.48 -0.048,0.98 -0.1896,1.54 -0.14,0.5696 -0.3904,1.09 -0.8,1.59 -0.4,0.4904 -1,0.9 -1.76,1.22002 -0.78,0.30958 -1.8,0.4704 -3.07,0.5 l -8.32,0 0,-9.80002 z m -26.68,65.58 15.19,24.09002 9.25,0 0,-38.53 -9.08,0 0,23.93998 -0.1704,0 -15.19,-23.93998 -9.190005,0 0,38.53 9.090005,0 0,-24.09002 0.1,0 0,0 z m -9.890005,44.64002 0,38.51004 15.740005,0 c 0.89,0.024 1.91,-0.016 3.05,-0.1096 1.12,-0.1 2.31,-0.26 3.53,-0.5304 1.25,-0.2696 2.5,-0.6904 3.73,-1.23 1.22,-0.54 2.39,-1.28004 3.49,-2.19004 1.12,-0.93 2.09,-2.06 2.95,-3.46 0.86,-1.38 1.54,-3.04 2.03,-4.98 0.5,-1.96 0.7496,-4.22 0.7696,-6.81 -0.016,-2.67 -0.3,-5 -0.85,-6.97 -0.56,-1.98 -1.29,-3.67 -2.22,-5.05 -0.95,-1.39 -1.99,-2.51 -3.14,-3.41 -1.17,-0.91 -2.36,-1.61 -3.59,-2.14 -1.24,-0.5104 -2.43,-0.88 -3.6,-1.11 -1.16,-0.24 -2.2,-0.38 -3.12,-0.44 -0.94,-0.072 -1.66,-0.1 -2.2,-0.08 l -16.570005,0 0,0 z m 9.090005,7.47 6.31,0 c 0.8,0 1.64,0.048 2.54,0.22 0.9,0.14 1.79,0.4496 2.69,0.91 0.89,0.4304 1.69,1.1 2.43,1.97 0.72,0.87 1.31,2.03 1.75,3.46 0.4304,1.43 0.66,3.2 0.68,5.33 0,3.95 -0.89,6.89 -2.67,8.8 -1.75,1.92 -4.41,2.87 -7.95,2.87 l -5.78,0 0,-23.56 z m -13.960005,-19.14 44.610005,0 0,-56.08 -44.610005,0 0,56.08 z m 61.070005,50.95004 -17.26,0 0,-47.98004 -44.620005,0 0,47.98004 -15.64,0 38.750005,38.75 38.77,-38.75 0,0" />
  </g>
</svg>
