<?xml version="1.0" encoding="UTF-8" standalone="no"?>
<!-- Created with Inkscape (http://www.inkscape.org/) -->

<svg
   xmlns:dc="http://purl.org/dc/elements/1.1/"
   xmlns:cc="http://creativecommons.org/ns#"
   xmlns:rdf="http://www.w3.org/1999/02/22-rdf-syntax-ns#"
   xmlns:svg="http://www.w3.org/2000/svg"
   xmlns="http://www.w3.org/2000/svg"
   xmlns:sodipodi="http://sodipodi.sourceforge.net/DTD/sodipodi-0.dtd"
   xmlns:inkscape="http://www.inkscape.org/namespaces/inkscape"
   width="256"
   height="256"
   viewBox="0 0 256 256"
   id="svg29137"
   version="1.1"
   inkscape:version="0.91 r13725"
   sodipodi:docname="33.svg">
  <defs
     id="defs29139" />
  <sodipodi:namedview
     id="base"
     pagecolor="#ffffff"
     bordercolor="#666666"
     borderopacity="1.0"
     inkscape:pageopacity="0.0"
     inkscape:pageshadow="2"
     inkscape:zoom="0.35"
     inkscape:cx="144.60111"
     inkscape:cy="484.26334"
     inkscape:document-units="px"
     inkscape:current-layer="layer1"
     showgrid="false"
     units="px"
     inkscape:window-width="1366"
     inkscape:window-height="702"
     inkscape:window-x="0"
     inkscape:window-y="0"
     inkscape:window-maximized="1" />
  <metadata
     id="metadata29142">
    <rdf:RDF>
      <cc:Work
         rdf:about="">
        <dc:format>image/svg+xml</dc:format>
        <dc:type
           rdf:resource="http://purl.org/dc/dcmitype/StillImage" />
        <dc:title></dc:title>
      </cc:Work>
    </rdf:RDF>
  </metadata>
  <g
     inkscape:label="Layer 1"
     inkscape:groupmode="layer"
     id="layer1"
     transform="translate(0,-796.36216)">
    <path
       inkscape:connector-curvature="0"
       id="path20380"
       style="fill:#231f20;fill-opacity:1;fill-rule:nonzero;stroke:none"
       d="m 52.243482,919.97814 45.99001,0 0,-51.39 c 0,-1.8 1.46,-3.25 3.249998,-3.25 1.8,0 3.26,1.45 3.26,3.25 l 0,51.39 45.98,0 0,-51.39 c 0,-1.8 1.47,-3.25 3.26,-3.25 1.8,0 3.26,1.45 3.26,3.25 l 0,51.39 45.98001,0 0,-51.39 c 0,-1.8 1.46,-3.25 3.26,-3.25 1.79,0 3.26,1.45 3.26,3.25 l 0,109.63 c 0,1.79 -1.47,3.26 -3.26,3.26 -1.8,0 -3.26,-1.47 -3.26,-3.26 l 0,-51.72 -45.98001,0 0,51.72 c 0,1.79 -1.46,3.26 -3.26,3.26 -1.79,0 -3.26,-1.47 -3.26,-3.26 l 0,-51.72 -45.98,0 0,51.72 c 0,1.79 -1.46,3.26 -3.26,3.26 -1.789998,0 -3.249998,-1.47 -3.249998,-3.26 l 0,-51.72 -48.23001,0 c -0.3096,0.12 -0.6496,0.16 -1,0.16 -1.81,0 -3.27,-1.47 -3.27,-3.26 l 0,-54.81 c 0,-1.8 1.46,-3.25 3.27,-3.25 1.78,0 3.24,1.45 3.24,3.25 l 0,51.39 z m 167.150018,75.84 c -0.1304,-0.6904 -0.3504,-1.4 -0.6496,-2.15 -0.3,-0.76 -0.7104,-1.5 -1.25,-2.18 -0.54,-0.7096 -1.2,-1.36 -2.01,-1.93 -0.82,-0.5704 -1.83,-1.02 -2.98,-1.36 -1.18,-0.3296 -2.56,-0.5 -4.15,-0.52 -1.81,0.016 -3.38,0.26 -4.72,0.7496 -1.31,0.48 -2.47,1.13 -3.4,1.94 -0.93,0.84 -1.7,1.76 -2.31,2.77 -0.6,1.04 -1.09,2.08 -1.44,3.18 -0.3504,1.07 -0.6,2.14 -0.76,3.15 -0.1496,1.01006 -0.2496,1.93006 -0.3,2.75006 -0.04,0.8 -0.056,1.45 -0.056,1.92 0.01,2.25 0.2,4.22 0.54,5.87 0.3496,1.68 0.84,3.07 1.44,4.25 0.6,1.17 1.28,2.11 2.05,2.85 0.7696,0.76 1.57,1.35 2.39,1.78 0.83,0.4304 1.65,0.7304 2.45,0.93 0.8,0.18 1.55,0.3096 2.21,0.3696 0.6896,0.04 1.27,0.056 1.72,0.056 1.86,-0.016 3.44,-0.2696 4.77,-0.7496 1.34,-0.46 2.44,-1.12 3.32,-1.94 0.88,-0.82 1.59,-1.72 2.08,-2.72 0.52,-1 0.87,-2.04 1.09,-3.09 0.2304,-1.04 0.34,-2.07 0.3296,-3.03 -0.01,-1.52 -0.2296,-2.87 -0.6496,-4.03 -0.4304,-1.15 -1,-2.14 -1.73,-2.97 -0.7296,-0.83 -1.56,-1.49 -2.49,-2.02006 -0.94,-0.5096 -1.93,-0.9 -2.96,-1.14 -1.03,-0.26 -2.07,-0.3496 -3.09,-0.3496 -1.43,0 -2.71,0.22 -3.84,0.7 -1.14,0.4504 -2.12,1.12006 -2.97,2.02006 0.04,-1.10006 0.1896,-2.13006 0.4096,-3.06006 0.2296,-0.96 0.56,-1.8 1.02,-2.52 0.4704,-0.72 1.06,-1.28 1.8,-1.68 0.7496,-0.4096 1.66,-0.6104 2.74,-0.62 0.3696,0 0.8,0.016 1.3,0.08 0.4904,0.072 0.99,0.1704 1.51,0.38 0.52,0.1696 0.98,0.4496 1.41,0.82 0.4096,0.3696 0.72,0.87 0.93,1.49 l 6.25,0 0,0 z m -17.37,12.94006 c 0,-1.04 0.1704,-1.91 0.4896,-2.66 0.32,-0.7304 0.7496,-1.33 1.29,-1.81 0.5504,-0.46 1.16,-0.8 1.84,-1.03 0.66,-0.2104 1.35,-0.3104 2.05,-0.3104 1.09,0 2.07,0.24 2.91,0.72 0.86,0.4696 1.52,1.15 2.02,2.04 0.48,0.88 0.74,1.95 0.7496,3.19 0,0.7896 -0.1296,1.56 -0.3496,2.28 -0.2496,0.72 -0.6,1.35 -1.08,1.9 -0.46,0.56 -1.04,1.01 -1.73,1.32 -0.7,0.3 -1.51,0.4696 -2.44,0.48 -0.94,-0.01 -1.77,-0.18 -2.49,-0.5104 -0.72,-0.32 -1.32,-0.7696 -1.81,-1.35 -0.48,-0.58 -0.85,-1.22 -1.1,-1.95 -0.2296,-0.7304 -0.3496,-1.51 -0.3496,-2.31 l 0,0 z m -6.52,-158.42006 c 0.032,0.74 0.16,1.55 0.4,2.42 0.2296,0.88 0.6,1.75 1.13,2.62 0.5096,0.85 1.21,1.63 2.1,2.37 0.89,0.7304 2,1.29 3.35,1.73 1.34,0.4304 2.97,0.6504 4.86,0.6704 1.75,-0.008 3.3,-0.22 4.65,-0.64 1.36,-0.42 2.5,-0.99 3.47,-1.75 0.96,-0.7496 1.75,-1.59 2.35,-2.57 0.6304,-0.98 1.09,-2.01 1.36,-3.14 0.3,-1.11 0.44,-2.26 0.44,-3.41 0,-1.54 -0.24,-2.92 -0.7104,-4.18 -0.4704,-1.2604 -1.15,-2.3504 -2.05,-3.2704 -0.89,-0.9 -1.99,-1.62 -3.26,-2.11 -1.27,-0.5 -2.71,-0.74 -4.31,-0.74 -1.05,0 -1.96,0.072 -2.78,0.2304 -0.82,0.16 -1.52,0.36 -2.13,0.5904 -0.6096,0.24 -1.11,0.48 -1.53,0.7304 -0.4096,0.24 -0.74,0.46 -0.97,0.6496 l 0.88,-6.7 14.96,0 0,-5.36 -19.66,0 -1.98,16.48 6.82,0 c 0.28,-0.4304 0.62,-0.78 1.02,-1.07 0.38,-0.2904 0.8,-0.5096 1.25,-0.6704 0.44,-0.1704 0.87,-0.28 1.3,-0.3504 0.4304,-0.072 0.82,-0.0896 1.18,-0.0896 0.64,0 1.26,0.1 1.86,0.34 0.6104,0.2304 1.14,0.5704 1.63,1.06 0.4896,0.4504 0.88,1.06 1.17,1.78 0.2896,0.72 0.4496,1.57 0.4496,2.58 0,0.3096 -0.016,0.72 -0.056,1.24 -0.064,0.52 -0.1704,1.06 -0.36,1.66 -0.16,0.5696 -0.46,1.11 -0.83,1.64 -0.38,0.52 -0.88,0.96 -1.54,1.28 -0.64,0.3304 -1.46,0.5096 -2.45,0.52 -0.93,-0.008 -1.69,-0.1704 -2.34,-0.44 -0.64,-0.28 -1.15,-0.66 -1.54,-1.1 -0.4,-0.4704 -0.6896,-0.95 -0.9,-1.48 -0.1904,-0.52 -0.32,-1.04 -0.3696,-1.52 l -6.86,0 0,0 z m -39.00001,162.10006 0,6.92 7.25,0 0,-6.92 3.74,0 0,-5.35 -3.74,0 0,-18.52006 -7.31,0 -14.52,18.34006 0,5.53 14.58,0 0,0 z m -9.08,-5.35 9.08,-11.61006 0,11.61006 -9.08,0 0,0 z m -4.92,-157.54006 c -0.016,1.67 0.16,3.1 0.5504,4.32 0.3696,1.21 0.89,2.23 1.56,3.07 0.66,0.85 1.4,1.51 2.24,2.05 0.82,0.52 1.66,0.92 2.54,1.21 0.87,0.2696 1.7,0.48 2.48,0.6 0.8,0.12 1.5,0.1904 2.09,0.2104 0.6,0.016 1.02,0.04 1.3,0.016 0.36,0 0.83,-0.016 1.43,-0.056 0.6096,-0.048 1.26,-0.1304 2,-0.26 0.7296,-0.1504 1.48,-0.3704 2.28,-0.62 0.78,-0.27998 1.54,-0.64 2.26,-1.09 0.7296,-0.46 1.39,-1.01 1.98,-1.68998 0.5904,-0.68002 1.06,-1.47002 1.4,-2.42002 0.34,-0.94 0.5296,-2.02 0.5296,-3.27 0,-1.28 -0.22,-2.36998 -0.5904,-3.28 -0.3696,-0.91 -0.88,-1.68 -1.49,-2.26 -0.64,-0.6 -1.33,-1.04 -2.1,-1.36 -0.7696,-0.32 -1.54,-0.5096 -2.34,-0.5896 l 0,-0.12 c 0.3904,-0.0896 0.82,-0.24 1.29,-0.42 0.4904,-0.2 0.98,-0.4496 1.47,-0.7896 0.4896,-0.34 0.94,-0.7696 1.36,-1.27 0.4096,-0.52 0.74,-1.12 1,-1.84 0.2496,-0.7104 0.38,-1.54 0.38,-2.51 0.008,-0.72 -0.0896,-1.48 -0.2696,-2.29 -0.1904,-0.8 -0.54,-1.57 -1.01,-2.34 -0.4704,-0.7496 -1.12,-1.43 -1.96,-2.06 -0.84,-0.6 -1.89,-1.09 -3.16,-1.45 -1.29,-0.36 -2.83,-0.56 -4.63,-0.56 -2.02,0.016 -3.71,0.24 -5.11,0.72 -1.39,0.4704 -2.54,1.1 -3.42,1.9 -0.88,0.78 -1.56,1.66 -2.05,2.63 -0.4704,0.96 -0.8,1.95 -0.98,2.95 -0.1704,0.99 -0.26,1.95 -0.24,2.85 l 6.47,0 c 0.024,-1.21 0.1704,-2.19 0.4496,-2.94 0.2896,-0.7496 0.6704,-1.33 1.15,-1.72 0.4696,-0.4 0.99,-0.68 1.58,-0.82 0.5904,-0.1496 1.18,-0.22 1.79,-0.2104 0.96998,0 1.79,0.1504 2.44,0.4 0.6504,0.2696 1.14,0.6096 1.51,1 0.36,0.4104 0.62,0.85 0.76,1.3 0.1496,0.44 0.22,0.87 0.2104,1.26 0,0.74 -0.1304,1.33 -0.36,1.82 -0.24,0.48 -0.54,0.87 -0.92,1.14 -0.4,0.2896 -0.8,0.4904 -1.24,0.6096 -0.46,0.1304 -0.89,0.22 -1.32,0.2496 -0.44,0.04 -0.81,0.064 -1.13,0.04 l -2.33,0 0,5.08 3.09,0 c 1.02,0 1.84,0.1296 2.47,0.4 0.64,0.2496 1.14,0.6096 1.48,1.04 0.3504,0.4096 0.5696,0.87 0.7,1.35 0.12,0.5 0.1904,0.96 0.18,1.42 0.008,0.2304 -0.024,0.54 -0.08,0.91 -0.064,0.4 -0.1904,0.7904 -0.3696,1.23 -0.1904,0.44 -0.47042,0.85 -0.86002,1.24 -0.3896,0.38 -0.88998,0.7 -1.55,0.95 -0.6296,0.24 -1.44,0.3704 -2.42,0.3904 -1.1,-0.016 -2.03,-0.2104 -2.76,-0.5904 -0.7496,-0.3696 -1.33,-0.87 -1.76,-1.48 -0.4304,-0.6 -0.7296,-1.25 -0.91,-1.96 -0.1704,-0.7104 -0.26,-1.4 -0.24,-2.09 l -6.82,0 0,0 z m -28.02,165.33006 -15.049998,0 c 0.3296,-0.58 0.719998,-1.12 1.149998,-1.6 0.4304,-0.44 0.92,-0.89 1.47,-1.28 0.5504,-0.4096 1.16,-0.81 1.84,-1.22 0.68,-0.4104 1.41,-0.85 2.23,-1.3 1.71,-1.02 3.13,-1.98 4.22,-2.9 1.12,-0.93 1.96,-1.84 2.57,-2.72 0.62,-0.91 1.03,-1.81 1.27,-2.72 0.24,-0.94 0.3504,-1.89006 0.3504,-2.88006 -0.008,-1.37 -0.2104,-2.55 -0.5704,-3.56 -0.3696,-0.99 -0.86002,-1.85 -1.47,-2.54 -0.62,-0.7 -1.3,-1.28 -2.04,-1.73 -0.7496,-0.46 -1.53,-0.8 -2.31,-1.06 -0.7896,-0.2496 -1.52,-0.44 -2.22,-0.5496 -0.6896,-0.1104 -1.31,-0.18 -1.83,-0.22 -0.52,-0.016 -0.87,-0.032 -1.09,-0.032 -1.97,0.008 -3.629998,0.2304 -5.029998,0.6696 -1.43,0.44 -2.58,1.05 -3.52,1.79 -0.92001,0.74 -1.66001,1.57 -2.20001,2.5 -0.5504,0.91 -0.92,1.86 -1.15,2.83 -0.2304,0.99 -0.34,1.9 -0.3296,2.82 l 0,0.91006 6.73001,0 0,-1.09006 c 0,-1.04 0.2104,-1.94 0.66,-2.68 0.42,-0.76 1.03,-1.35 1.81,-1.76 0.779998,-0.42 1.699998,-0.62 2.759998,-0.62 0.66,0 1.28,0.072 1.86,0.24 0.6,0.2 1.11,0.46 1.58,0.82 0.46,0.3696 0.82,0.86 1.09,1.45 0.26,0.58 0.4,1.29 0.4096,2.11 0,0.8 -0.1304,1.51006 -0.3896,2.13006 -0.2496,0.6304 -0.6304,1.2 -1.12,1.73 -0.5,0.5296 -1.1,1.06 -1.83,1.58 -0.72,0.5304 -1.56,1.1 -2.5,1.71 -0.95,0.6 -1.999998,1.3 -3.139998,2.08 -1.63,1.11 -2.95,2.14 -3.97,3.06 -1.02001,0.95 -1.81001,1.84 -2.38001,2.71 -0.54,0.87 -0.92,1.74 -1.14,2.62 -0.2096,0.88 -0.3,1.84 -0.3,2.83 l 0,1.24 23.580008,0 0,-5.37 z m -20.950008,-177.25006 7.250008,0 0,21.64 7.26,0 0,-30.79 -5.45,0 c -0.14,0.7304 -0.4,1.4 -0.7896,1.97 -0.4096,0.6096 -0.89,1.12 -1.47,1.56 -0.579998,0.4504 -1.209998,0.7896 -1.889998,1.08 -0.68,0.3104 -1.36,0.5096 -2.03,0.66 -0.6896,0.1504 -1.34,0.2104 -1.97,0.2104 l -0.91001,0 0,3.67 z m -57.29,21.64 7.26,0 0,-11.34 5.58,0 c 0.18,0 0.4504,0 0.8,0.008 0.3696,0.016 0.78,0.072 1.22,0.16 0.44,0.1104 0.88,0.2696 1.3,0.52 0.4296,0.2304 0.8,0.58 1.1,1.03 0.2896,0.4696 0.48,1.08 0.5504,1.8 0.0904,1.16 0.16,2.14 0.18,2.95 0.016,0.7896 0.048,1.44 0.0904,2 0.048,0.56 0.1296,1.06 0.2696,1.51 0.1504,0.44 0.36,0.9 0.6904,1.36 l 7.39,0 c -0.2696,-0.38 -0.48,-0.7696 -0.64,-1.15 -0.16,-0.4096 -0.2496,-0.85 -0.3304,-1.36 -0.072,-0.4904 -0.1096,-1.08 -0.1496,-1.78 -0.032,-0.6704 -0.048,-1.51 -0.072,-2.48 0,-0.56 -0.024,-1.22 -0.1,-1.93 -0.072,-0.72 -0.24,-1.45 -0.5,-2.19 -0.28,-0.7104 -0.7104,-1.39 -1.31,-1.98 -0.6104,-0.6 -1.43,-1.06 -2.48,-1.37 l 0,-0.0896 c 0.52,-0.18 1.08,-0.4304 1.69,-0.76 0.6096,-0.36 1.19,-0.82 1.76,-1.4 0.54,-0.6096 0.99,-1.33 1.35,-2.24 0.36,-0.91 0.5504,-2.01 0.5696,-3.29 -0.008,-1.33 -0.2104,-2.48 -0.5696,-3.43 -0.3704,-0.9484 -0.8604,-1.7284 -1.4504,-2.38838 -0.62,-0.6504 -1.31,-1.17002 -2.05,-1.55002 -0.7496,-0.3904 -1.52,-0.69998 -2.3,-0.9 -0.7896,-0.2 -1.53,-0.34 -2.24,-0.4 -0.7104,-0.072 -1.34,-0.1 -1.87,-0.1 l -15.74,0 0,30.79002 z m 7.26,-24.8 6.37,0 c 1.05,-0.016 1.94,0.1 2.67,0.3496 0.7304,0.24 1.3,0.6504 1.68,1.24 0.38,0.5704 0.58,1.37 0.58,2.37 0,0.38 -0.04,0.7896 -0.16,1.24 -0.1,0.4296 -0.32,0.84 -0.64,1.25 -0.3096,0.4 -0.7896,0.7104 -1.4,0.99 -0.6304,0.2496 -1.45,0.38 -2.47,0.3896 l -6.63,0 0,-7.83" />
  </g>
</svg>
