<?xml version="1.0" encoding="UTF-8" standalone="no"?>
<!-- Created with Inkscape (http://www.inkscape.org/) -->

<svg
   xmlns:dc="http://purl.org/dc/elements/1.1/"
   xmlns:cc="http://creativecommons.org/ns#"
   xmlns:rdf="http://www.w3.org/1999/02/22-rdf-syntax-ns#"
   xmlns:svg="http://www.w3.org/2000/svg"
   xmlns="http://www.w3.org/2000/svg"
   xmlns:sodipodi="http://sodipodi.sourceforge.net/DTD/sodipodi-0.dtd"
   xmlns:inkscape="http://www.inkscape.org/namespaces/inkscape"
   width="256"
   height="256"
   viewBox="0 0 256 256"
   id="svg29137"
   version="1.1"
   inkscape:version="0.91 r13725"
   sodipodi:docname="34.svg">
  <defs
     id="defs29139" />
  <sodipodi:namedview
     id="base"
     pagecolor="#ffffff"
     bordercolor="#666666"
     borderopacity="1.0"
     inkscape:pageopacity="0.0"
     inkscape:pageshadow="2"
     inkscape:zoom="0.35"
     inkscape:cx="144.60111"
     inkscape:cy="484.26334"
     inkscape:document-units="px"
     inkscape:current-layer="layer1"
     showgrid="false"
     units="px"
     inkscape:window-width="1366"
     inkscape:window-height="702"
     inkscape:window-x="0"
     inkscape:window-y="0"
     inkscape:window-maximized="1" />
  <metadata
     id="metadata29142">
    <rdf:RDF>
      <cc:Work
         rdf:about="">
        <dc:format>image/svg+xml</dc:format>
        <dc:type
           rdf:resource="http://purl.org/dc/dcmitype/StillImage" />
        <dc:title></dc:title>
      </cc:Work>
    </rdf:RDF>
  </metadata>
  <g
     inkscape:label="Layer 1"
     inkscape:groupmode="layer"
     id="layer1"
     transform="translate(0,-796.36216)">
    <path
       inkscape:connector-curvature="0"
       id="path20382"
       style="fill:#231f20;fill-opacity:1;fill-rule:nonzero;stroke:none"
       d="m 52.305983,919.97814 46,0 0,-51.39 c 0,-1.8 1.45,-3.25 3.250007,-3.25 1.80002,0 3.26002,1.45 3.26002,3.25 l 0,51.39 45.98001,0 0,-51.39 c 0,-1.8 1.46,-3.25 3.26,-3.25 1.79999,0 3.25,1.45 3.25,3.25 l 0,51.39 46,0 0,-51.39 c 0,-1.8 1.45,-3.25 3.25,-3.25 1.79999,0 3.24,1.45 3.24,3.25 l 0,54.81 c 0,1.79 -1.44001,3.26 -3.24,3.26 -0.3696,0 -0.70001,-0.04 -1.02,-0.16 l -48.23,0 0,51.72 c 0,1.79 -1.45001,3.26002 -3.25,3.26002 -1.8,0 -3.26,-1.47002 -3.26,-3.26002 l 0,-51.72 -45.98001,0 0,51.72 c 0,1.79 -1.46,3.26002 -3.26002,3.26002 -1.800007,0 -3.250007,-1.47002 -3.250007,-3.26002 l 0,-51.72 -48.21998,0 c -0.32002,0.12 -0.66,0.16 -1.03002,0.16 -1.8,0 -3.25,-1.47 -3.25,-3.26 l 0,-54.81 c 0,-1.8 1.45,-3.25 3.25,-3.25 1.80002,0 3.25,1.45 3.25,3.25 l 0,51.39 z m 143.270017,-69.64 c 0.032,0.74 0.16959,1.55 0.40959,2.42 0.23041,0.88 0.60001,1.75 1.12,2.62 0.5,0.85002 1.21001,1.63 2.10001,2.37 0.89,0.73042 2,1.29 3.34,1.73 1.35,0.4304 2.97,0.6504 4.87,0.6704 1.75,-0.008 3.30999,-0.22 4.66,-0.64 1.34,-0.42 2.49,-0.99 3.46,-1.75 0.96,-0.7496 1.75,-1.59 2.36,-2.57 0.6104,-0.98 1.07,-2.01 1.36,-3.14 0.2896,-1.11 0.43042,-2.26 0.43042,-3.41 0,-1.54 -0.24962,-2.92 -0.7104,-4.18 -0.47042,-1.26 -1.15002,-2.35 -2.05002,-3.27 -0.88998,-0.9 -1.98,-1.62 -3.25,-2.11 -1.28,-0.5 -2.71,-0.74 -4.33,-0.74 -1.03,0 -1.96001,0.072 -2.77,0.2304 -0.82001,0.16 -1.51999,0.36 -2.13999,0.5904 -0.5904,0.24 -1.1,0.48 -1.51002,0.7304 -0.42,0.24 -0.73998,0.46 -0.96998,0.6496 l 0.88,-6.69998 14.96,0 0,-5.36002 -19.66999,0 -1.98,16.48 6.83,0 c 0.26,-0.4304 0.59998,-0.78 1,-1.07 0.3896,-0.2904 0.8,-0.5096 1.25,-0.6704 0.44958,-0.1704 0.88,-0.28 1.32,-0.3504 0.42,-0.072 0.81,-0.0896 1.17,-0.0896 0.64,0 1.26,0.1 1.86,0.34 0.6104,0.2304 1.15,0.5704 1.64,1.06 0.48,0.4504 0.88,1.06 1.15,1.78 0.3,0.72 0.45039,1.57 0.46,2.58 0,0.3096 -0.024,0.72 -0.064,1.24 -0.072,0.52 -0.1696,1.06 -0.3504,1.66 -0.18,0.56958 -0.46,1.11 -0.84,1.63998 -0.3704,0.52 -0.89,0.96 -1.53,1.28002 -0.66,0.33038 -1.47,0.50958 -2.45,0.52 -0.93,-0.008 -1.70001,-0.1704 -2.34,-0.44 -0.64,-0.28002 -1.16,-0.66 -1.55,-1.1 -0.3896,-0.47042 -0.6904,-0.95 -0.89,-1.48 -0.1904,-0.52 -0.32,-1.04 -0.38,-1.52 l -6.86,0 0,0 z m -39.01,162.10006 0,6.92 7.26,0 0,-6.92 3.75,0 0,-5.35 -3.75,0 0,-18.52006 -7.3,0 -14.53,18.34006 0,5.53 14.57,0 0,0 z m -9.07001,-5.35 9.07001,-11.61006 0,11.61006 -9.07001,0 0,0 z M 142.576,849.54814 c -0.024,1.67 0.16,3.1 0.53999,4.32 0.3904,1.21 0.9,2.23 1.57001,3.07 0.66,0.85 1.41,1.51 2.24,2.05 0.82,0.52 1.67,0.92 2.54,1.21 0.88,0.2696 1.7,0.48 2.49,0.6 0.78959,0.12 1.49,0.1904 2.08,0.2104 0.6,0.016 1.03,0.04 1.3,0.016 0.36,0 0.83,-0.016 1.42999,-0.056 0.59041,-0.048 1.25,-0.1304 2,-0.26 0.74,-0.1504 1.49,-0.3704 2.28,-0.62 0.78,-0.27998 1.54,-0.64 2.26,-1.09 0.7304,-0.46 1.39,-1.01 1.98,-1.68998 0.6,-0.68002 1.05,-1.47002 1.39,-2.42002 0.3496,-0.94 0.52,-2.02 0.54,-3.27 -0.024,-1.28 -0.2104,-2.36998 -0.58,-3.28 -0.3696,-0.91 -0.88,-1.68 -1.51,-2.26 -0.6304,-0.6 -1.31,-1.04 -2.09,-1.36 -0.7704,-0.32 -1.55,-0.5096 -2.34,-0.5896 l 0,-0.12 c 0.3904,-0.0896 0.82,-0.24 1.3,-0.42 0.48,-0.2 0.97,-0.4496 1.47,-0.7896 0.48,-0.34 0.93,-0.7696 1.34,-1.27 0.4104,-0.52 0.7496,-1.12 1,-1.84 0.2496,-0.7104 0.3904,-1.54 0.4,-2.51 0,-0.72 -0.0904,-1.48 -0.28,-2.29 -0.2,-0.8 -0.5304,-1.57 -1,-2.34 -0.48,-0.7496 -1.13,-1.43 -1.97,-2.06 -0.83,-0.6 -1.89,-1.09 -3.18,-1.45 -1.27,-0.36 -2.82,-0.56 -4.61,-0.56 -2.02,0.016 -3.72,0.24 -5.1,0.72 -1.4,0.4704 -2.54,1.1 -3.43,1.9 -0.88,0.78 -1.56,1.66 -2.04,2.63 -0.48,0.96 -0.8,1.95 -0.99,2.95 -0.16,0.99 -0.2496,1.95 -0.24,2.85 l 6.47,0 c 0.008,-1.21 0.1704,-2.19 0.4496,-2.94 0.2896,-0.7496 0.66,-1.33 1.15,-1.72 0.46,-0.4 1,-0.68 1.58,-0.82 0.58001,-0.1496 1.18,-0.22 1.79,-0.2104 0.98,0 1.8,0.1504 2.45,0.4 0.6296,0.2696 1.13,0.6096 1.51,1 0.3504,0.4104 0.6,0.85 0.76,1.3 0.1504,0.44 0.21041,0.87 0.21041,1.26 0,0.74 -0.13041,1.33 -0.38,1.82 -0.22001,0.48 -0.5296,0.87 -0.91,1.14 -0.3904,0.2896 -0.8,0.4904 -1.25,0.6096 -0.44001,0.1304 -0.88,0.22 -1.3,0.2496 -0.44,0.04 -0.81,0.064 -1.14,0.04 l -2.32,0 0,5.08 3.08,0 c 1.02,0 1.84,0.1296 2.48,0.4 0.64,0.2496 1.13,0.6096 1.47,1.04 0.34,0.4096 0.58,0.87 0.7,1.35 0.12,0.5 0.2,0.96 0.1896,1.42 0.008,0.2304 -0.032,0.54 -0.0904,0.91 -0.056,0.4 -0.18,0.7904 -0.3696,1.23 -0.18,0.44 -0.48,0.85 -0.86,1.24 -0.38,0.38 -0.9,0.7 -1.54,0.95 -0.6504,0.24 -1.45,0.3704 -2.42,0.3904 -1.11,-0.016 -2.04,-0.2104 -2.77,-0.5904 -0.74,-0.3696 -1.32,-0.87 -1.75,-1.48 -0.4496,-0.6 -0.74,-1.25 -0.92,-1.96 -0.1696,-0.7104 -0.26,-1.4 -0.2496,-2.09 l -6.81,0 0,0 z m -28.02,165.33006 -15.040007,0 c 0.32,-0.58 0.700007,-1.12 1.140007,-1.6 0.4304,-0.44 0.92,-0.89 1.47,-1.28 0.54,-0.4096 1.16,-0.81 1.84,-1.22 0.68,-0.4104 1.42,-0.85 2.23,-1.3 1.72,-1.02 3.13,-1.98 4.23,-2.9 1.11,-0.93 1.96,-1.84 2.56,-2.72 0.6096,-0.91 1.04,-1.81 1.27,-2.72 0.24,-0.94 0.3496,-1.89006 0.34,-2.88006 -0.008,-1.37 -0.2,-2.55 -0.56,-3.56 -0.36,-0.99 -0.85,-1.85 -1.46,-2.54 -0.6304,-0.7 -1.3,-1.28 -2.06,-1.73 -0.76,-0.46 -1.51,-0.8 -2.3,-1.06 -0.78,-0.2496 -1.51,-0.44 -2.21,-0.5496 -0.72,-0.1104 -1.31,-0.18 -1.84,-0.22 -0.5104,-0.016 -0.87,-0.032 -1.09,-0.032 -1.96,0.008 -3.640007,0.2304 -5.040007,0.6696 -1.41,0.44 -2.58,1.05 -3.51,1.79 -0.93,0.74 -1.67,1.57 -2.21,2.5 -0.5296,0.91 -0.92,1.86 -1.14,2.83 -0.2304,0.99 -0.34,1.9 -0.3304,2.82 l 0,0.91006 6.73,0 0,-1.09006 c 0.008,-1.04 0.2104,-1.94 0.66,-2.68 0.42,-0.76 1.03,-1.35 1.810007,-1.76 0.78959,-0.42 1.7,-0.62 2.76,-0.62 0.66,0 1.29,0.072 1.87,0.24 0.5896,0.2 1.11,0.46 1.57,0.82 0.46,0.3696 0.83,0.86 1.08,1.45 0.28,0.58 0.4,1.29 0.4096,2.11 0,0.8 -0.1304,1.51006 -0.3904,2.13006 -0.24,0.6304 -0.6096,1.2 -1.1,1.73 -0.5,0.5296 -1.1,1.06 -1.85,1.58 -0.71041,0.5304 -1.55,1.1 -2.49,1.71 -0.94001,0.6 -2.000007,1.3 -3.140007,2.08 -1.62,1.11 -2.94001,2.14 -3.97,3.06 -1.01,0.95 -1.81,1.84 -2.37,2.71 -0.56,0.87 -0.93,1.74 -1.15,2.62 -0.22,0.88 -0.30961,1.84 -0.30961,2.83 l 0,1.24 23.590017,0 0,-5.37 z m -20.960007,-177.25006 7.269997,0 0,21.64 7.25,0 0,-30.79 -5.45,0 c -0.14,0.7304 -0.4096,1.4 -0.8,1.97 -0.39999,0.6096 -0.87999,1.12 -1.46,1.56 -0.580007,0.4504 -1.200007,0.7896 -1.890007,1.08 -0.67039,0.3104 -1.35,0.5096 -2.04999,0.66 -0.68,0.1504 -1.32001,0.2104 -1.94001,0.2104 l -0.92999,0 0,3.67 z m -57.28,21.64 7.25,0 0,-11.34 5.59,0 c 0.17039,0 0.45999,0 0.81,0.008 0.36,0.016 0.76,0.072 1.22,0.16 0.44,0.1104 0.88,0.2696 1.3,0.52 0.4304,0.2304 0.7896,0.58 1.09,1.03 0.28,0.4696 0.48,1.08 0.5504,1.8 0.0904,1.16 0.16,2.14 0.18,2.95 0.024,0.7896 0.04,1.44 0.0904,2 0.04,0.56 0.14,1.06 0.28,1.51 0.1296,0.44 0.36,0.9 0.68,1.36 l 7.39,0 c -0.2704,-0.38 -0.48,-0.7696 -0.6304,-1.15 -0.16001,-0.4096 -0.26,-0.85 -0.3504,-1.36 -0.048,-0.4904 -0.1096,-1.08 -0.14,-1.78 -0.024,-0.6704 -0.04,-1.51 -0.072,-2.48 0,-0.56 -0.032,-1.22 -0.1,-1.93 -0.064,-0.72 -0.24,-1.45 -0.5104,-2.19 -0.26961,-0.708 -0.70961,-1.388 -1.2896,-1.978 -0.62,-0.6 -1.44,-1.06 -2.5,-1.37 l 0,-0.0896 c 0.5296,-0.18 1.08999,-0.4304 1.69999,-0.76 0.61041,-0.36 1.2,-0.82 1.74001,-1.4 0.5704,-0.6096 1.01999,-1.33 1.38,-2.24 0.35039,-0.91 0.54,-2.01 0.56,-3.29 -0.024,-1.33 -0.2104,-2.48 -0.56,-3.43 -0.3696,-0.95 -0.86001,-1.73 -1.46,-2.39 -0.62,-0.6504 -1.3,-1.17 -2.05,-1.55 -0.7496,-0.3904 -1.52,-0.7 -2.30001,-0.9 -0.77999,-0.2 -1.52999,-0.34 -2.23,-0.4 -0.72,-0.072 -1.35,-0.1 -1.87,-0.1 l -15.75,0 0,30.79002 z m 7.25,-24.8 6.38,0 c 1.04,-0.016 1.93,0.1 2.68,0.3496 0.72,0.24 1.29,0.6504 1.68,1.24 0.38,0.5704 0.5704,1.37 0.5704,2.37 0.008,0.38 -0.048,0.7896 -0.16,1.24 -0.1,0.4296 -0.32,0.84 -0.64,1.25 -0.3104,0.4 -0.7896,0.7104 -1.41,0.99 -0.62,0.2496 -1.44,0.38 -2.46,0.3896 l -6.64,0 0,-7.83" />
  </g>
</svg>
