<?xml version="1.0" encoding="UTF-8" standalone="no"?>
<!-- Created with Inkscape (http://www.inkscape.org/) -->

<svg
   xmlns:dc="http://purl.org/dc/elements/1.1/"
   xmlns:cc="http://creativecommons.org/ns#"
   xmlns:rdf="http://www.w3.org/1999/02/22-rdf-syntax-ns#"
   xmlns:svg="http://www.w3.org/2000/svg"
   xmlns="http://www.w3.org/2000/svg"
   xmlns:sodipodi="http://sodipodi.sourceforge.net/DTD/sodipodi-0.dtd"
   xmlns:inkscape="http://www.inkscape.org/namespaces/inkscape"
   width="256"
   height="256"
   viewBox="0 0 256 256"
   id="svg29137"
   version="1.1"
   inkscape:version="0.91 r13725"
   sodipodi:docname="35.svg">
  <defs
     id="defs29139" />
  <sodipodi:namedview
     id="base"
     pagecolor="#ffffff"
     bordercolor="#666666"
     borderopacity="1.0"
     inkscape:pageopacity="0.0"
     inkscape:pageshadow="2"
     inkscape:zoom="0.35"
     inkscape:cx="144.60111"
     inkscape:cy="484.26334"
     inkscape:document-units="px"
     inkscape:current-layer="layer1"
     showgrid="false"
     units="px"
     inkscape:window-width="1366"
     inkscape:window-height="702"
     inkscape:window-x="0"
     inkscape:window-y="0"
     inkscape:window-maximized="1" />
  <metadata
     id="metadata29142">
    <rdf:RDF>
      <cc:Work
         rdf:about="">
        <dc:format>image/svg+xml</dc:format>
        <dc:type
           rdf:resource="http://purl.org/dc/dcmitype/StillImage" />
        <dc:title></dc:title>
      </cc:Work>
    </rdf:RDF>
  </metadata>
  <g
     inkscape:label="Layer 1"
     inkscape:groupmode="layer"
     id="layer1"
     transform="translate(0,-796.36216)">
    <path
       inkscape:connector-curvature="0"
       id="path20378"
       style="fill:#231f20;fill-opacity:1;fill-rule:nonzero;stroke:none"
       d="m 194.87999,918.75213 5.52,0 0,-3.26 c 0,-2.15 1.77,-3.94 3.95,-3.94 l 15.11,0 c 2.17,0 3.94001,1.79 3.94001,3.94 l 0,36.42 c 0,2.18 -1.77,3.94 -3.94001,3.94 l -15.11,0 c -2.18,0 -3.95,-1.76 -3.95,-3.94 l 0,-3.22998 -5.52,0 0,27.35998 c 0,3.26 -2.65,5.9 -5.90998,5.9 l -70.2,0 c -1.16,0 -2.26,-0.3496 -3.18,-0.92 l -14.1,-7.35 -43.170006,0 c -3.26999,0 -5.90999,-2.66 -5.90999,-5.92 l 0,-33.45 -11.94001,0 0,26.88 c 0,2.16 -1.76,3.93 -3.92999,3.93 -2.18,0 -3.94001,-1.77 -3.94001,-3.93 l 0,-63.64 c 0,-2.17 1.76,-3.94 3.94001,-3.94 2.16999,0 3.92999,1.77 3.92999,3.94 l 0,28.89 11.94001,0 0,-35.57 c 0,-3.25 2.64,-5.9 5.90999,-5.9 l 8.44001,0 0,-12.27998 c 0,-3.26002 2.64,-5.9 5.91,-5.9 0.15999,0 0.3496,0 0.51999,0.008 l 98.920006,0 c 3.23,0 5.87,2.62 5.89,5.84 l 0.1496,12.33 10.82,0 c 3.26,0 5.91,2.64998 5.91,5.89998 l 0,27.89002 z m -5.52,22.03 14.99,0 c 2.16,0 3.92,1.77 3.92,3.95 l 0,3.25 7.25,0 0,-28.54 -7.25,0 0,3.25 c 0,2.16 -1.76,3.93 -3.92,3.93 -5.12,0 -10.29,0.1304 -15.38,0.1304 -3.26,0 -5.9,-2.64998 -5.9,-5.91 l 0,-24.05 -10.76,0 0,-0.032 c -3.22,0 -5.86,-2.63 -5.87,-5.85 l -0.1496,-12.36 -87.729996,0.016 0,12.29 c 0,3.26 -2.63,5.93 -5.89,5.93 l -8.44,0 0,65.06 38.659996,0 0,0.016 c 0.92,0 1.86001,0.22 2.72001,0.6704 l 14.56999,7.59 62.89,0 0,-23.14 c 0,-3.28 3.06,-6.21 6.29,-6.21 l 0,0" />
  </g>
</svg>
