<?xml version="1.0" encoding="UTF-8" standalone="no"?>
<!-- Created with Inkscape (http://www.inkscape.org/) -->

<svg
   xmlns:dc="http://purl.org/dc/elements/1.1/"
   xmlns:cc="http://creativecommons.org/ns#"
   xmlns:rdf="http://www.w3.org/1999/02/22-rdf-syntax-ns#"
   xmlns:svg="http://www.w3.org/2000/svg"
   xmlns="http://www.w3.org/2000/svg"
   xmlns:sodipodi="http://sodipodi.sourceforge.net/DTD/sodipodi-0.dtd"
   xmlns:inkscape="http://www.inkscape.org/namespaces/inkscape"
   width="256"
   height="256"
   viewBox="0 0 256 256"
   id="svg29137"
   version="1.1"
   inkscape:version="0.91 r13725"
   sodipodi:docname="37.svg">
  <defs
     id="defs29139" />
  <sodipodi:namedview
     id="base"
     pagecolor="#ffffff"
     bordercolor="#666666"
     borderopacity="1.0"
     inkscape:pageopacity="0.0"
     inkscape:pageshadow="2"
     inkscape:zoom="0.35"
     inkscape:cx="-555.14286"
     inkscape:cy="484.26334"
     inkscape:document-units="px"
     inkscape:current-layer="layer1"
     showgrid="false"
     units="px"
     inkscape:window-width="1366"
     inkscape:window-height="702"
     inkscape:window-x="0"
     inkscape:window-y="0"
     inkscape:window-maximized="1" />
  <metadata
     id="metadata29142">
    <rdf:RDF>
      <cc:Work
         rdf:about="">
        <dc:format>image/svg+xml</dc:format>
        <dc:type
           rdf:resource="http://purl.org/dc/dcmitype/StillImage" />
        <dc:title></dc:title>
      </cc:Work>
    </rdf:RDF>
  </metadata>
  <g
     inkscape:label="Layer 1"
     inkscape:groupmode="layer"
     id="layer1"
     transform="translate(0,-796.36216)">
    <path
       inkscape:connector-curvature="0"
       id="path20326"
       style="fill:#231f20;fill-opacity:1;fill-rule:evenodd;stroke:none"
       d="m 41.191774,896.79571 c 5.96,0 11.32,2.61 14.98,6.75 l 118.280046,0 c 4.54,-7.78 56.01,-36.96 57.86,-30.06 3.31,12.3 3.31,69.09 0,81.37 -1.85,6.93 -50.53,-17.46 -57.86,-30.04 l -7.27,0 0,24.15 c 0,7.52 -3.07,14.34 -8.03,19.29 -0.08,0.1 -0.1704,0.18 -0.26002,0.2696 -4.92998,4.78 -11.66,7.76 -19.03003,7.76 l -45.069996,0 c -7.5,0 -14.33,-3.08 -19.29,-8.03 l -0.016,0 c -4.95,-4.95 -8.01,-11.77 -8.01,-19.29 l 0,-24.15 -7.98,0 c -3.1,7.04 -10.12,11.96 -18.3,11.96 -11.05,0 -19.99,-8.95 -19.99,-20 0,-11.04 8.94,-19.98 19.99,-19.98 l 0,0 z m 116.750046,28.02002 -81.250046,0 0,24.14998 c 0,4.96 2.05,9.49 5.33,12.76 l -0.01,0.008 c 3.28,3.28 7.8,5.32 12.78,5.32 l 45.069996,0 c 4.87003,0 9.31003,-1.95 12.57003,-5.12 l 0.1896,-0.2104 c 3.28,-3.27 5.32,-7.8 5.32,-12.76 l 0,-24.15" />
  </g>
</svg>
