<?xml version="1.0" encoding="UTF-8" standalone="no"?>
<!-- Created with Inkscape (http://www.inkscape.org/) -->

<svg
   xmlns:dc="http://purl.org/dc/elements/1.1/"
   xmlns:cc="http://creativecommons.org/ns#"
   xmlns:rdf="http://www.w3.org/1999/02/22-rdf-syntax-ns#"
   xmlns:svg="http://www.w3.org/2000/svg"
   xmlns="http://www.w3.org/2000/svg"
   xmlns:sodipodi="http://sodipodi.sourceforge.net/DTD/sodipodi-0.dtd"
   xmlns:inkscape="http://www.inkscape.org/namespaces/inkscape"
   width="256"
   height="256"
   viewBox="0 0 256 256"
   id="svg29137"
   version="1.1"
   inkscape:version="0.91 r13725"
   sodipodi:docname="38.svg">
  <defs
     id="defs29139" />
  <sodipodi:namedview
     id="base"
     pagecolor="#ffffff"
     bordercolor="#666666"
     borderopacity="1.0"
     inkscape:pageopacity="0.0"
     inkscape:pageshadow="2"
     inkscape:zoom="0.35"
     inkscape:cx="-555.14286"
     inkscape:cy="484.26334"
     inkscape:document-units="px"
     inkscape:current-layer="layer1"
     showgrid="false"
     units="px"
     inkscape:window-width="1366"
     inkscape:window-height="702"
     inkscape:window-x="0"
     inkscape:window-y="0"
     inkscape:window-maximized="1" />
  <metadata
     id="metadata29142">
    <rdf:RDF>
      <cc:Work
         rdf:about="">
        <dc:format>image/svg+xml</dc:format>
        <dc:type
           rdf:resource="http://purl.org/dc/dcmitype/StillImage" />
        <dc:title></dc:title>
      </cc:Work>
    </rdf:RDF>
  </metadata>
  <g
     inkscape:label="Layer 1"
     inkscape:groupmode="layer"
     id="layer1"
     transform="translate(0,-796.36216)">
    <path
       inkscape:connector-curvature="0"
       id="path20394"
       style="fill:#231f20;fill-opacity:1;fill-rule:nonzero;stroke:none"
       d="m 34.005007,912.00212 39.69999,0 c 5.15,-7.83 12.06,-16.87 18.51,-23.51 5.82,-5.93 11.490003,-10.05 15.730003,-10.05 l 78.95,0 c 4.25,0 10.84,4.24 17.87,10.35 8.02,6.96 16.92,16.39002 23.34,24.34 3.14,1.2 5.84,3.30002 7.78,5.98 2.05,2.83 3.28,6.3 3.28,10.05 l 0,23.97 c 0,4.73 -1.94,9 -5.04,12.12 -3.11,3.11 -7.4,5.03 -12.11,5.03 l -188.009993,0 c -4.73,0 -9.02001,-1.92 -12.13,-5.03 -3.1,-3.12 -5.04,-7.39 -5.04,-12.12 l 0,-23.97 c 0,-4.72998 1.94,-9.01 5.04,-12.12 3.11,-3.12 7.4,-5.04 12.13,-5.04 l 0,0 z m 144.349993,46.78 11.08,0 -33.83,-19.54 5.5,14 -53.73,0 c -1.6,0 -3.08,-0.6504 -4.13,-1.72998 -1.06,-1.06002 -1.73,-2.53 -1.73,-4.12 l 0,-19.2 c 0,-1.61 0.6696,-3.07 1.73,-4.14 1.05,-1.06002 2.53,-1.73 4.13,-1.73 l 54.46,0 c 1.54,0 2.76,-1.24 2.76,-2.76 0,-1.53 -1.22,-2.76 -2.76,-2.76 l -54.46,0 c -3.14,0 -5.99,1.27998 -8.050003,3.35 -2.07,2.05 -3.35,4.91 -3.35,8.04 l 0,19.2 c 0,3.14 1.28,5.97998 3.35,8.04 2.060003,2.06998 4.910003,3.35 8.050003,3.35 l 70.98,0 0,0 z m -103.170003,-41.25 -41.17999,0 c -3.2,0 -6.11001,1.32 -8.21,3.42 -2.1,2.10002 -3.42,5.01 -3.42,8.21 l 0,23.97 c 0,3.19 1.32,6.09002 3.42,8.21 2.09999,2.11 5.00999,3.41 8.21,3.41 l 188.009993,0 c 3.18,0 6.09,-1.3 8.19,-3.41 2.11,-2.11998 3.42,-5.02 3.42,-8.21 l 0,-23.97 c 0,-2.55 -0.83,-4.89998 -2.22,-6.81 -1.42,-1.97 -3.46,-3.48 -5.81,-4.26 l 0,0 c -0.5,-0.14 -0.95,-0.46 -1.3,-0.89 -6.29,-7.86 -15.16,-17.34 -23.13,-24.24 -6.11,-5.29 -11.5,-9 -14.27,-9 l -78.95,0 c -2.58,0 -6.93,3.43 -11.760003,8.38 -6.52,6.68 -13.52,15.95 -18.58,23.76 -0.4696,0.85 -1.37,1.43 -2.42,1.43 l 0,0" />
  </g>
</svg>
