<?xml version="1.0" encoding="UTF-8" standalone="no"?>
<!-- Created with Inkscape (http://www.inkscape.org/) -->

<svg
   xmlns:dc="http://purl.org/dc/elements/1.1/"
   xmlns:cc="http://creativecommons.org/ns#"
   xmlns:rdf="http://www.w3.org/1999/02/22-rdf-syntax-ns#"
   xmlns:svg="http://www.w3.org/2000/svg"
   xmlns="http://www.w3.org/2000/svg"
   xmlns:sodipodi="http://sodipodi.sourceforge.net/DTD/sodipodi-0.dtd"
   xmlns:inkscape="http://www.inkscape.org/namespaces/inkscape"
   width="256"
   height="256"
   viewBox="0 0 256 256"
   id="svg29137"
   version="1.1"
   inkscape:version="0.91 r13725"
   sodipodi:docname="39.svg">
  <defs
     id="defs29139" />
  <sodipodi:namedview
     id="base"
     pagecolor="#ffffff"
     bordercolor="#666666"
     borderopacity="1.0"
     inkscape:pageopacity="0.0"
     inkscape:pageshadow="2"
     inkscape:zoom="0.35"
     inkscape:cx="-555.14286"
     inkscape:cy="484.26334"
     inkscape:document-units="px"
     inkscape:current-layer="layer1"
     showgrid="false"
     units="px"
     inkscape:window-width="1366"
     inkscape:window-height="702"
     inkscape:window-x="0"
     inkscape:window-y="0"
     inkscape:window-maximized="1" />
  <metadata
     id="metadata29142">
    <rdf:RDF>
      <cc:Work
         rdf:about="">
        <dc:format>image/svg+xml</dc:format>
        <dc:type
           rdf:resource="http://purl.org/dc/dcmitype/StillImage" />
        <dc:title></dc:title>
      </cc:Work>
    </rdf:RDF>
  </metadata>
  <g
     inkscape:label="Layer 1"
     inkscape:groupmode="layer"
     id="layer1"
     transform="translate(0,-796.36216)">
    <path
       inkscape:connector-curvature="0"
       id="path20386"
       style="fill:#231f20;fill-opacity:1;fill-rule:nonzero;stroke:none"
       d="m 46.624795,839.31282 162.740015,0 c 5.55,0 10.6,2.27 14.25,5.92 3.65,3.65 5.93,8.7 5.93,14.26 l 0,81.37 c 0,5.54 -2.28,10.6 -5.93,14.24 -3.65,3.66 -8.7,5.93 -14.25,5.93 l -22.33,0 c 13.19,24.24 -15.63,47.34998 -15.71,47.43998 -1.76,1.44 -4.36,1.2 -5.8,-0.56 -1.45,-1.76 -1.19,-4.36 0.56,-5.8 0.08,-0.056 26.21,-21.04998 10.92,-41.07998 l -35.84,0 c 13.19,24.24 -15.62,47.34998 -15.72,47.43998 -1.75,1.44 -4.34,1.2 -5.79,-0.56 -1.44,-1.76 -1.19,-4.36 0.5704,-5.8 0.072,-0.056 26.21,-21.04998 10.92,-41.07998 l -35.850005,0 c 13.190005,24.24 -15.62001,47.34998 -15.71001,47.43998 -1.76,1.44 -4.36,1.2 -5.8,-0.56 -1.45,-1.76 -1.2,-4.36 0.56,-5.8 0.08,-0.056 26.220015,-21.04998 10.92001,-41.07998 l -38.64001,0 c -5.55,0 -10.59,-2.27 -14.24,-5.93 -3.66,-3.64 -5.93,-8.7 -5.93,-14.24 l 0,-81.37 c 0,-5.56 2.27,-10.61 5.93,-14.26 3.65,-3.65 8.69,-5.92 14.24,-5.92 l 0,0 z m 38.76001,65.12 c -3.74001,3.72 -23.38001,25.2 0.008,44.9 1.35,1.14 2.57,2.29 3.68,3.44 l 33.710005,0 c -24.780025,-24.24 -2.12,-49.4 2.63998,-54.17 -3.46998,-3.45 -6.94,-6.93 -10.40998,-10.4 8.79,0 17.58,0 26.38,0 0,8.79 0,17.59 0,26.38 -3.39,-3.37 -6.77,-6.76 -10.15,-10.15 -3.73,3.72 -23.37,25.2 0.024,44.9 1.34998,1.14 2.55998,2.29 3.67998,3.44 l 33.7,0 c -24.77,-24.24 -2.12,-49.4 2.64,-54.17 l -10.39,-10.4 26.37,0 0,26.38 -10.14,-10.15 c -3.75,3.72 -23.39,25.2 0,44.9 1.35,1.14 2.57,2.29 3.68,3.44 l 28.56,0 c 3.27,0 6.25,-1.35 8.41,-3.51 2.16,-2.16 3.49,-5.13 3.49,-8.4 l 0,-81.37 c 0,-3.27 -1.33,-6.26 -3.49,-8.42 -2.16,-2.15 -5.14,-3.49 -8.41,-3.49 l -162.739995,0 c -3.27,0 -6.24,1.34 -8.41,3.49 -2.15,2.16 -3.5,5.15 -3.5,8.42 l 0,81.37 c 0,3.27 1.35,6.24 3.5,8.4 2.17,2.16 5.14,3.51 8.41,3.51 l 30.29,0 c -24.77,-24.24 -2.13,-49.4 2.64,-54.17 l -10.4,-10.4 26.35999,0 0,26.38 -10.13,-10.15 0,0" />
    <rect
       style="opacity:1;fill:none;fill-opacity:1;stroke:#ff0000;stroke-width:0.99610895;stroke-linecap:butt;stroke-linejoin:round;stroke-miterlimit:4;stroke-dasharray:none;stroke-dashoffset:17.67000008;stroke-opacity:1"
       id="rect30507"
       width="255.00389"
       height="255.00389"
       x="0.49805447"
       y="796.86023" />
  </g>
</svg>
