<?xml version="1.0" encoding="UTF-8" standalone="no"?>
<!-- Created with Inkscape (http://www.inkscape.org/) -->

<svg
   xmlns:dc="http://purl.org/dc/elements/1.1/"
   xmlns:cc="http://creativecommons.org/ns#"
   xmlns:rdf="http://www.w3.org/1999/02/22-rdf-syntax-ns#"
   xmlns:svg="http://www.w3.org/2000/svg"
   xmlns="http://www.w3.org/2000/svg"
   xmlns:sodipodi="http://sodipodi.sourceforge.net/DTD/sodipodi-0.dtd"
   xmlns:inkscape="http://www.inkscape.org/namespaces/inkscape"
   width="256"
   height="256"
   viewBox="0 0 256 256"
   id="svg29137"
   version="1.1"
   inkscape:version="0.91 r13725"
   sodipodi:docname="40.svg">
  <defs
     id="defs29139" />
  <sodipodi:namedview
     id="base"
     pagecolor="#ffffff"
     bordercolor="#666666"
     borderopacity="1.0"
     inkscape:pageopacity="0.0"
     inkscape:pageshadow="2"
     inkscape:zoom="0.35"
     inkscape:cx="-555.14286"
     inkscape:cy="484.26334"
     inkscape:document-units="px"
     inkscape:current-layer="layer1"
     showgrid="false"
     units="px"
     inkscape:window-width="1366"
     inkscape:window-height="702"
     inkscape:window-x="0"
     inkscape:window-y="0"
     inkscape:window-maximized="1" />
  <metadata
     id="metadata29142">
    <rdf:RDF>
      <cc:Work
         rdf:about="">
        <dc:format>image/svg+xml</dc:format>
        <dc:type
           rdf:resource="http://purl.org/dc/dcmitype/StillImage" />
        <dc:title></dc:title>
      </cc:Work>
    </rdf:RDF>
  </metadata>
  <g
     inkscape:label="Layer 1"
     inkscape:groupmode="layer"
     id="layer1"
     transform="translate(0,-796.36216)">
    <path
       inkscape:connector-curvature="0"
       id="path20390"
       style="fill:#231f20;fill-opacity:1;fill-rule:nonzero;stroke:none"
       d="m 128.01793,843.1374 c 19.72,0.1096 38.95,2.09002 57.47,5.80002 19.03,3.81 37.46001,9.44998 55.07001,16.72 2.46,1.01 3.62,3.81 2.62,6.24 l -0.08,0.1504 0.016,0 -44.01001,97.83 c -1.07,2.37 -3.83,3.45 -6.21,2.45 -2.4,-0.94 -4.82,-1.82 -7.26,-2.65 0.5704,19.15 -19.08,34.90998 -19.15,34.98998 -1.75,1.42 -4.35,1.17 -5.81,-0.58 -1.43,-1.76 -1.18,-4.35998 0.58,-5.79998 0.072,-0.056 18.48,-14.86 15.36,-31.45 -5.08,-1.44 -10.24,-2.67 -15.48,-3.67 -7.67,-1.48 -15.46,-2.47 -23.38,-2.95 9.42,23.11 -17.04,44.35998 -17.15,44.44998 -1.75,1.42 -4.34,1.17 -5.79,-0.58 -1.44,-1.76 -1.2,-4.35998 0.5696,-5.79998 0.072,-0.056 23.94,-19.23 12.71,-38.41 l -0.1,0 c -11.27,0.08 -22.35,1.21 -33.129998,3.29 -0.62,0.1104 -1.25,0.22 -1.87,0.3496 5.84,21.8 -18.16,41.06998 -18.26,41.14998 -1.74,1.42 -4.34,1.17 -5.79,-0.58 -1.44,-1.76 -1.18,-4.35998 0.5704,-5.8 0.072,-0.056 19.53,-15.68 15.05,-32.84 -7.39,1.86 -14.59,4.18 -21.57,6.92 -2.39,0.95 -5.07,-0.1896 -6.11,-2.49 l 0,0 -44,-97.83 c -1.08,-2.41 -0.008,-5.23998 2.39,-6.33 0.1296,-0.056 0.28,-0.12 0.4096,-0.16 17.54,-7.22002 35.89,-12.83 54.83,-16.62 18.52,-3.71 37.739998,-5.69 57.469998,-5.80002 l 0.032,0 0,0 z m -47.459998,57.47002 c -3.75,3.72998 -23.38,25.2 0,44.91 3.57002,3.02 6.29,6.05 8.34002,9.09 1.38,-0.3 2.78,-0.58 4.15998,-0.86 8.659998,-1.65 17.530018,-2.74 26.610018,-3.18 -27.510018,-24.74 -3.94002,-50.9 0.92,-55.8 -3.46,-3.44 -6.93,-6.91 -10.41,-10.39002 8.79,0 17.58,0 26.37,0 0,8.8 0,17.59 0,26.38 -3.37,-3.38 -6.75,-6.76 -10.13,-10.14998 -3.74,3.72998 -23.38002,25.2 0.008,44.91 1.92,1.61998 3.58,3.22998 5.03002,4.86998 10.78,0.26002 21.28,1.42002 31.46998,3.36 2.61,0.52002 5.19,1.06002 7.75,1.67 -1.07,-1.21 -2.29,-2.41 -3.71,-3.60998 -29.75,-25.08 -5.46,-52.06002 -0.52,-57.04 l -10.4,-10.39002 26.38,0 0,26.38 -10.14,-10.14998 c -3.73998,3.72998 -23.38998,25.2 0.008,44.91 5.19,4.38 8.62,8.82998 10.69,13.22 3.11,0.97998 6.21,2 9.25,3.10998 l 40.11001,-89.18998 c -15.59998,-6.12 -31.86999,-10.94 -48.73999,-14.32 -18.03002,-3.62 -36.64,-5.55 -55.61,-5.65 -18.96002,0.1 -37.559998,2.03 -55.619998,5.65 -16.84002,3.38 -33.13,8.2 -48.72,14.32 l 40.12,89.18998 c 5.32,-1.94998 10.76,-3.64998 16.29,-5.11998 -1.32,-1.64002 -2.91,-3.28 -4.83,-4.92 -29.76,-25.08 -5.47,-52.06002 -0.52,-57.04 l -10.39,-10.39002 26.36,0 0,26.38 -10.13,-10.14998 0,0" />
  </g>
</svg>
