<?xml version="1.0" encoding="UTF-8" standalone="no"?>
<!-- Created with Inkscape (http://www.inkscape.org/) -->

<svg
   xmlns:dc="http://purl.org/dc/elements/1.1/"
   xmlns:cc="http://creativecommons.org/ns#"
   xmlns:rdf="http://www.w3.org/1999/02/22-rdf-syntax-ns#"
   xmlns:svg="http://www.w3.org/2000/svg"
   xmlns="http://www.w3.org/2000/svg"
   xmlns:sodipodi="http://sodipodi.sourceforge.net/DTD/sodipodi-0.dtd"
   xmlns:inkscape="http://www.inkscape.org/namespaces/inkscape"
   width="256"
   height="256"
   viewBox="0 0 256 256"
   id="svg29137"
   version="1.1"
   inkscape:version="0.91 r13725"
   sodipodi:docname="41.svg">
  <defs
     id="defs29139" />
  <sodipodi:namedview
     id="base"
     pagecolor="#ffffff"
     bordercolor="#666666"
     borderopacity="1.0"
     inkscape:pageopacity="0.0"
     inkscape:pageshadow="2"
     inkscape:zoom="0.35"
     inkscape:cx="-555.14286"
     inkscape:cy="484.26334"
     inkscape:document-units="px"
     inkscape:current-layer="layer1"
     showgrid="false"
     units="px"
     inkscape:window-width="1366"
     inkscape:window-height="702"
     inkscape:window-x="0"
     inkscape:window-y="0"
     inkscape:window-maximized="1" />
  <metadata
     id="metadata29142">
    <rdf:RDF>
      <cc:Work
         rdf:about="">
        <dc:format>image/svg+xml</dc:format>
        <dc:type
           rdf:resource="http://purl.org/dc/dcmitype/StillImage" />
        <dc:title></dc:title>
      </cc:Work>
    </rdf:RDF>
  </metadata>
  <g
     inkscape:label="Layer 1"
     inkscape:groupmode="layer"
     id="layer1"
     transform="translate(0,-796.36216)">
    <path
       inkscape:connector-curvature="0"
       id="path20388"
       style="fill:#231f20;fill-opacity:1;fill-rule:nonzero;stroke:none"
       d="m 142.90998,867.08214 12.94998,7.47002 14.30002,8.25 10.59,-18.36 0,18.72998 34.67001,-9.29 -25.38001,25.38002 16.22001,9.35998 -22.49001,0 0,31.47 22.49001,0 -16.22001,9.35002 25.38001,25.39998 -34.67001,-9.28998 0,18.72998 -11.92,-20.65 -12.97,7.49 -14.28,8.23 11.93,20.66006 -16.22,-9.38006 -9.29,34.68006 -9.29,-34.68006 -16.21,9.38006 11.92,-20.66006 -14.28,-8.23 -12.969998,-7.49 -11.93,20.65 0,-18.72998 -34.66,9.28998 25.37,-25.39998 -16.21,-9.35002 22.49,0 0,-31.47 -22.49,0 16.21,-9.35998 -25.37,-25.38002 34.66,9.29 0,-18.72998 10.6,18.36 14.299998,-8.25 12.95,-7.47002 -10.59,-18.37 16.21,9.37 9.29,-34.67 9.29,34.67 16.22,-9.37 -10.6,18.37 0,0 z m 6.4,18.86 -21.31,-12.3 -21.31,12.3 -21.259998,12.27 0,49.24 21.259998,12.26 21.31,12.30002 21.31,-12.30002 21.26,-12.26 0,-49.24 -21.26,-12.27 0,0" />
  </g>
</svg>
