<?xml version="1.0" encoding="UTF-8" standalone="no"?>
<!-- Created with Inkscape (http://www.inkscape.org/) -->

<svg
   xmlns:dc="http://purl.org/dc/elements/1.1/"
   xmlns:cc="http://creativecommons.org/ns#"
   xmlns:rdf="http://www.w3.org/1999/02/22-rdf-syntax-ns#"
   xmlns:svg="http://www.w3.org/2000/svg"
   xmlns="http://www.w3.org/2000/svg"
   xmlns:sodipodi="http://sodipodi.sourceforge.net/DTD/sodipodi-0.dtd"
   xmlns:inkscape="http://www.inkscape.org/namespaces/inkscape"
   width="256"
   height="256"
   viewBox="0 0 256 256"
   id="svg29137"
   version="1.1"
   inkscape:version="0.91 r13725"
   sodipodi:docname="42.svg">
  <defs
     id="defs29139" />
  <sodipodi:namedview
     id="base"
     pagecolor="#ffffff"
     bordercolor="#666666"
     borderopacity="1.0"
     inkscape:pageopacity="0.0"
     inkscape:pageshadow="2"
     inkscape:zoom="2.0507812"
     inkscape:cx="128"
     inkscape:cy="128"
     inkscape:document-units="px"
     inkscape:current-layer="layer1"
     showgrid="false"
     units="px"
     inkscape:window-width="1366"
     inkscape:window-height="702"
     inkscape:window-x="0"
     inkscape:window-y="0"
     inkscape:window-maximized="1" />
  <metadata
     id="metadata29142">
    <rdf:RDF>
      <cc:Work
         rdf:about="">
        <dc:format>image/svg+xml</dc:format>
        <dc:type
           rdf:resource="http://purl.org/dc/dcmitype/StillImage" />
        <dc:title></dc:title>
      </cc:Work>
    </rdf:RDF>
  </metadata>
  <g
     inkscape:label="Layer 1"
     inkscape:groupmode="layer"
     id="layer1"
     transform="translate(0,-796.36216)">
    <path
       inkscape:connector-curvature="0"
       id="path20392"
       style="fill:#231f20;fill-opacity:1;fill-rule:nonzero;stroke:none"
       d="m 118.735,935.16715 -67.230009,0 c -4.16,0 -8.91,2.36998 -12.53002,6.1 -1.61998,1.68 -2.98998,3.61 -3.94998,5.68 -0.89,1.96 -1.41,4.08 -1.41,6.31 0,3.96 1.76,8.28 6.15,12.54 10.1,9.83 23.67,19.64 36.91,23.43 9.34,2.66 18.48998,2.24 25.830009,-3.72 8.17998,-6.64 13.86,-15.35 17.36,-23.64 4.27,-10.17 5.35,-19.11 3.55,-22.26 -2.67,-4.66 -4.14,-4.48 -4.14,-4.48 -0.1896,0.016 -0.36,0.016 -0.54,0.016 l 0,0.016 z m 17.62,-2.96 0,67.22 c 0,4.14995 2.38,8.89005 6.09998,12.51005 1.68,1.64 3.61002,3.01 5.69,3.96 1.96002,0.88 4.08,1.41 6.31,1.41 3.96,0 8.29,-1.75 12.52,-6.14 9.84002,-10.12 19.64,-23.67007 23.43,-36.91005 2.68,-9.34 2.24,-18.49 -3.72,-25.84 -6.63998,-8.17002 -15.32998,-13.85002 -23.61998,-17.36 -10.18,-4.27002 -19.11002,-5.35 -22.27,-3.54 -4.66,2.67 -4.48,4.15 -4.48,4.15 0.016,0.1704 0.032,0.34958 0.032,0.54 l 0.008,0 0,0 z m -10.99,67.22 0,-24.2 c -3.97,6.76 -9.25,13.32 -15.95,18.76 -10.590009,8.59005 -23.160009,9.39005 -35.740009,5.79 -15.15,-4.33 -30.36,-15.23 -41.56,-26.13 -6.76,-6.57 -9.47,-13.66 -9.47,-20.39 0,-3.8 0.89,-7.46 2.44,-10.85002 1.48,-3.27 3.57,-6.22998 6.05,-8.77998 5.6,-5.77002 13.3,-9.44 20.37,-9.44 l 30.79,0 c -7.37,-4.08 -14.62,-9.7 -20.55,-16.99 -8.57,-10.57 -9.38,-23.14 -5.78,-35.73 4.33,-15.14 15.24,-30.35 26.12,-41.54 6.57,-6.77 13.66,-9.48 20.390009,-9.48 3.8,0 7.47,0.88 10.85,2.43 3.28,1.49 6.23,3.58 8.77,6.06 5.78,5.59 9.47,13.3 9.47,20.37 l 0,24.22 c 3.84998,-6.23 8.82998,-12.21 15.02,-17.24 10.59,-8.58 23.15998,-9.39 35.73998,-5.8 15.15,4.35 30.35,15.25 41.55,26.14 6.78002,6.58 9.48002,13.65 9.48002,20.4 0,3.79 -0.89,7.46 -2.44002,10.83 -1.48,3.28 -3.57998,6.24 -6.05,8.78 -5.6,5.77 -13.3,9.45 -20.37,9.45 l -27.19,0 c 6.44,3.91 12.67,9.03 17.88,15.44 8.58,10.57 9.37,23.14 5.78002,35.72 -4.34002,15.15 -15.24,30.36005 -26.12,41.54005 -6.58,6.79 -13.67,9.49 -20.39,9.49 -3.81,0 -7.48,-0.88 -10.85,-2.43 -3.27,-1.5 -6.24,-3.59 -8.78,-6.06 -5.78,-5.58 -9.46,-13.3 -9.46,-20.36005 l 0,0 z m 1.25,-72.46 0,-0.016 0,0.016 z m 10.66,-11.86 67.21998,0 c 4.16,0 8.91,-2.39 12.52,-6.1 1.64,-1.69 3.01002,-3.60002 3.95,-5.67 0.9,-1.97002 1.42,-4.10002 1.42,-6.31002 0,-3.97 -1.77,-8.29 -6.14,-12.56 -10.13,-9.82 -23.67,-19.64 -36.92,-23.42 -9.34,-2.67 -18.48,-2.23 -25.82,3.73 -8.19,6.64 -13.88,15.34 -17.37,23.63 -4.27,10.16 -5.34,19.11 -3.55,22.25 2.66,4.68 4.15,4.49 4.15,4.49 0.18,-0.016 0.3504,-0.032 0.54,-0.032 l 0,-0.008 z m -16.7,1.42 0,-67.22 c 0,-4.16 -2.39,-8.9 -6.1,-12.52002 -1.68,-1.64 -3.61,-3.01 -5.68,-3.96 -1.96,-0.89998 -4.09,-1.40998 -6.32,-1.40998 -3.960009,0 -8.280009,1.76 -12.530009,6.14 -9.83,10.11 -19.65,23.68 -23.42,36.91 -2.68,9.35 -2.24,18.5 3.71,25.83 6.65,8.18998 15.34,13.87 23.63998,17.35998 10.150029,4.29 19.100009,5.36 22.260029,3.55002 4.66,-2.66 4.48998,-4.14002 4.48998,-4.14002 -0.008,-0.1904 -0.032,-0.35998 -0.032,-0.54 l -0.016,0 0,0" />
  </g>
</svg>
