<?xml version="1.0" encoding="UTF-8" standalone="no"?>
<!-- Created with Inkscape (http://www.inkscape.org/) -->

<svg
   xmlns:dc="http://purl.org/dc/elements/1.1/"
   xmlns:cc="http://creativecommons.org/ns#"
   xmlns:rdf="http://www.w3.org/1999/02/22-rdf-syntax-ns#"
   xmlns:svg="http://www.w3.org/2000/svg"
   xmlns="http://www.w3.org/2000/svg"
   xmlns:sodipodi="http://sodipodi.sourceforge.net/DTD/sodipodi-0.dtd"
   xmlns:inkscape="http://www.inkscape.org/namespaces/inkscape"
   width="256"
   height="256"
   viewBox="0 0 256 256"
   id="svg29137"
   version="1.1"
   inkscape:version="0.91 r13725"
   sodipodi:docname="44.svg">
  <defs
     id="defs29139" />
  <sodipodi:namedview
     id="base"
     pagecolor="#ffffff"
     bordercolor="#666666"
     borderopacity="1.0"
     inkscape:pageopacity="0.0"
     inkscape:pageshadow="2"
     inkscape:zoom="2.0507812"
     inkscape:cx="128"
     inkscape:cy="-47.542857"
     inkscape:document-units="px"
     inkscape:current-layer="layer1"
     showgrid="false"
     units="px"
     inkscape:window-width="1366"
     inkscape:window-height="702"
     inkscape:window-x="0"
     inkscape:window-y="0"
     inkscape:window-maximized="1" />
  <metadata
     id="metadata29142">
    <rdf:RDF>
      <cc:Work
         rdf:about="">
        <dc:format>image/svg+xml</dc:format>
        <dc:type
           rdf:resource="http://purl.org/dc/dcmitype/StillImage" />
        <dc:title></dc:title>
      </cc:Work>
    </rdf:RDF>
  </metadata>
  <g
     inkscape:label="Layer 1"
     inkscape:groupmode="layer"
     id="layer1"
     transform="translate(0,-796.36216)">
    <path
       inkscape:connector-curvature="0"
       id="path20396"
       style="fill:#231f20;fill-opacity:1;fill-rule:evenodd;stroke:none"
       d="m 99.624992,822.51214 56.750008,0 c 3.25,0 6.22,1.05 8.4,2.76 2.34,1.8 3.8,4.34 3.8,7.18 l 0,9.48 c 0,2.83 -1.46,5.37 -3.8,7.19 -2.18,1.7 -5.15,2.75 -8.4,2.75 l -56.750008,0 c -3.25,0 -6.22,-1.05 -8.4,-2.75 -2.35,-1.81 -3.8,-4.36 -3.8,-7.19 l 0,-9.48 c 0,-2.84 1.44998,-5.38 3.8,-7.18 2.18,-1.71 5.15,-2.76 8.4,-2.76 l 0,0 z m 0,174.34 56.750008,0 c 3.25,0 6.22,1.06002 8.4,2.75 2.34,1.82006 3.8,4.37006 3.8,7.19006 l 0,9.47 c 0,2.85 -1.46,5.4 -3.8,7.2 -2.18,1.71 -5.15,2.75 -8.4,2.75 l -56.750008,0 c -3.25,0 -6.22,-1.04 -8.4,-2.75 -2.35,-1.8 -3.8,-4.35 -3.8,-7.2 l 0,-9.47 c 0,-2.82 1.44998,-5.37 3.8,-7.19006 2.18,-1.68998 5.15,-2.75 8.4,-2.75 l 0,0 z m 0,-34.86 56.750008,0 c 3.25,0 6.22,1.04 8.4,2.75 2.34,1.81002 3.8,4.36 3.8,7.19 l 0,9.48 c 0,2.82 -1.46,5.37 -3.8,7.19 -2.18,1.68 -5.15,2.75 -8.4,2.75 l -56.750008,0 c -3.25,0 -6.22,-1.07 -8.4,-2.75 -2.35,-1.82 -3.8,-4.37 -3.8,-7.19 l 0,-9.48 c 0,-2.83 1.44998,-5.38 3.8,-7.19 2.18,-1.71 5.15,-2.75 8.4,-2.75 l 0,0 z m 0,-34.88 56.750008,0 c 3.25,0 6.22,1.06002 8.4,2.76002 2.34,1.81 3.8,4.35 3.8,7.18 l 0,9.47998 c 0,2.84002 -1.46,5.39002 -3.8,7.18002 -2.18,1.71 -5.15,2.76 -8.4,2.76 l -56.750008,0 c -3.25,0 -6.22,-1.05 -8.4,-2.76 -2.35,-1.79 -3.8,-4.34 -3.8,-7.18002 l 0,-9.47998 c 0,-2.83 1.44998,-5.37 3.8,-7.18 2.18,-1.7 5.15,-2.76002 8.4,-2.76002 l 0,0 z m 0,-34.85998 56.750008,0 c 3.25,0 6.22,1.04 8.4,2.75 2.34,1.8 3.8,4.35 3.8,7.19998 l 0,9.47002 c 0,2.81998 -1.46,5.37 -3.8,7.18 -2.18,1.7 -5.15,2.75 -8.4,2.75 l -56.750008,0 c -3.25,0 -6.22,-1.05 -8.4,-2.75 -2.35,-1.81 -3.8,-4.36 -3.8,-7.18 l 0,-9.47002 c 0,-2.85 1.44998,-5.39998 3.8,-7.19998 2.18,-1.71 5.15,-2.75 8.4,-2.75 l 0,0 z m 0,-34.88 56.750008,0 c 3.25,0 6.22,1.06 8.4,2.76 2.34,1.81 3.8,4.35998 3.8,7.2 l 0,9.46 c 0,2.84 -1.46,5.39 -3.8,7.19998 -2.18,1.7 -5.15,2.74 -8.4,2.74 l -56.750008,0 c -3.25,0 -6.22,-1.04 -8.4,-2.74 -2.35,-1.81 -3.8,-4.35998 -3.8,-7.19998 l 0,-9.46 c 0,-2.84002 1.44998,-5.39002 3.8,-7.2 2.18,-1.7 5.15,-2.76 8.4,-2.76 l 0,0 z m 56.750008,4.29 -56.750008,0 c -2.28,0 -4.33,0.71038 -5.8,1.84 -1.31,1.02998 -2.12,2.38 -2.12,3.83 l 0,9.46 c 0,1.44998 0.81,2.81 2.12,3.83 1.46998,1.11998 3.52,1.81998 5.8,1.81998 l 56.750008,0 c 2.28,0 4.33,-0.7 5.79,-1.81998 1.31,-1.02002 2.13,-2.38002 2.13,-3.83 l 0,-9.46 c 0,-1.45 -0.82,-2.80002 -2.13,-3.83 -1.46,-1.13 -3.51,-1.84 -5.79,-1.84 l 0,0 z m 0,-34.86 -56.750008,0 c -2.28,0 -4.33,0.7 -5.8,1.82 -1.31,1.02998 -2.12,2.39 -2.12,3.82998 l 0,9.48 c 0,1.45 0.81,2.81 2.12,3.81 1.46998,1.14002 3.52,1.84002 5.8,1.84002 l 56.750008,0 c 2.28,0 4.33,-0.7 5.79,-1.84002 1.31,-1 2.13,-2.35998 2.13,-3.81 l 0,-9.48 c 0,-1.43998 -0.82,-2.8 -2.13,-3.82998 -1.46,-1.12 -3.51,-1.82 -5.79,-1.82 l 0,0" />
  </g>
</svg>
