<?xml version="1.0" encoding="UTF-8" standalone="no"?>
<!-- Created with Inkscape (http://www.inkscape.org/) -->

<svg
   xmlns:dc="http://purl.org/dc/elements/1.1/"
   xmlns:cc="http://creativecommons.org/ns#"
   xmlns:rdf="http://www.w3.org/1999/02/22-rdf-syntax-ns#"
   xmlns:svg="http://www.w3.org/2000/svg"
   xmlns="http://www.w3.org/2000/svg"
   xmlns:sodipodi="http://sodipodi.sourceforge.net/DTD/sodipodi-0.dtd"
   xmlns:inkscape="http://www.inkscape.org/namespaces/inkscape"
   width="256"
   height="256"
   viewBox="0 0 256 256"
   id="svg29137"
   version="1.1"
   inkscape:version="0.91 r13725"
   sodipodi:docname="45.svg">
  <defs
     id="defs29139" />
  <sodipodi:namedview
     id="base"
     pagecolor="#ffffff"
     bordercolor="#666666"
     borderopacity="1.0"
     inkscape:pageopacity="0.0"
     inkscape:pageshadow="2"
     inkscape:zoom="2.0507812"
     inkscape:cx="128"
     inkscape:cy="126.38668"
     inkscape:document-units="px"
     inkscape:current-layer="layer1"
     showgrid="false"
     units="px"
     inkscape:window-width="1366"
     inkscape:window-height="702"
     inkscape:window-x="0"
     inkscape:window-y="0"
     inkscape:window-maximized="1" />
  <metadata
     id="metadata29142">
    <rdf:RDF>
      <cc:Work
         rdf:about="">
        <dc:format>image/svg+xml</dc:format>
        <dc:type
           rdf:resource="http://purl.org/dc/dcmitype/StillImage" />
        <dc:title></dc:title>
      </cc:Work>
    </rdf:RDF>
  </metadata>
  <g
     inkscape:label="Layer 1"
     inkscape:groupmode="layer"
     id="layer1"
     transform="translate(0,-796.36216)">
    <path
       inkscape:connector-curvature="0"
       id="path20434"
       style="fill:#231f20;fill-opacity:1;fill-rule:evenodd;stroke:none"
       d="m 188.01001,906.78112 c -4.05002,5.738 -14.86002,30.43696 -14.86002,30.43696 0,0 -10.15,-10.832 -20.63,-11.164 -10.46998,-0.34 -15.21,6.758 -20.26,16.906 -5.08,10.157 -15.22,24.7 -10.82,30.11 4.4,5.406 12.18,8.785 18.92,-2.024 6.76,-10.8198 10.8,-22.676 15.55,-21.992 4.72,0.672 13.51,14.895 25.34,16.914 11.82,2.031 18.25,-5.41 18.25,-10.808 0,-5.434 5.16,-9.075 9.12,-13.891 16.59,-20.07396 -10.16,-49.305 -20.61,-34.48796 l 0,0 z m -134.980012,-28.706 c 0,0 27.44999,22.62 57.369992,23.81096 29.92,1.20304 52.06,-1.172 52.06,-1.172 -17.15998,-9.43296 -34.29,-18.84696 -51.42,-28.27894 2.99,4.54 5.97,9.08 8.97,13.61894 -29.690002,5.18808 -38.220002,0.81304 -66.979992,-7.97896 l 0,0 z m -21.540001,6.46696 c 0,0 12.46,33.32104 37.780001,49.30504 25.30001,15.99596 45.650012,25.01196 45.650012,25.01196 -10.12,-16.739 -20.250002,-33.469 -30.390002,-50.203 0.32,5.42904 0.6496,10.84704 0.97,16.27704 -28.30001,-10.352 -33.51001,-18.398 -54.010011,-40.39104 l 0,0 z M 208.62001,870.57512 c 8.77,0 15.89,7.1 15.89,15.88104 0,8.76992 -7.12,15.87896 -15.89,15.87896 -8.77,0 -15.88,-7.10894 -15.88,-15.87896 0,-8.78104 7.11,-15.88104 15.88,-15.88104 l 0,0" />
  </g>
</svg>
