<?xml version="1.0" encoding="UTF-8" standalone="no"?>
<!-- Created with Inkscape (http://www.inkscape.org/) -->

<svg
   xmlns:dc="http://purl.org/dc/elements/1.1/"
   xmlns:cc="http://creativecommons.org/ns#"
   xmlns:rdf="http://www.w3.org/1999/02/22-rdf-syntax-ns#"
   xmlns:svg="http://www.w3.org/2000/svg"
   xmlns="http://www.w3.org/2000/svg"
   xmlns:sodipodi="http://sodipodi.sourceforge.net/DTD/sodipodi-0.dtd"
   xmlns:inkscape="http://www.inkscape.org/namespaces/inkscape"
   width="256"
   height="256"
   viewBox="0 0 256 256"
   id="svg29137"
   version="1.1"
   inkscape:version="0.91 r13725"
   sodipodi:docname="47.svg">
  <defs
     id="defs29139" />
  <sodipodi:namedview
     id="base"
     pagecolor="#ffffff"
     bordercolor="#666666"
     borderopacity="1.0"
     inkscape:pageopacity="0.0"
     inkscape:pageshadow="2"
     inkscape:zoom="2.0507812"
     inkscape:cx="128"
     inkscape:cy="126.38668"
     inkscape:document-units="px"
     inkscape:current-layer="layer1"
     showgrid="false"
     units="px"
     inkscape:window-width="1366"
     inkscape:window-height="702"
     inkscape:window-x="0"
     inkscape:window-y="0"
     inkscape:window-maximized="1" />
  <metadata
     id="metadata29142">
    <rdf:RDF>
      <cc:Work
         rdf:about="">
        <dc:format>image/svg+xml</dc:format>
        <dc:type
           rdf:resource="http://purl.org/dc/dcmitype/StillImage" />
        <dc:title></dc:title>
      </cc:Work>
    </rdf:RDF>
  </metadata>
  <g
     inkscape:label="Layer 1"
     inkscape:groupmode="layer"
     id="layer1"
     transform="translate(0,-796.36216)">
    <path
       inkscape:connector-curvature="0"
       id="path20440"
       style="fill:#231f20;fill-opacity:1;fill-rule:evenodd;stroke:none"
       d="m 84.660002,901.27115 86.679978,0 c -0.1496,-0.4504 -0.23998,-0.94 -0.23998,-1.44 0,-13.09 -4.87,-24.93 -12.76002,-33.46 -7.77,-8.43998 -18.51,-13.64998 -30.33,-13.64998 -11.84998,0 -22.58,5.19998 -30.349978,13.64998 -7.90002,8.53 -12.78002,20.37 -12.78002,33.46 0,0.5 -0.08,0.99 -0.21998,1.44 l 0,0 z m 95.549998,0.4 c 4.9,1.31 8.53,5.8 8.53,11.09296 l 0,81.24217 c 0,6.31982 -5.17,11.47682 -11.5,11.47682 l -98.489998,0 c -6.32,0 -11.49,-5.157 -11.49,-11.47682 l 0,-81.24217 c 0,-5.29296 3.63,-9.78296 8.53,-11.09296 -0.24,-0.58 -0.3704,-1.19 -0.3704,-1.84 0,-15.55 5.83,-29.63 15.26,-39.86 9.549998,-10.34 22.739998,-16.73 37.329998,-16.73 14.57,0 27.75,6.39 37.3,16.73 9.43,10.23 15.27,24.33 15.27,39.86 0,0.6504 -0.1296,1.26 -0.3696,1.84 l 0,0" />
  </g>
</svg>
