<?xml version="1.0" encoding="UTF-8" standalone="no"?>
<!-- Created with Inkscape (http://www.inkscape.org/) -->

<svg
   xmlns:dc="http://purl.org/dc/elements/1.1/"
   xmlns:cc="http://creativecommons.org/ns#"
   xmlns:rdf="http://www.w3.org/1999/02/22-rdf-syntax-ns#"
   xmlns:svg="http://www.w3.org/2000/svg"
   xmlns="http://www.w3.org/2000/svg"
   xmlns:sodipodi="http://sodipodi.sourceforge.net/DTD/sodipodi-0.dtd"
   xmlns:inkscape="http://www.inkscape.org/namespaces/inkscape"
   width="256"
   height="256"
   viewBox="0 0 256 256"
   id="svg29137"
   version="1.1"
   inkscape:version="0.91 r13725"
   sodipodi:docname="48.svg">
  <defs
     id="defs29139" />
  <sodipodi:namedview
     id="base"
     pagecolor="#ffffff"
     bordercolor="#666666"
     borderopacity="1.0"
     inkscape:pageopacity="0.0"
     inkscape:pageshadow="2"
     inkscape:zoom="2.0507812"
     inkscape:cx="128"
     inkscape:cy="126.38668"
     inkscape:document-units="px"
     inkscape:current-layer="layer1"
     showgrid="false"
     units="px"
     inkscape:window-width="1366"
     inkscape:window-height="702"
     inkscape:window-x="0"
     inkscape:window-y="0"
     inkscape:window-maximized="1" />
  <metadata
     id="metadata29142">
    <rdf:RDF>
      <cc:Work
         rdf:about="">
        <dc:format>image/svg+xml</dc:format>
        <dc:type
           rdf:resource="http://purl.org/dc/dcmitype/StillImage" />
        <dc:title></dc:title>
      </cc:Work>
    </rdf:RDF>
  </metadata>
  <g
     inkscape:label="Layer 1"
     inkscape:groupmode="layer"
     id="layer1"
     transform="translate(0,-796.36216)">
    <path
       inkscape:connector-curvature="0"
       id="path20442"
       style="fill:#231f20;fill-opacity:1;fill-rule:evenodd;stroke:none"
       d="m 119.9858,901.271 1.63,0 c -0.016,-3.51 -0.056,-5.96 -0.08,-6.31 l -0.024,-0.1 c -1.14,-11.95 -6.36,-22.56 -14.14,-30.15 -7.610004,-7.45 -17.700004,-11.99 -28.750004,-11.99 -11.83,0 -22.56,5.21 -30.35,13.65 -7.89,8.53 -12.75,20.37 -12.75,33.46 0,2.61 -2.12,4.72 -4.74,4.72 -2.61,0 -4.74,-2.11 -4.74,-4.72 0,-15.55 5.85,-29.63 15.28,-39.86 9.53,-10.34 22.73,-16.73 37.3,-16.73 13.61,0 26.000004,5.56 35.340004,14.69 9.3,9.1 15.57,21.77 16.94,36 l 0.016,0.1504 c 0.056,0.54 0.1,3.34 0.1304,7.19 l 87.42,0 c 6.33,0 11.49,5.18 11.49,11.49296 l 0,81.24197 c 0,6.31997 -5.16,11.47697 -11.49,11.47697 l -98.49,0 c -6.32,0 -11.5,-5.157 -11.5,-11.47697 l 0,-81.24197 c 0,-6.31296 5.18,-11.49296 11.5,-11.49296 l 0,0" />
  </g>
</svg>
