<?xml version="1.0" encoding="UTF-8" standalone="no"?>
<!-- Created with Inkscape (http://www.inkscape.org/) -->

<svg
   xmlns:dc="http://purl.org/dc/elements/1.1/"
   xmlns:cc="http://creativecommons.org/ns#"
   xmlns:rdf="http://www.w3.org/1999/02/22-rdf-syntax-ns#"
   xmlns:svg="http://www.w3.org/2000/svg"
   xmlns="http://www.w3.org/2000/svg"
   xmlns:sodipodi="http://sodipodi.sourceforge.net/DTD/sodipodi-0.dtd"
   xmlns:inkscape="http://www.inkscape.org/namespaces/inkscape"
   width="256"
   height="256"
   viewBox="0 0 256 256"
   id="svg29137"
   version="1.1"
   inkscape:version="0.91 r13725"
   sodipodi:docname="49.svg">
  <defs
     id="defs29139" />
  <sodipodi:namedview
     id="base"
     pagecolor="#ffffff"
     bordercolor="#666666"
     borderopacity="1.0"
     inkscape:pageopacity="0.0"
     inkscape:pageshadow="2"
     inkscape:zoom="2.0507812"
     inkscape:cx="128"
     inkscape:cy="126.38668"
     inkscape:document-units="px"
     inkscape:current-layer="layer1"
     showgrid="false"
     units="px"
     inkscape:window-width="1366"
     inkscape:window-height="702"
     inkscape:window-x="0"
     inkscape:window-y="0"
     inkscape:window-maximized="1" />
  <metadata
     id="metadata29142">
    <rdf:RDF>
      <cc:Work
         rdf:about="">
        <dc:format>image/svg+xml</dc:format>
        <dc:type
           rdf:resource="http://purl.org/dc/dcmitype/StillImage" />
        <dc:title></dc:title>
      </cc:Work>
    </rdf:RDF>
  </metadata>
  <g
     inkscape:label="Layer 1"
     inkscape:groupmode="layer"
     id="layer1"
     transform="translate(0,-796.36216)">
    <path
       inkscape:connector-curvature="0"
       id="path20438"
       style="fill:#231f20;fill-opacity:1;fill-rule:evenodd;stroke:none"
       d="m 128.00002,826.15716 c 54.21998,0 98.19998,43.98 98.19998,98.18696 0,54.23797 -43.98,98.22298 -98.19998,98.22298 -54.220008,0 -98.200008,-43.98501 -98.200008,-98.22298 0,-54.20696 43.98,-98.18696 98.200008,-98.18696 l 0,0 z m 0,62.41 c 9.88,0 18.83999,4 25.30999,10.484 6.48,6.476 10.48999,15.418 10.48999,25.29296 0,9.89408 -4.01,18.84 -10.48999,25.31997 -6.48,6.4771 -15.43,10.5 -25.30999,10.5 -9.88003,0 -18.83,-4.004 -25.31,-10.5 -6.469998,-6.47997 -10.489998,-15.42589 -10.489998,-25.31997 0,-9.87496 4.02,-18.81696 10.489998,-25.29296 6.48,-6.484 15.42998,-10.484 25.31,-10.484 l 0,0 z m 20.9,14.89 c -5.35,-5.35102 -12.74,-8.65998 -20.9,-8.65998 -8.15001,0 -15.55002,3.30896 -20.90001,8.65998 -5.34002,5.34002 -8.650018,12.74202 -8.650018,20.88696 0,8.18304 3.309998,15.54706 8.650018,20.898 5.34998,5.35197 12.75,8.67197 20.90001,8.67197 8.15997,0 15.54999,-3.32 20.9,-8.63997 5.34,-5.38296 8.65,-12.74696 8.65,-20.93 0,-8.14496 -3.31,-15.54696 -8.65,-20.88696 l 0,0 z m -40.93,11.98096 c 2.3,0 4.16,1.86304 4.16,4.17904 0,2.28496 -1.86,4.15298 -4.16,4.15298 -2.29,0 -4.16001,-1.86802 -4.16001,-4.15298 0,-2.316 1.87,-4.17904 4.16001,-4.17904 l 0,0 z m 20.03,-0.52 c 5.10999,0 9.25,4.13304 9.25,9.21904 0,5.10896 -4.14001,9.262 -9.25,9.262 -5.1,0 -9.23,-4.15304 -9.23,-9.262 0,-5.086 4.13,-9.21904 9.23,-9.21904 l 0,0 z m -13.08,23.774 c 2.3,0 4.16,1.87504 4.16,4.16704 0,2.30498 -1.86,4.16098 -4.16,4.16098 -2.3,0 -4.16,-1.856 -4.16,-4.16098 0,-2.292 1.85999,-4.16704 4.16,-4.16704 l 0,0 z m 25.35999,0 c 2.31,0 4.17001,1.87504 4.17001,4.16704 0,2.30498 -1.86,4.16098 -4.17001,4.16098 -2.28999,0 -4.16,-1.856 -4.16,-4.16098 0,-2.292 1.87,-4.16704 4.16,-4.16704 l 0,0 z m 7.75,-23.254 c 2.31,0 4.16001,1.86304 4.16001,4.17904 0,2.28496 -1.85,4.15298 -4.16001,4.15298 -2.29999,0 -4.17,-1.86802 -4.17,-4.15298 0,-2.316 1.87,-4.17904 4.17,-4.17904 l 0,0 z m -20.02999,-14.97296 c 2.29999,0 4.17,1.87496 4.17,4.184 0,2.28496 -1.87,4.14802 -4.17,4.14802 -2.29,0 -4.16001,-1.86306 -4.16001,-4.14802 0,-2.30904 1.87,-4.184 4.16001,-4.184 l 0,0 z m 0,-46.688 c 38.97,0 70.56999,31.61 70.56999,70.56696 0,38.98407 -31.59999,70.57397 -70.56999,70.57397 -38.960008,0 -70.569998,-31.59 -70.569998,-70.57397 0,-38.95696 31.60999,-70.56696 70.569998,-70.56696 l 0,0 z m 0,10.58 c 33.14,0 60,26.86 60,59.98696 0,33.14407 -26.86,60.01897 -60,60.01897 -33.130008,0 -59.999998,-26.8749 -59.999998,-60.01897 0,-33.12694 26.86999,-59.98696 59.999998,-59.98696 l 0,0 z m 0,-21.8 c 45.17,0 81.79999,36.62 81.79999,81.78696 0,45.17607 -36.63,81.81598 -81.79999,81.81598 -45.160008,0 -81.799998,-36.64001 -81.799998,-81.81598 0,-45.16694 36.64,-81.78696 81.799998,-81.78696 l 0,0" />
  </g>
</svg>
