<?xml version="1.0" encoding="UTF-8" standalone="no"?>
<!-- Created with Inkscape (http://www.inkscape.org/) -->

<svg
   xmlns:dc="http://purl.org/dc/elements/1.1/"
   xmlns:cc="http://creativecommons.org/ns#"
   xmlns:rdf="http://www.w3.org/1999/02/22-rdf-syntax-ns#"
   xmlns:svg="http://www.w3.org/2000/svg"
   xmlns="http://www.w3.org/2000/svg"
   xmlns:sodipodi="http://sodipodi.sourceforge.net/DTD/sodipodi-0.dtd"
   xmlns:inkscape="http://www.inkscape.org/namespaces/inkscape"
   width="256"
   height="256"
   viewBox="0 0 256 256"
   id="svg29137"
   version="1.1"
   inkscape:version="0.91 r13725"
   sodipodi:docname="51.svg">
  <defs
     id="defs29139" />
  <sodipodi:namedview
     id="base"
     pagecolor="#ffffff"
     bordercolor="#666666"
     borderopacity="1.0"
     inkscape:pageopacity="0.0"
     inkscape:pageshadow="2"
     inkscape:zoom="2.0507812"
     inkscape:cx="128"
     inkscape:cy="126.38668"
     inkscape:document-units="px"
     inkscape:current-layer="layer1"
     showgrid="false"
     units="px"
     inkscape:window-width="1366"
     inkscape:window-height="702"
     inkscape:window-x="0"
     inkscape:window-y="0"
     inkscape:window-maximized="1" />
  <metadata
     id="metadata29142">
    <rdf:RDF>
      <cc:Work
         rdf:about="">
        <dc:format>image/svg+xml</dc:format>
        <dc:type
           rdf:resource="http://purl.org/dc/dcmitype/StillImage" />
        <dc:title></dc:title>
      </cc:Work>
    </rdf:RDF>
  </metadata>
  <g
     inkscape:label="Layer 1"
     inkscape:groupmode="layer"
     id="layer1"
     transform="translate(0,-796.36216)">
    <path
       inkscape:connector-curvature="0"
       id="path20398"
       style="fill:#231f20;fill-opacity:1;fill-rule:evenodd;stroke:none"
       d="m 98.455343,866.52742 c 2.579997,-9.394 5.499997,-18.41 9.319997,-26.945 3.93,-8.817 8.86,-17.149 15.37,-24.891 3.28,-0.2536 6.42,-0.2536 9.71,0 6.51,7.742 11.43,16.074 15.37,24.891 3.82,8.535 6.74,17.551 9.32,26.945 -19.81,-2.824 -39.29,-2.824 -59.089997,0 l 0,0 z m 62.929997,11.16 -8.35,20.754 c -16.08,-3.203 -34.01,-3.203 -50.08,0 l -8.339997,-20.754 c 21.209997,-9.562 45.549997,-9.562 66.769997,0 l 0,0 z m -6.46,96.649 6.02,21.722 c -14.44,7.50798 -51.47,7.50798 -65.909997,0 l 6.029997,-21.722 c 15.89,4.121 37.96,4.121 53.86,0 l 0,0 z m 2.32,56.83998 4.55,-27.231 c 0.1104,-0.664 0.7496,-1.121 1.43,-1.004 0.6704,0.116 1.13,0.7424 1.01,1.418 l -4.4,26.383 0.26,-0.048 c 8.09,-1.367 13.59,-6.027 13.93,-22.578 0.34,-16.54298 -1.99,-135.53898 -1.99,-135.53898 0,0 -3.69,-44.707 -6.94,-48.672 -4.07,-4.918 -18.1,-7.754 -28.77,-8.894 5.89,7.382 10.44,15.265 14.15,23.554 4.14,9.258 7.23,18.996 9.96,29.141 0.16,0.664 -0.2296,1.336 -0.89,1.523 -0.2,0.048 -0.4096,0.048 -0.6,0 -20.6,-3.23 -41.3,-3.23 -61.899997,0 -0.1896,0.04 -0.4,0.04 -0.5896,0 -0.6704,-0.188 -1.07,-0.859 -0.89,-1.523 2.72,-10.145 5.809997,-19.883 9.949997,-29.141 3.71,-8.289 8.26,-16.172 14.15,-23.554 -10.66,1.14 -24.689997,3.976 -28.759997,8.894 -3.27,3.965 -6.95,48.672 -6.95,48.672 0,0 -2.34,118.996 -1.98,135.53898 0.32,16.551 5.84,21.211 13.92,22.578 l 0.26,0.048 -4.4,-26.383 c -0.1096,-0.676 0.34,-1.301 1.02,-1.418 0.6704,-0.116 1.31,0.34 1.43,1.004 l 4.54,27.231 c 24.129997,4.062 34.369997,4.062 58.499997,0 l 0,0 z m 8.87,-139.01598 1.37,79.434 c 0,0 -6.54,-18.438 -6.87,-23.954 -0.34,-5.519 -1.55,-33.429 -0.86,-37.043 0.68,-3.6208 6.36,-18.437 6.36,-18.437 l 0,0 z m -76.229997,0 -1.39,79.434 c 0,0 6.54,-18.438 6.89,-23.954 0.34,-5.519 1.55,-33.429 0.85,-37.043 -0.68,-3.6208 -6.35,-18.437 -6.35,-18.437 l 0,0" />
    <path
       inkscape:connector-curvature="0"
       id="path20400"
       style="fill:#231f20;fill-opacity:1;fill-rule:evenodd;stroke:none"
       d="m 73.875343,882.32442 c 0,0 -21.870003,20.332 -22.740003,20.688 -0.85,0.3392 -0.85,15.515 -0.5,18.074 0.34,2.609 5.16,4.656 7.05,4.316 1.89,-0.3512 23.410003,-22.215 23.410003,-22.215 0,0 0.52,-11.2108 0.52,-13.6168 0,-2.4182 -7.74,-7.2462 -7.74,-7.2462 l 0,0" />
  </g>
</svg>
