<?xml version="1.0" encoding="UTF-8" standalone="no"?>
<!-- Created with Inkscape (http://www.inkscape.org/) -->

<svg
   xmlns:dc="http://purl.org/dc/elements/1.1/"
   xmlns:cc="http://creativecommons.org/ns#"
   xmlns:rdf="http://www.w3.org/1999/02/22-rdf-syntax-ns#"
   xmlns:svg="http://www.w3.org/2000/svg"
   xmlns="http://www.w3.org/2000/svg"
   xmlns:sodipodi="http://sodipodi.sourceforge.net/DTD/sodipodi-0.dtd"
   xmlns:inkscape="http://www.inkscape.org/namespaces/inkscape"
   width="256"
   height="256"
   viewBox="0 0 256 256"
   id="svg29137"
   version="1.1"
   inkscape:version="0.91 r13725"
   sodipodi:docname="52.svg">
  <defs
     id="defs29139" />
  <sodipodi:namedview
     id="base"
     pagecolor="#ffffff"
     bordercolor="#666666"
     borderopacity="1.0"
     inkscape:pageopacity="0.0"
     inkscape:pageshadow="2"
     inkscape:zoom="2.0507812"
     inkscape:cx="128"
     inkscape:cy="126.38668"
     inkscape:document-units="px"
     inkscape:current-layer="layer1"
     showgrid="false"
     units="px"
     inkscape:window-width="1366"
     inkscape:window-height="702"
     inkscape:window-x="0"
     inkscape:window-y="0"
     inkscape:window-maximized="1" />
  <metadata
     id="metadata29142">
    <rdf:RDF>
      <cc:Work
         rdf:about="">
        <dc:format>image/svg+xml</dc:format>
        <dc:type
           rdf:resource="http://purl.org/dc/dcmitype/StillImage" />
        <dc:title></dc:title>
      </cc:Work>
    </rdf:RDF>
  </metadata>
  <g
     inkscape:label="Layer 1"
     inkscape:groupmode="layer"
     id="layer1"
     transform="translate(0,-796.36216)">
    <path
       inkscape:connector-curvature="0"
       id="path20412"
       style="fill:#231f20;fill-opacity:1;fill-rule:evenodd;stroke:none"
       d="m 98.464266,878.61439 c 2.560014,-9.394 5.489994,-18.41 9.310014,-26.945 3.94,-8.817 8.86,-17.149 15.38,-24.891 3.28,-0.2536 6.42,-0.2536 9.7,0 6.51,7.742 11.44,16.074 15.36998,24.891 3.82002,8.535 6.74,17.551 9.32002,26.945 -19.82002,-2.824 -39.28002,-2.824 -59.080014,0 l 0,0 z m 50.449994,-52.344 c 0.056,0.817 0.80002,1.442 1.64,1.375 0.82,-0.072 1.44,-0.8 1.37,-1.628 l -1.85,-22.219 c -0.072,-0.821 -0.8,-1.446 -1.63,-1.379 -0.82,0.08 -1.45,0.805 -1.39,1.633 l 1.86,22.218 0,0 z m 20.57002,-16.261 c 0.42,-0.7232 0.18,-1.641 -0.5504,-2.059 -0.72,-0.4224 -1.64,-0.176 -2.05002,0.5432 l -9.75,16.8748 c -0.42,0.7336 -0.18,1.652 0.5496,2.063 0.72,0.4368 1.64,0.184 2.06,-0.536 l 9.74,-16.886 0,0 z m -9.08,-5.344 c 0.1704,-0.801 -0.3504,-1.59 -1.17,-1.7578 -0.82002,-0.164 -1.61002,0.356 -1.78002,1.1718 l -4.34,21.203 c -0.1496,0.82 0.3696,1.613 1.18,1.766 0.82,0.168 1.62,-0.36 1.79,-1.172 l 4.32,-21.211 0,0 z m -52.77,21.605 c -0.08,0.817 -0.8,1.442 -1.64,1.375 -0.83,-0.072 -1.45,-0.8 -1.38,-1.628 l 1.84,-22.219 c 0.072,-0.821 0.81,-1.446 1.64,-1.379 0.83,0.08 1.45,0.805 1.38,1.633 l -1.84,22.218 0,0 z m -20.590014,-16.261 c -0.4096,-0.7232 -0.18,-1.641 0.5504,-2.059 0.71998,-0.4224 1.64,-0.176 2.07,0.5432 l 9.74,16.8752 c 0.4096,0.7336 0.1704,1.652 -0.5504,2.0628 -0.72,0.4368 -1.64,0.184 -2.06,-0.536 l -9.75,-16.886 0,0 z m 9.07998,-5.344 c -0.16,-0.801 0.3696,-1.59 1.17002,-1.7578 0.84,-0.164 1.61998,0.356 1.78,1.1718 l 4.340014,21.203 c 0.1704,0.82 -0.36,1.613 -1.17,1.766 -0.81,0.168 -1.61,-0.36 -1.79,-1.172 l -4.330014,-21.211 0,0 z m 65.260034,85.109 -8.34,20.754 c -16.07002,-3.203 -34.01002,-3.203 -50.07002,0 l -8.360014,-20.754 c 21.220014,-9.562 45.560014,-9.562 66.770014,0 l 0,0 z m -6.45,96.649 6.03,21.72201 c -14.45,7.508 -51.47,7.508 -65.910014,0 l 6.030014,-21.72201 c 15.88,4.121 37.95,4.121 53.85,0 l 0,0 z m 2.32,56.84001 4.55,-27.231 c 0.12,-0.664 0.7496,-1.121 1.42,-1.004 0.68,0.116 1.14,0.7424 1.02,1.418 l -4.41,26.383 0.26,-0.048 c 8.1,-1.367 13.6,-6.027 13.94,-22.578 0.3504,-16.543 -1.99,-135.53901 -1.99,-135.53901 0,0 -3.68,-44.707 -6.95,-48.672 -4.07,-4.918 -18.11,-7.754 -28.77,-8.894 5.9,7.382 10.46,15.265 14.16,23.554 4.14,9.258 7.22,18.996 9.95,29.141 0.18,0.664 -0.2104,1.336 -0.88,1.523 -0.2,0.048 -0.4096,0.048 -0.6,0 -20.6,-3.219 -41.3,-3.219 -61.910014,0 -0.18,0.04 -0.3904,0.04 -0.5904,0 -0.6704,-0.188 -1.05,-0.859 -0.88,-1.523 2.73,-10.145 5.820014,-19.883 9.940014,-29.141 3.71,-8.289 8.26,-16.172 14.17,-23.554 -10.67,1.14 -24.700014,3.976 -28.770014,8.894 -3.26,3.965 -6.96,48.672 -6.96,48.672 0,0 -2.33,118.99601 -1.99,135.53901 0.3496,16.551 5.85,21.211 13.95,22.578 l 0.2496,0.048 -4.39,-26.383 c -0.1304,-0.676 0.3296,-1.301 1.01,-1.418 0.68,-0.116 1.31,0.34 1.42,1.004 l 4.55,27.231 c 24.120014,4.062 34.380014,4.062 58.500014,0 l 0,0 z m 8.86,-139.01601 1.39,79.434 c 0,0 -6.54,-18.438 -6.89,-23.954 -0.34,-5.519 -1.55,-33.429 -0.85,-37.043 0.68,-3.6208 6.35,-18.437 6.35,-18.437 l 0,0 z m -76.230014,0 -1.38,79.434 c 0,0 6.55,-18.438 6.89,-23.954 0.34,-5.519 1.55,-33.429 0.86,-37.043 -0.68,-3.6208 -6.37,-18.437 -6.37,-18.437 l 0,0" />
  </g>
</svg>
