<?xml version="1.0" encoding="UTF-8" standalone="no"?>
<!-- Created with Inkscape (http://www.inkscape.org/) -->

<svg
   xmlns:dc="http://purl.org/dc/elements/1.1/"
   xmlns:cc="http://creativecommons.org/ns#"
   xmlns:rdf="http://www.w3.org/1999/02/22-rdf-syntax-ns#"
   xmlns:svg="http://www.w3.org/2000/svg"
   xmlns="http://www.w3.org/2000/svg"
   xmlns:sodipodi="http://sodipodi.sourceforge.net/DTD/sodipodi-0.dtd"
   xmlns:inkscape="http://www.inkscape.org/namespaces/inkscape"
   width="256"
   height="256"
   viewBox="0 0 256 256"
   id="svg29137"
   version="1.1"
   inkscape:version="0.91 r13725"
   sodipodi:docname="53.svg">
  <defs
     id="defs29139" />
  <sodipodi:namedview
     id="base"
     pagecolor="#ffffff"
     bordercolor="#666666"
     borderopacity="1.0"
     inkscape:pageopacity="0.0"
     inkscape:pageshadow="2"
     inkscape:zoom="2.0507812"
     inkscape:cx="128"
     inkscape:cy="126.38668"
     inkscape:document-units="px"
     inkscape:current-layer="layer1"
     showgrid="false"
     units="px"
     inkscape:window-width="1366"
     inkscape:window-height="702"
     inkscape:window-x="0"
     inkscape:window-y="0"
     inkscape:window-maximized="1" />
  <metadata
     id="metadata29142">
    <rdf:RDF>
      <cc:Work
         rdf:about="">
        <dc:format>image/svg+xml</dc:format>
        <dc:type
           rdf:resource="http://purl.org/dc/dcmitype/StillImage" />
        <dc:title></dc:title>
      </cc:Work>
    </rdf:RDF>
  </metadata>
  <g
     inkscape:label="Layer 1"
     inkscape:groupmode="layer"
     id="layer1"
     transform="translate(0,-796.36216)">
    <path
       inkscape:connector-curvature="0"
       id="path20414"
       style="fill:#231f20;fill-opacity:1;fill-rule:evenodd;stroke:none"
       d="m 202.43802,950.07421 c 0,0 17.69998,-2.196 20.51998,-4.094 2.83,-1.8828 4.5,-4.762 4.5,-4.762 l 0.58,-8.019 c 0,0 -2.4,-2.883 -2.4,-5.653 0,-2.785 -1.98998,-9.652 -3.1,-11.859 -1.09998,-2.195 -6.84998,-2.461 -11,-2.723 -4.13998,-0.2608 -6.54,-0.2608 -6.54,-0.2608 0,0 -21.52,-9.688 -31.78,-11.8868 -10.26,-2.1952 -23.26,-3.984 -33.93,-3.3592 -10.67998,0.644 -22.09998,1.2692 -32.26,4.726 -10.150003,3.4572 -26.650003,13.8752 -26.650003,13.8752 0,0 -18.33,1.887 -24.45,2.992 -6.13,1.102 -24.61,4.453 -28.91,7.754 -4.29,3.2968 -4.5,8.856 -4.69998,11.3668 -0.2104,2.508 0.1,8.0752 0.2,8.9732 0.1104,0.8788 3.25,2.7268 9.43,3.094 6.19,0.3632 9.95,1.2608 9.95,1.2608 0,0 -1.21,-12.636 3.46,-16.73 4.66,-4.09 11.1,-7.8008 18.9,-5.1448 7.79,2.684 11.52,10.9688 11.63,14.836 0.1,3.8868 0.7696,7.2468 0.7696,7.2468 l 90.490003,-0.7928 c -0.88,-11.27 5.6,-20.196 16.77,-21.415 14.32,0.4112 17.51,9.149 18.52,20.575 l 0,0 z m 5.05998,-39.668 c -0.56958,1.035 -1.86,1.406 -2.9,0.851 -1.04,-0.5704 -1.40998,-1.875 -0.85,-2.91 0.032,-0.048 10.24,-18.644 12.26002,-20.676 2.89,-2.89 12.05,1.563 16.52,3.719 0.0896,0.04 0.1904,0.09 0.28,0.168 0.86,0.5776 1.2,1.719 0.74,2.6952 -0.46,0.9378 -1.53002,1.4068 -2.51002,1.1248 l -0.04,0 c -0.12,-0.04 -0.21998,-0.088 -0.3296,-0.128 -3.57,-1.7458 -10.9,-5.2808 -11.63,-4.562 -1.6,1.6052 -11.51,19.668 -11.54,19.7192 l 0,0 z m -22.34,21.437 c -8.32,0 -15.07,6.746 -15.07,15.086 0,8.332 6.75,15.07 15.07,15.07 8.33,0 15.1,-6.738 15.1,-15.07 0,-8.34 -6.77,-15.086 -15.1,-15.086 l 0,0 z m 0,3.133 c -6.58,0 -11.94,5.352 -11.94,11.953 0,6.582 5.36,11.934 11.94,11.934 6.59,0 11.93,-5.352 11.93,-11.934 0,-6.601 -5.34,-11.953 -11.93,-11.953 l 0,0 z m -126.410003,-4.812 c -8.32,0 -15.05998,6.757 -15.05998,15.085 0,8.333 6.73998,15.079 15.05998,15.079 8.34002,0 15.09002,-6.746 15.09002,-15.079 0,-8.328 -6.75,-15.085 -15.09002,-15.085 l 0,0 z m 0,3.152 c -6.57998,0 -11.92,5.344 -11.92,11.933 0,6.594 5.34002,11.942 11.92,11.942 6.6,0 11.94002,-5.348 11.94002,-11.942 0,-6.589 -5.34002,-11.933 -11.94002,-11.933 l 0,0 z M 194.678,914.76121 c 0,0 -0.1,-1.054 -10.89,-5.762 -4.48998,-1.984 -9.58,-3.953 -15.42,-5.574 l 6.79,11.969 19.52,-0.6328 0,0 z m -28.71,-11.961 c -7.63,-1.914 -16.52,-3.136 -27,-2.922 -0.4704,0 -0.94,0 -1.41,0.04 l -3.17998,16.79 38.79,-1.25 -7.2,-12.6568 0,0 z m -32.05,-2.726 c -17.36,1.008 -30.41,5.2152 -38.940003,10.39 -9.3,5.664 -10.25,7.864 -10.25,7.864 l 46.010003,-1.496 3.18,-16.758 0,0 z m -94.430003,26.98 -3.56,5.461 -10.64,0.5776 c 0,0 1.42,-3.351 2.79,-4.765 1.36002,-1.418 2.99,-1.6328 6.17,-1.7308 3.2,-0.108 5.19002,0.4568 5.24,0.4568 l 0,0" />
  </g>
</svg>
