<?xml version="1.0" encoding="UTF-8" standalone="no"?>
<!-- Created with Inkscape (http://www.inkscape.org/) -->

<svg
   xmlns:dc="http://purl.org/dc/elements/1.1/"
   xmlns:cc="http://creativecommons.org/ns#"
   xmlns:rdf="http://www.w3.org/1999/02/22-rdf-syntax-ns#"
   xmlns:svg="http://www.w3.org/2000/svg"
   xmlns="http://www.w3.org/2000/svg"
   xmlns:sodipodi="http://sodipodi.sourceforge.net/DTD/sodipodi-0.dtd"
   xmlns:inkscape="http://www.inkscape.org/namespaces/inkscape"
   width="256"
   height="256"
   viewBox="0 0 256 256"
   id="svg29137"
   version="1.1"
   inkscape:version="0.91 r13725"
   sodipodi:docname="55.svg">
  <defs
     id="defs29139" />
  <sodipodi:namedview
     id="base"
     pagecolor="#ffffff"
     bordercolor="#666666"
     borderopacity="1.0"
     inkscape:pageopacity="0.0"
     inkscape:pageshadow="2"
     inkscape:zoom="2.0507812"
     inkscape:cx="128"
     inkscape:cy="126.38668"
     inkscape:document-units="px"
     inkscape:current-layer="layer1"
     showgrid="false"
     units="px"
     inkscape:window-width="1366"
     inkscape:window-height="702"
     inkscape:window-x="0"
     inkscape:window-y="0"
     inkscape:window-maximized="1" />
  <metadata
     id="metadata29142">
    <rdf:RDF>
      <cc:Work
         rdf:about="">
        <dc:format>image/svg+xml</dc:format>
        <dc:type
           rdf:resource="http://purl.org/dc/dcmitype/StillImage" />
        <dc:title></dc:title>
      </cc:Work>
    </rdf:RDF>
  </metadata>
  <g
     inkscape:label="Layer 1"
     inkscape:groupmode="layer"
     id="layer1"
     transform="translate(0,-796.36216)">
    <path
       inkscape:connector-curvature="0"
       id="path20418"
       style="fill:#231f20;fill-opacity:1;fill-rule:evenodd;stroke:none"
       d="m 82.150001,878.92617 c 2.31,-0.324 4.6,-0.516 6.85,-0.5856 l -0.99,9.063 c -1.02,0.04 -2.07,0.128 -3.12,0.2728 -3.07,0.4408 -5.81,1.25 -8.04,2.324 l -12.28,-5.7028 c 4.74,-2.5192 10.77,-4.4332 17.58,-5.3712 l 0,0 z m -8.85,-29.187 109.400009,0 c 13.61,0 24.73,11.14 24.73,24.746 l 0,13.316 c 0,-13.609 -11.12,-24.734 -24.73,-24.734 l -109.400009,0 c -13.6,0 -24.73,11.125 -24.73,24.734 l 0,-13.316 c 0,-13.606 11.13,-24.746 24.73,-24.746 l 0,0 z m 89.760009,29.187 c 2.31,-0.324 4.61,-0.516 6.86,-0.5856 l -1,9.063 c -1.02,0.04 -2.07,0.128 -3.12,0.2728 -3.07,0.4408 -5.82,1.25 -8.05,2.324 l -12.28,-5.7028 c 4.75,-2.5192 10.76,-4.4332 17.59,-5.3712 l 0,0 z m -80.910009,56.336 c 2.31,-0.32 4.6,-0.508 6.85,-0.5864 l -0.99,9.055 c -1.02,0.048 -2.07,0.148 -3.12,0.2808 -3.07,0.4344 -5.81,1.2622 -8.04,2.348 l -12.28,-5.7268 c 4.74,-2.508 10.77,-4.422 17.58,-5.3712 l 0,0 z m 80.910009,0 c 2.31,-0.32 4.61,-0.508 6.86,-0.5864 l -1,9.055 c -1.02,0.048 -2.07,0.148 -3.12,0.2808 -3.07,0.4344 -5.82,1.2622 -8.05,2.348 l -12.28,-5.7268 c 4.75,-2.508 10.76,-4.422 17.59,-5.3712 l 0,0 z m -89.760009,63.723 109.400009,0 c 13.61,0 24.73,-11.1328 24.73,-24.746 l 0,-13.321 c 0,13.613 -11.12,24.7382 -24.73,24.7382 l -109.400009,0 c -13.6,0 -24.73,-11.1252 -24.73,-24.7382 l 0,13.321 c 0,13.6132 11.13,24.746 24.73,24.746 l 0,0 z m 94.330009,-49.071 c 2.82,-0.3832 5.45,0.4768 5.91,1.903 0.44,1.445 -1.47,2.922 -4.28,3.312 -2.81,0.3872 -5.45,-0.4608 -5.9,-1.887 -0.4504,-1.445 1.47,-2.918 4.27,-3.328 l 0,0 z m 5.44,-15.2538 c 11.6,0.184 21.69,3.536 26.5,8.8558 l -16.74,3.672 c -2.38,-1.903 -6.28,-3.145 -10.76,-3.418 l 1,-9.1098 0,0 z m 28.49,11.746 c 0.2304,0.4688 0.44,0.9768 0.5904,1.4648 1.36,4.3832 -0.58,8.84 -4.89,12.59 l -14.99,-3.703 c 2.39,-1.922 3.5,-4.25 2.79,-6.523 -0.016,-0.064 -0.04,-0.136 -0.056,-0.196 l 16.56,-3.6328 0,0 z m -7.36,16.3788 c -5.06,3.3172 -12.13,5.879 -20.36,7 -2.94,0.4112 -5.83,0.6176 -8.65,0.6248 l 1.28,-9.062 c 1.5,0 3.06,-0.098 4.63,-0.3008 2.85,-0.4136 5.4,-1.144 7.54,-2.1008 l 15.56,3.8388 0,0 z m -32.18,7.555 c -11.63,-0.516 -21.49,-4.254 -25.63,-9.9298 l 16.54,-3.6442 c 1.93,2.285 5.77,3.859 10.37,4.387 l -1.28,9.187 0,0 z m -27.2,-12.918 c -0.016,-0.086 -0.048,-0.156 -0.072,-0.2464 -1.64,-5.242 1.47,-10.5738 7.71,-14.7458 l 12.34,5.7338 c -2.12,1.641 -3.29,3.594 -3.15,5.567 l -16.83,3.691 0,0 z m -48.100009,-7.508 c 2.82,-0.3832 5.45,0.4768 5.9,1.903 0.46,1.445 -1.45,2.922 -4.26,3.312 -2.82,0.3872 -5.45,-0.4608 -5.89,-1.887 -0.46,-1.445 1.45,-2.918 4.25,-3.328 l 0,0 z m 5.45,-15.2538 c 11.600009,0.184 21.680009,3.536 26.510009,8.8558 l -16.76,3.672 c -2.370009,-1.903 -6.280009,-3.145 -10.750009,-3.418 l 1,-9.1098 0,0 z m 28.480009,11.746 c 0.2304,0.4688 0.4296,0.9768 0.6,1.4648 1.36,4.3832 -0.58,8.84 -4.89,12.59 l -15,-3.703 c 2.39,-1.922 3.5,-4.25 2.79,-6.523 -0.016,-0.064 -0.04,-0.136 -0.056,-0.196 l 16.56,-3.6328 0,0 z m -7.36,16.3788 c -5.06,3.3172 -12.13,5.879 -20.360009,7 -2.93,0.4112 -5.82,0.6176 -8.64,0.6248 l 1.28,-9.062 c 1.5,0 3.05,-0.098 4.62,-0.3008 2.85,-0.4136 5.41,-1.144 7.55,-2.1008 l 15.550009,3.8388 0,0 z m -32.170009,7.555 c -11.64,-0.516 -21.49,-4.254 -25.63,-9.9298 l 16.54,-3.6442 c 1.92,2.285 5.75,3.859 10.37,4.387 l -1.28,9.187 0,0 z m -27.2,-12.918 c -0.016,-0.086 -0.048,-0.156 -0.08,-0.2464 -1.64,-5.242 1.48,-10.5738 7.71,-14.7458 l 12.34,5.7338 c -2.11,1.641 -3.29,3.594 -3.16,5.567 l -16.81,3.691 0,0 z m 113.710009,-63.836 c 2.82,-0.3896 5.45,0.4648 5.91,1.914 0.44,1.422 -1.47,2.9102 -4.28,3.297 -2.81,0.3832 -5.45,-0.476 -5.9,-1.914 -0.4504,-1.422 1.47,-2.91 4.27,-3.297 l 0,0 z m 5.44,-15.277 c 11.6,0.196 21.69,3.558 26.5,8.879 l -16.74,3.6602 c -2.38,-1.902 -6.28,-3.1412 -10.76,-3.418 l 1,-9.1212 0,0 z m 28.49,11.75 c 0.2304,0.488 0.44,0.969 0.5904,1.484 1.36,4.375 -0.58,8.8092 -4.89,12.586 l -14.99,-3.707 c 2.39,-1.9178 3.5,-4.2418 2.79,-6.535 -0.016,-0.056 -0.04,-0.116 -0.056,-0.196 l 16.56,-3.6328 0,0 z m -7.36,16.3872 c -5.06,3.3318 -12.13,5.8588 -20.36,7.0108 -2.94,0.4032 -5.83,0.5944 -8.65,0.6056 l 1.28,-9.063 c 1.5,0 3.06,-0.086 4.63,-0.3008 2.85,-0.3936 5.4,-1.113 7.54,-2.089 l 15.56,3.836 0,0 z m -32.18,7.5658 c -11.63,-0.5232 -21.49,-4.273 -25.63,-9.961 l 16.54,-3.621 c 1.93,2.277 5.77,3.867 10.37,4.394 l -1.28,9.188 0,0 z m -27.2,-12.926 c -0.016,-0.082 -0.048,-0.168 -0.072,-0.2464 -1.64,-5.254 1.47,-10.5858 7.71,-14.746 l 12.34,5.734 c -2.12,1.649 -3.29,3.594 -3.15,5.575 l -16.83,3.683 0,0 z m -48.100009,-7.5 c 2.82,-0.3904 5.45,0.4648 5.9,1.914 0.46,1.422 -1.45,2.9102 -4.26,3.297 -2.82,0.3832 -5.45,-0.476 -5.89,-1.914 -0.46,-1.422 1.45,-2.91 4.25,-3.297 l 0,0 z m 5.45,-15.277 c 11.600009,0.196 21.680009,3.558 26.510009,8.879 l -16.76,3.66 c -2.370009,-1.9018 -6.280009,-3.141 -10.750009,-3.418 l 1,-9.121 0,0 z m 28.480009,11.75 c 0.2304,0.488 0.4296,0.969 0.6,1.484 1.36,4.375 -0.58,8.809 -4.89,12.586 l -15,-3.707 c 2.39,-1.918 3.5,-4.242 2.79,-6.535 -0.016,-0.056 -0.04,-0.116 -0.056,-0.196 l 16.56,-3.6328 0,0 z m -7.36,16.387 c -5.06,3.332 -12.13,5.859 -20.360009,7.011 -2.93,0.4032 -5.82,0.5944 -8.64,0.6056 l 1.28,-9.063 c 1.5,0 3.05,-0.086 4.62,-0.3008 2.85,-0.3936 5.41,-1.113 7.55,-2.089 l 15.550009,3.836 0,0 z m -32.170009,7.566 c -11.64,-0.5232 -21.49,-4.273 -25.63,-9.961 l 16.54,-3.621 c 1.92,2.277 5.75,3.867 10.37,4.394 l -1.28,9.188 0,0 z m -27.2,-12.926 c -0.016,-0.082 -0.048,-0.168 -0.08,-0.2464 -1.64,-5.254 1.48,-10.586 7.71,-14.746 l 12.34,5.734 c -2.11,1.649 -3.29,3.594 -3.16,5.575 l -16.81,3.683 0,0" />
  </g>
</svg>
