<?xml version="1.0" encoding="UTF-8" standalone="no"?>
<!-- Created with Inkscape (http://www.inkscape.org/) -->

<svg
   xmlns:dc="http://purl.org/dc/elements/1.1/"
   xmlns:cc="http://creativecommons.org/ns#"
   xmlns:rdf="http://www.w3.org/1999/02/22-rdf-syntax-ns#"
   xmlns:svg="http://www.w3.org/2000/svg"
   xmlns="http://www.w3.org/2000/svg"
   xmlns:sodipodi="http://sodipodi.sourceforge.net/DTD/sodipodi-0.dtd"
   xmlns:inkscape="http://www.inkscape.org/namespaces/inkscape"
   width="256"
   height="256"
   viewBox="0 0 256 256"
   id="svg29137"
   version="1.1"
   inkscape:version="0.92.3 (2405546, 2018-03-11)"
   sodipodi:docname="abs-1.svg">
  <defs
     id="defs29139" />
  <sodipodi:namedview
     id="base"
     pagecolor="#ffffff"
     bordercolor="#666666"
     borderopacity="1.0"
     inkscape:pageopacity="0.0"
     inkscape:pageshadow="2"
     inkscape:zoom="1.4501213"
     inkscape:cx="29.971359"
     inkscape:cy="100.63192"
     inkscape:document-units="px"
     inkscape:current-layer="layer1"
     showgrid="false"
     units="px"
     inkscape:window-width="2560"
     inkscape:window-height="1387"
     inkscape:window-x="0"
     inkscape:window-y="0"
     inkscape:window-maximized="1" />
  <metadata
     id="metadata29142">
    <rdf:RDF>
      <cc:Work
         rdf:about="">
        <dc:format>image/svg+xml</dc:format>
        <dc:type
           rdf:resource="http://purl.org/dc/dcmitype/StillImage" />
        <dc:title />
      </cc:Work>
    </rdf:RDF>
  </metadata>
  <g
     inkscape:label="Layer 1"
     inkscape:groupmode="layer"
     id="layer1"
     transform="translate(0,-796.36216)">
    <path
       inkscape:connector-curvature="0"
       id="path16186"
       style="fill:#00c0c0;fill-opacity:1;fill-rule:nonzero;stroke:none"
       d="m 128.01043,844.34845 c 21.93,0 41.7904,8.89 56.1704,23.27 14.3896,14.38 23.28,34.24 23.28,56.18 0,21.94 -8.8904,41.8 -23.28,56.18 -14.38,14.38 -34.24,23.27005 -56.1704,23.27005 -21.9404,0 -41.800002,-8.89005 -56.180402,-23.27005 -14.3796,-14.38 -23.28,-34.24 -23.28,-56.18 0,-21.94 8.9,-41.8 23.28,-56.18 14.38,-14.38 34.240002,-23.27 56.180402,-23.27 l 0,0 z m 46.0504,5.52 c -1.9704,-1.23 -2.58,-3.84 -1.3504,-5.82 1.2304,-1.99 3.8304,-2.59 5.82,-1.36 13.7504,8.59 25.1704,20.59 33.06,34.81 7.6304,13.74 11.9596,29.52 11.9596,46.3 0,17.4 -4.6496,33.73 -12.8096,47.81 -8.42,14.55 -20.5904,26.67 -35.18,35.07005 -2.0304,1.16 -4.6,0.46 -5.76,-1.56 -1.1504,-2.02 -0.472,-4.6 1.5496,-5.75005 13.3,-7.64 24.3904,-18.71 32.0904,-32 7.4,-12.81 11.66,-27.68 11.66,-43.57 0,-15.32 -3.9504,-29.72 -10.88,-42.2 -7.2,-12.96 -17.6104,-23.9 -30.16,-31.73 l 0,0 z m -91.230802,148.42 c 1.9908,1.21 2.6304,3.80005 1.4304,5.79005 -1.2104,1.99 -3.8,2.63 -5.78,1.43 -14.0704,-8.54005 -25.7304,-20.59005 -33.8,-34.91005 -7.7904,-13.84 -12.2304,-29.8 -12.2304,-46.8 0,-16.99 4.44,-32.96 12.2304,-46.8 8.07,-14.32 19.7296,-26.36 33.8,-34.9 1.98,-1.21 4.5696,-0.5704 5.78,1.41 1.2,2 0.56,4.59 -1.4304,5.8 -12.7692,7.76 -23.42,18.74 -30.7692,31.83 -7.1004,12.6 -11.14,27.16 -11.14,42.66 0,15.5 4.04,30.06 11.14,42.67 7.3492,13.08 18,24.05 30.7692,31.82 l 0,0 z m 93.860402,-123.19 c -12.4496,-12.46 -29.68,-20.17 -48.68,-20.17 -19.0204,0 -36.240002,7.71 -48.689602,20.17 -12.4908,12.46 -20.1904,29.68 -20.1904,48.7 0,19.02 7.7,36.24 20.1904,48.7 12.4496,12.46 29.669202,20.17 48.689602,20.17 19,0 36.2304,-7.71 48.68,-20.17 12.48,-12.46 20.18,-29.68 20.18,-48.7 0,-19.02 -7.7,-36.24 -20.18,-48.7 l 0,0" />
    <path
       inkscape:connector-curvature="0"
       id="path16188"
       style="fill:#00c0c0;fill-opacity:1;fill-rule:nonzero;stroke:none"
       d="m 81.987228,895.96193 -15.86,56.8 10.54,0 2.66,-10.62 15.3704,0 2.720003,10.62 10.589599,0 -15.910002,-56.8 -10.1104,0 0,0 z m -0.488,36.52 5.58,-21.67 5.44,21.67 -11.02,0 0,0 z m 30.440002,-36.52 0,56.8 20.1496,0 c 1.52,0.032 3.0504,-0.0896 4.5904,-0.32 1.5296,-0.26 3,-0.68 4.3896,-1.32 1.3904,-0.64 2.6104,-1.54 3.6904,-2.73 1.1096,-1.2 1.9696,-2.73 2.58,-4.6 0.632,-1.9 0.9496,-4.19 0.96,-6.93 0,-2.09 -0.216,-3.9 -0.632,-5.45 -0.392,-1.54 -0.92,-2.86 -1.6,-3.92 -0.664,-1.08 -1.3896,-1.98 -2.1896,-2.67 -0.8,-0.7 -1.6,-1.25 -2.4,-1.63 -0.8,-0.3904 -1.5304,-0.68 -2.2,-0.86 l 0,-0.0904 c 1.36,-0.5696 2.5696,-1.39 3.6096,-2.39 1.0504,-1.02 1.8504,-2.3 2.46,-3.85 0.592,-1.56 0.8904,-3.42 0.9,-5.6 0,-1.23 -0.096,-2.54 -0.288,-3.87 -0.216,-1.33 -0.592,-2.63 -1.1304,-3.88 -0.52,-1.26 -1.2996,-2.38 -2.2696,-3.39 -0.9904,-1.01 -2.2396,-1.8 -3.76,-2.4 -1.54,-0.5904 -3.4104,-0.88 -5.6304,-0.9 l -21.2296,0 0,0 z m 9.98,11.04 8.78,0 c 1.1,0.008 1.9896,0.18 2.7,0.52 0.704,0.3496 1.2696,0.7896 1.64,1.35 0.4,0.56 0.672,1.16 0.82,1.78 0.152,0.6496 0.232,1.27 0.216,1.86 0,0.5504 -0.08,1.18 -0.2,1.84 -0.16,0.6704 -0.424,1.29 -0.776,1.92 -0.368,0.5904 -0.8704,1.08 -1.5304,1.47 -0.632,0.4 -1.4496,0.6104 -2.46,0.6104 l -9.1896,0 0,-11.35 z m 0,21.83 9.0696,0 c 1.2504,-0.032 2.36,0.1504 3.38,0.48 1.02,0.36 1.84,1 2.46,1.94 0.608,0.94 0.9304,2.29 0.94,4.07 0,1.29 -0.216,2.35 -0.608,3.19 -0.392,0.84 -0.8904,1.49 -1.48,1.96 -0.592,0.4704 -1.1904,0.81 -1.8,0.99 -0.616,0.1904 -1.1704,0.2696 -1.6,0.2696 l -10.36,0 0,-12.9 z m 31.5896,5.51 c 0,1.27 0.104,2.64 0.304,4.12 0.2,1.46 0.536,2.93 1.04,4.43 0.48,1.5 1.18,2.94 2.06,4.3 0.8704,1.37 1.98,2.6 3.34,3.68 1.3504,1.09 2.9904,1.94 4.92,2.55 1.94,0.64 4.2,0.96 6.7904,0.97 2.8,-0.008 5.22,-0.38 7.2096,-1.08 1.9904,-0.7 3.6504,-1.64 4.9504,-2.79 1.3296,-1.16 2.36,-2.45 3.14,-3.85 0.776,-1.4 1.3496,-2.82 1.7296,-4.23 0.376,-1.42 0.608,-2.73 0.728,-3.96 0.104,-1.21 0.152,-2.21 0.152,-3 0,-2.47 -0.296,-4.59 -0.8496,-6.38 -0.56,-1.8 -1.3504,-3.32 -2.3704,-4.56 -1.0096,-1.24 -2.2096,-2.3 -3.5696,-3.12 -1.36,-0.83 -2.8704,-1.53 -4.5,-2.12 -1.6104,-0.5696 -3.3304,-1.07 -5.1,-1.51 -0.9304,-0.2304 -1.88,-0.5 -2.84,-0.81 -0.96,-0.3 -1.8704,-0.6904 -2.7004,-1.19 -0.8304,-0.4904 -1.5,-1.15 -2.02,-1.94 -0.52,-0.8 -0.7916,-1.81 -0.7996,-3.04 0,-0.96 0.176,-1.86 0.6,-2.68 0.392,-0.81 1.08,-1.48 2.04,-1.99 0.9496,-0.5 2.26,-0.7496 3.8896,-0.7696 1.7904,0.016 3.1904,0.3296 4.24,0.91 1.02,0.5904 1.78,1.36 2.2304,2.28 0.456,0.94 0.736,1.92 0.8,2.97 l 9.44,0 c 0,-1.65 -0.224,-3.32 -0.608,-4.95 -0.368,-1.66 -0.9496,-3.21 -1.74,-4.67 -0.776,-1.47 -1.8,-2.78 -3.0496,-3.9 -1.26,-1.14 -2.7704,-2.03 -4.5304,-2.69 -1.78,-0.6496 -3.84,-0.97 -6.1696,-0.99 -3.1904,0.016 -5.8704,0.46 -8.1,1.34 -2.22,0.86 -4.0104,2.08 -5.36,3.63 -1.3704,1.54 -2.36,3.31 -2.9904,5.34 -0.624,2.01 -0.92,4.19 -0.92,6.49 0,2.53 0.264,4.67 0.728,6.47 0.4716,1.79 1.1496,3.3 2,4.52 0.8696,1.22 1.8796,2.23 3.04,3.03 1.1696,0.81 2.44,1.49 3.84,2.03 1.38,0.5504 2.84,1.04 4.38,1.49 1.2896,0.36 2.58,0.7496 3.8496,1.15 1.26,0.4104 2.4104,0.93 3.44,1.53 1.06,0.62 1.8904,1.41 2.51,2.39 0.64,0.99 0.9496,2.24 0.96,3.77 0,1.23 -0.232,2.23 -0.656,3 -0.408,0.78 -0.9904,1.36 -1.7,1.78 -0.744,0.4096 -1.54,0.6904 -2.44,0.85 -0.9,0.14 -1.8104,0.2304 -2.76,0.2104 -1.78,0 -3.22,-0.32 -4.3504,-0.91 -1.1096,-0.5904 -1.9896,-1.36 -2.5896,-2.28 -0.6,-0.93 -1.0304,-1.91 -1.24,-2.93 -0.216,-1.03 -0.328,-1.99 -0.296,-2.89 l -10.0904,0 0,0" />
  </g>
</svg>
