<?xml version="1.0" encoding="UTF-8" standalone="no"?>
<!-- Created with Inkscape (http://www.inkscape.org/) -->

<svg
   xmlns:dc="http://purl.org/dc/elements/1.1/"
   xmlns:cc="http://creativecommons.org/ns#"
   xmlns:rdf="http://www.w3.org/1999/02/22-rdf-syntax-ns#"
   xmlns:svg="http://www.w3.org/2000/svg"
   xmlns="http://www.w3.org/2000/svg"
   xmlns:sodipodi="http://sodipodi.sourceforge.net/DTD/sodipodi-0.dtd"
   xmlns:inkscape="http://www.inkscape.org/namespaces/inkscape"
   width="256"
   height="256"
   viewBox="0 0 256 256"
   id="svg29137"
   version="1.1"
   inkscape:version="0.92.3 (2405546, 2018-03-11)"
   sodipodi:docname="air-temp.svg">
  <defs
     id="defs29139" />
  <sodipodi:namedview
     id="base"
     pagecolor="#ffffff"
     bordercolor="#666666"
     borderopacity="1.0"
     inkscape:pageopacity="0.0"
     inkscape:pageshadow="2"
     inkscape:zoom="2.8"
     inkscape:cx="201.99401"
     inkscape:cy="96.551408"
     inkscape:document-units="px"
     inkscape:current-layer="layer1"
     showgrid="false"
     units="px"
     inkscape:window-width="2560"
     inkscape:window-height="1387"
     inkscape:window-x="0"
     inkscape:window-y="0"
     inkscape:window-maximized="1"
     inkscape:pagecheckerboard="true" />
  <metadata
     id="metadata29142">
    <rdf:RDF>
      <cc:Work
         rdf:about="">
        <dc:format>image/svg+xml</dc:format>
        <dc:type
           rdf:resource="http://purl.org/dc/dcmitype/StillImage" />
        <dc:title />
      </cc:Work>
    </rdf:RDF>
  </metadata>
  <g
     inkscape:label="Layer 1"
     inkscape:groupmode="layer"
     id="layer1"
     transform="translate(0,-796.36216)">
    <path
       inkscape:connector-curvature="0"
       id="path20376"
       style="fill:#00ffff;fill-opacity:1;fill-rule:evenodd;stroke:none;stroke-width:1.25989449"
       d="m 123.9165,881.2381 h 30.86742 c 1.36068,0 2.46939,1.09608 2.46939,2.45676 0,1.34809 -1.10871,2.4568 -2.46939,2.4568 H 123.9165 v 16.34083 h 30.86742 c 1.36068,0 2.46939,1.10873 2.46939,2.45679 0,1.36069 -1.10871,2.4442 -2.46939,2.4442 H 123.9165 v 41.72771 c 53.46058,53.97321 -63.542686,54.54321 -9.8403,0.30388 V 841.28833 c 0,-2.69618 2.20481,-4.88839 4.91359,-4.88839 2.72137,0 4.92618,2.19221 4.92618,4.88839 v 18.69683 h 30.86742 c 1.36068,0 2.46939,1.09611 2.46939,2.4442 0,1.37328 -1.10871,2.46939 -2.46939,2.46939 h -30.86742 v 16.34083 z"
       sodipodi:nodetypes="csssccssscccssscsssccc" />
    <circle
       style="fill:#00ffff;fill-opacity:1;stroke:#00ffff;stroke-width:6.90266752;stroke-miterlimit:4;stroke-dasharray:none;stroke-opacity:1"
       id="path5331"
       cx="118.29598"
       cy="971.73224"
       r="20.498434" />
  </g>
</svg>
