<?xml version="1.0" encoding="UTF-8" standalone="no"?>
<!-- Created with Inkscape (http://www.inkscape.org/) -->

<svg
   xmlns:dc="http://purl.org/dc/elements/1.1/"
   xmlns:cc="http://creativecommons.org/ns#"
   xmlns:rdf="http://www.w3.org/1999/02/22-rdf-syntax-ns#"
   xmlns:svg="http://www.w3.org/2000/svg"
   xmlns="http://www.w3.org/2000/svg"
   xmlns:sodipodi="http://sodipodi.sourceforge.net/DTD/sodipodi-0.dtd"
   xmlns:inkscape="http://www.inkscape.org/namespaces/inkscape"
   width="256"
   height="256"
   viewBox="0 0 256 256"
   id="svg29137"
   version="1.1"
   inkscape:version="0.92.3 (2405546, 2018-03-11)"
   sodipodi:docname="air-bag-1.svg">
  <defs
     id="defs29139" />
  <sodipodi:namedview
     id="base"
     pagecolor="#ffffff"
     bordercolor="#666666"
     borderopacity="1.0"
     inkscape:pageopacity="0.0"
     inkscape:pageshadow="2"
     inkscape:zoom="0.35"
     inkscape:cx="-1095"
     inkscape:cy="400"
     inkscape:document-units="px"
     inkscape:current-layer="g30618"
     showgrid="false"
     units="px"
     inkscape:window-width="2560"
     inkscape:window-height="1387"
     inkscape:window-x="0"
     inkscape:window-y="0"
     inkscape:window-maximized="1" />
  <metadata
     id="metadata29142">
    <rdf:RDF>
      <cc:Work
         rdf:about="">
        <dc:format>image/svg+xml</dc:format>
        <dc:type
           rdf:resource="http://purl.org/dc/dcmitype/StillImage" />
        <dc:title />
      </cc:Work>
    </rdf:RDF>
  </metadata>
  <g
     inkscape:label="Layer 1"
     inkscape:groupmode="layer"
     id="layer1"
     transform="translate(0,-796.36216)">
    <g
       id="g30618"
       transform="translate(1.0037176,1295.6423)"
       style="fill:#00ff00;fill-opacity:1">
      <path
         d="m 178.3444,-440.87214 c 13.66,0 24.74,11.08 24.74,24.75 0,13.66 -11.08,24.73 -24.74,24.73 -13.67,0 -24.75,-11.07 -24.75,-24.73 0,-13.67 11.08,-24.75 24.75,-24.75 l 0,0 z m -32.11998,56.4 c -3.06,4.33 -8.59002,15.6 -13.47,26.05 l 43.34,-25.19998 c -9.6,-6.25 -24.12,-9 -29.87,-0.85 l 0,0 z m -22.40002,45.68 -0.7696,1.74 c 0,0 -15.79,-16.86 -32.109996,-17.39 -16.32,-0.52 -23.68999,10.54 -31.58999,26.35 -7.9,15.82 -23.69,38.48 -16.86,46.91 6.86,8.43 18.97,13.71 29.5,-3.16 10.51999,-16.87 16.83999,-35.32 24.20999,-34.26 7.369996,1.05 21.069996,23.2 39.499996,26.35 8.49,1.46 15.21,-0.22 19.96,-3.3 l -31.84,-43.24 0,0 z m 38.29,36.6 c 1.34002,-2.31 2.02,-4.73 2.02,-6.92 0,-8.44 8.02,-14.12 14.21,-21.61 5.37,-6.52 11.17,-28.76 6.34002,-43.29 -0.3504,-1.05 -0.89,-2.1 -1.6,-3.12 l -53.32002,31.01 32.35,43.93 0,0"
         style="fill:#00c0c0;fill-opacity:1;fill-rule:evenodd;stroke:none"
         id="path20334"
         inkscape:connector-curvature="0" />
      <path
         d="m 86.624424,-469.30214 c 30.859996,0 55.879996,25.01002 55.879996,55.87 0,30.86 -25.02,55.88 -55.879996,55.88 -30.86001,0 -55.88001,-25.02 -55.88001,-55.88 0,-30.86 25.02,-55.87 55.88001,-55.87 l 0,0"
         style="fill:#00c0c0;fill-opacity:1;fill-rule:evenodd;stroke:none"
         id="path20336"
         inkscape:connector-curvature="0" />
      <path
         d="m 172.3644,-288.27214 c 1.5,2.04 1.06,4.89 -0.96998,6.39 -2.03002,1.49 -4.89,1.05 -6.38002,-0.99 l -9.34998,-12.68 c 2.88,-1.84 5.04,-4.18 6.44998,-6.64 l 10.25,13.92 0,0 z m -48.54,-50.52 -4.42998,-6.02 c -1.5,-2.04 -1.06,-4.89 0.98,-6.39 0.16,-0.1104 0.3296,-0.2104 0.5,-0.3096 l 11.88,-6.91 c -3.93,8.38 -7.43,16.25 -8.93,19.63 l 0,0 z m 52.27,-44.83 40.30002,-23.43 c 2.17998,-1.27 4.96,-0.52 6.23998,1.66 1.26002,2.18 0.52,4.97 -1.67,6.23 l -37.88,22.03 c -1.61,-2.35 -4.08,-4.58 -6.99,-6.48998 l 0,0"
         style="fill:#00c0c0;fill-opacity:1;fill-rule:nonzero;stroke:none"
         id="path20338"
         inkscape:connector-curvature="0" />
    </g>
  </g>
</svg>
