<?xml version="1.0" encoding="UTF-8" standalone="no"?>
<!-- Created with Inkscape (http://www.inkscape.org/) -->

<svg
   xmlns:dc="http://purl.org/dc/elements/1.1/"
   xmlns:cc="http://creativecommons.org/ns#"
   xmlns:rdf="http://www.w3.org/1999/02/22-rdf-syntax-ns#"
   xmlns:svg="http://www.w3.org/2000/svg"
   xmlns="http://www.w3.org/2000/svg"
   xmlns:sodipodi="http://sodipodi.sourceforge.net/DTD/sodipodi-0.dtd"
   xmlns:inkscape="http://www.inkscape.org/namespaces/inkscape"
   width="256"
   height="256"
   viewBox="0 0 256 256"
   id="svg29137"
   version="1.1"
   inkscape:version="0.92.3 (2405546, 2018-03-11)"
   sodipodi:docname="battery-voltage.svg">
  <defs
     id="defs29139" />
  <sodipodi:namedview
     id="base"
     pagecolor="#ffffff"
     bordercolor="#666666"
     borderopacity="1.0"
     inkscape:pageopacity="0.0"
     inkscape:pageshadow="2"
     inkscape:zoom="1.979899"
     inkscape:cx="-129.62097"
     inkscape:cy="75.569958"
     inkscape:document-units="px"
     inkscape:current-layer="layer1"
     showgrid="false"
     units="px"
     inkscape:window-width="2560"
     inkscape:window-height="1387"
     inkscape:window-x="0"
     inkscape:window-y="0"
     inkscape:window-maximized="1" />
  <metadata
     id="metadata29142">
    <rdf:RDF>
      <cc:Work
         rdf:about="">
        <dc:format>image/svg+xml</dc:format>
        <dc:type
           rdf:resource="http://purl.org/dc/dcmitype/StillImage" />
        <dc:title />
      </cc:Work>
    </rdf:RDF>
  </metadata>
  <g
     inkscape:label="Layer 1"
     inkscape:groupmode="layer"
     id="layer1"
     transform="translate(0,-796.36216)">
    <path
       inkscape:connector-curvature="0"
       id="path20308"
       style="fill:#00ffff;fill-opacity:1;fill-rule:nonzero;stroke:none"
       d="m 48.153586,862.51411 15.55001,0 0,-12.21 31.929999,0 0,12.21 64.729995,0 0,-12.21 31.93,0 0,12.21 15.53,0 c 3.86,0 7.34,1.58 9.86,4.09 0.1096,0.1096 0.22,0.2304 0.3096,0.36 2.35,2.5 3.78,5.84002 3.78,9.5 l 0,108.03002 c 0,3.82 -1.57,7.29 -4.11,9.83 l 0.024,0.016 c -2.52,2.52 -6,4.08 -9.86,4.08 l -159.669994,0 c -3.83001,0 -7.31,-1.56 -9.85,-4.08 -0.1,-0.12 -0.2104,-0.24 -0.3104,-0.36002 -2.33,-2.48598 -3.77,-5.83598 -3.77,-9.48598 l 0,-108.03002 c 0,-3.82 1.58,-7.31 4.09,-9.84998 l -0.008,-0.008 c 2.54,-2.51002 6.02,-4.09 9.85,-4.09 l 0,0 z m 17.56001,28.97 0,3.94 c 27.749999,0 0.1496,0 27.909999,0 l 0,-3.94 c -27.759999,0 -0.16,0 -27.909999,0 l 0,0 z m 96.669994,0 0,3.94 11.98,0 0,11.99 3.94,0 0,-11.99 11.99,0 0,-3.94 -11.99,0 0,-11.98 -3.94,0 0,11.98 -11.98,0 0,0 z m 45.44,-18.96 -159.669994,0 c -1.06001,0 -2.05001,0.4504 -2.78,1.16 l -0.008,-0.008 0,0.008 c -0.7104,0.7 -1.13999,1.69 -1.13999,2.78 l 0,108.03 c 0,1 0.36959,1.92 0.97,2.6 0.072,0.056 0.1296,0.1096 0.18,0.1696 0.7304,0.72 1.72,1.16 2.78,1.16 l 159.669994,0 c 1.09,0 2.07,-0.44 2.79,-1.16 l 0,0.008 0.032,-0.008 c 0.6896,-0.7 1.12,-1.69 1.12,-2.77 l 0,-108.03 c 0,-1.01 -0.36,-1.92 -0.98,-2.61 -0.048,-0.048 -0.1096,-0.1104 -0.1696,-0.1704 -0.72,-0.7104 -1.7,-1.16 -2.79,-1.16 l 0,0" />
  </g>
</svg>
