<?xml version="1.0" encoding="UTF-8" standalone="no"?>
<!-- Created with Inkscape (http://www.inkscape.org/) -->

<svg
   xmlns:dc="http://purl.org/dc/elements/1.1/"
   xmlns:cc="http://creativecommons.org/ns#"
   xmlns:rdf="http://www.w3.org/1999/02/22-rdf-syntax-ns#"
   xmlns:svg="http://www.w3.org/2000/svg"
   xmlns="http://www.w3.org/2000/svg"
   xmlns:sodipodi="http://sodipodi.sourceforge.net/DTD/sodipodi-0.dtd"
   xmlns:inkscape="http://www.inkscape.org/namespaces/inkscape"
   width="100"
   height="240"
   viewBox="0 0 100 240"
   id="svg10258"
   version="1.1"
   inkscape:version="0.91 r13725"
   sodipodi:docname="car_body.svg">
  <defs
     id="defs10260" />
  <sodipodi:namedview
     id="base"
     pagecolor="#ffffff"
     bordercolor="#666666"
     borderopacity="1.0"
     inkscape:pageopacity="0.0"
     inkscape:pageshadow="2"
     inkscape:zoom="0.35"
     inkscape:cx="-97.857143"
     inkscape:cy="520"
     inkscape:document-units="px"
     inkscape:current-layer="layer1"
     showgrid="false"
     units="px"
     inkscape:window-width="1366"
     inkscape:window-height="702"
     inkscape:window-x="414"
     inkscape:window-y="1440"
     inkscape:window-maximized="1" />
  <metadata
     id="metadata10263">
    <rdf:RDF>
      <cc:Work
         rdf:about="">
        <dc:format>image/svg+xml</dc:format>
        <dc:type
           rdf:resource="http://purl.org/dc/dcmitype/StillImage" />
        <dc:title></dc:title>
      </cc:Work>
    </rdf:RDF>
  </metadata>
  <g
     inkscape:label="Layer 1"
     inkscape:groupmode="layer"
     id="layer1"
     transform="translate(0,-812.36216)">
    <path
       inkscape:connector-curvature="0"
       id="path20398"
       style="display:inline;opacity:0.95;fill:#c0c0c0;fill-opacity:1;fill-rule:evenodd;stroke:none"
       d="m 20.45668,874.52753 c 2.58,-9.394 5.5,-18.41 9.32,-26.945 3.93,-8.817 8.86,-17.149 15.37,-24.89099 3.28,-0.2536 6.42,-0.2536 9.71,0 6.51,7.74199 11.43,16.07399 15.37,24.89099 3.82,8.535 6.74,17.551 9.32,26.945 -19.81,-2.824 -39.29,-2.824 -59.09,0 l 0,0 z m 62.93,11.16 -8.35,20.754 c -16.08,-3.203 -34.01,-3.203 -50.08,0 l -8.34,-20.754 c 21.21,-9.562 45.55,-9.562 66.77,0 l 0,0 z m -6.46,96.649 6.02,21.72197 c -14.44,7.508 -51.47,7.508 -65.91,0 l 6.03,-21.72197 c 15.89,4.121 37.96,4.121 53.86,0 l 0,0 z m 2.32,56.83997 4.55,-27.231 c 0.1104,-0.664 0.7496,-1.121 1.43,-1.004 0.6704,0.116 1.13,0.7424 1.01,1.418 l -4.4,26.383 0.26,-0.048 c 8.09,-1.367 13.59,-6.027 13.93,-22.578 0.34,-16.54297 -1.99,-135.53897 -1.99,-135.53897 0,0 -3.69,-44.707 -6.94,-48.672 -4.07,-4.91799 -18.1,-7.75399 -28.77,-8.89399 5.89,7.38199 10.44,15.26499 14.15,23.55399 4.14,9.258 7.23,18.996 9.96,29.141 0.16,0.664 -0.2296,1.336 -0.89,1.523 -0.2,0.048 -0.4096,0.048 -0.6,0 -20.6,-3.23 -41.3,-3.23 -61.9,0 -0.1896,0.04 -0.4,0.04 -0.5896,0 -0.6704,-0.188 -1.07,-0.859 -0.89,-1.523 2.72,-10.145 5.81,-19.883 9.95,-29.141 3.71,-8.289 8.26,-16.172 14.15,-23.55399 -10.66,1.14 -24.69,3.976 -28.76,8.89399 -3.2700004,3.965 -6.9500004,48.672 -6.9500004,48.672 0,0 -2.34,118.996 -1.98,135.53897 0.32,16.551 5.84,21.211 13.9200004,22.578 l 0.26,0.048 -4.4,-26.383 c -0.1096,-0.676 0.34,-1.301 1.02,-1.418 0.6704,-0.116 1.31,0.34 1.43,1.004 l 4.54,27.231 c 24.13,4.062 34.37,4.062 58.5,0 l 0,0 z m 8.87,-139.01597 1.37,79.434 c 0,0 -6.54,-18.438 -6.87,-23.954 -0.34,-5.519 -1.55,-33.429 -0.86,-37.043 0.68,-3.6208 6.36,-18.437 6.36,-18.437 l 0,0 z m -76.23,0 -1.39,79.434 c 0,0 6.54,-18.438 6.89,-23.954 0.34,-5.519 1.55,-33.429 0.85,-37.043 -0.68,-3.6208 -6.35,-18.437 -6.35,-18.437 l 0,0" />
  </g>
</svg>
