<?xml version="1.0" encoding="UTF-8" standalone="no"?>
<!-- Created with Inkscape (http://www.inkscape.org/) -->

<svg
   xmlns:dc="http://purl.org/dc/elements/1.1/"
   xmlns:cc="http://creativecommons.org/ns#"
   xmlns:rdf="http://www.w3.org/1999/02/22-rdf-syntax-ns#"
   xmlns:svg="http://www.w3.org/2000/svg"
   xmlns="http://www.w3.org/2000/svg"
   xmlns:sodipodi="http://sodipodi.sourceforge.net/DTD/sodipodi-0.dtd"
   xmlns:inkscape="http://www.inkscape.org/namespaces/inkscape"
   width="256"
   height="256"
   viewBox="0 0 256 256"
   id="svg29137"
   version="1.1"
   inkscape:version="0.92.3 (2405546, 2018-03-11)"
   sodipodi:docname="dipped-headlight-1.svg">
  <defs
     id="defs29139" />
  <sodipodi:namedview
     id="base"
     pagecolor="#ffffff"
     bordercolor="#666666"
     borderopacity="1.0"
     inkscape:pageopacity="0.0"
     inkscape:pageshadow="2"
     inkscape:zoom="0.35"
     inkscape:cx="-1292.6174"
     inkscape:cy="472.68943"
     inkscape:document-units="px"
     inkscape:current-layer="layer1"
     showgrid="false"
     units="px"
     inkscape:window-width="2560"
     inkscape:window-height="1387"
     inkscape:window-x="0"
     inkscape:window-y="0"
     inkscape:window-maximized="1" />
  <metadata
     id="metadata29142">
    <rdf:RDF>
      <cc:Work
         rdf:about="">
        <dc:format>image/svg+xml</dc:format>
        <dc:type
           rdf:resource="http://purl.org/dc/dcmitype/StillImage" />
        <dc:title />
      </cc:Work>
    </rdf:RDF>
  </metadata>
  <g
     inkscape:label="Layer 1"
     inkscape:groupmode="layer"
     id="layer1"
     transform="translate(0,-796.36216)">
    <path
       inkscape:connector-curvature="0"
       id="path20350"
       style="fill:#00c0c0;fill-opacity:1;fill-rule:nonzero;stroke:none"
       d="m 135.7082,838.41215 c 47.87,0 78.62,22.29 92.19,50.81 5.31,11.16 7.95,23.25 7.95,35.33 0,12.07 -2.64,24.17 -7.95,35.32 -13.57,28.52 -44.32,50.81005 -92.19,50.81005 -6.01,0 -11.39,-2.91 -15.23,-7.6 -3.57,-4.38005 -5.81,-10.38005 -5.81,-16.90005 l 0,-123.26 c 0,-6.54 2.24,-12.52 5.81,-16.91 3.84,-4.68 9.22,-7.6 15.23,-7.6 l 0,0 z M 67.098198,1011.3122 c 0,3.02 -2.45,5.47 -5.48,5.47 -3.02,0 -5.48,-2.45 -5.48,-5.47 l 0,-29.41003 -29.09002,7.8 c -2.92,0.78 -5.90998,-0.95 -6.71,-3.88 -0.78,-2.92 0.96,-5.92 3.88,-6.71 l 31.92002,-8.55002 0,-22.26 -29.09002,7.8 c -2.92,0.78002 -5.90998,-0.96 -6.71,-3.88 -0.78,-2.92 0.96,-5.93 3.88,-6.71 l 31.92002,-8.55 0,-22.26 -29.09002,7.79 c -2.92,0.78 -5.90998,-0.96 -6.71,-3.88 -0.78,-2.92 0.96,-5.93 3.88,-6.71 l 31.92002,-8.55 0,-22.27 -29.09002,7.8 c -2.92,0.78 -5.90998,-0.95 -6.71,-3.87 -0.78,-2.92 0.96,-5.93 3.88,-6.71 l 31.92002,-8.56 0,-32.33 c 0,-3.03 2.46,-5.47 5.48,-5.47 3.03,0 5.48,2.44 5.48,5.47 l 0,29.39 29.08,-7.79 c 2.92998,-0.78 5.920002,0.96 6.710002,3.88 0.7896,2.92 -0.94,5.93 -3.860022,6.71 l -31.92998,8.55 0,22.27 29.08,-7.8 c 2.92998,-0.78 5.920002,0.95 6.710002,3.88 0.7896,2.92 -0.94,5.92 -3.860022,6.7 l -31.92998,8.56 0,22.26 29.08,-7.79 c 2.92998,-0.7896 5.920002,0.95 6.710002,3.87 0.7896,2.92 -0.94,5.92 -3.860022,6.71 l -31.92998,8.55 0,22.26 29.08,-7.79 c 2.92998,-0.78 5.920002,0.95 6.710002,3.88002 0.7896,2.92 -0.94,5.92 -3.860022,6.71 l -31.92998,8.55 0,32.34003 z M 218.0182,893.89215 c -11.88,-24.98998 -39.30002,-44.53 -82.31,-44.53 -2.54,0 -4.94,1.38 -6.75,3.58 -2.05,2.51 -3.32,6.05 -3.32,9.98 l 0,123.26 c 0,3.93 1.27,7.46 3.32,9.97 1.81,2.2 4.21,3.58 6.75,3.58 43.01,0 70.43,-19.53 82.31,-44.53 4.58,-9.65 6.87,-20.14 6.87,-30.65 0,-10.51 -2.29,-21.01 -6.87,-30.66 l 0,0" />
  </g>
</svg>
