<?xml version="1.0" encoding="UTF-8" standalone="no"?>
<!-- Created with Inkscape (http://www.inkscape.org/) -->

<svg
   xmlns:dc="http://purl.org/dc/elements/1.1/"
   xmlns:cc="http://creativecommons.org/ns#"
   xmlns:rdf="http://www.w3.org/1999/02/22-rdf-syntax-ns#"
   xmlns:svg="http://www.w3.org/2000/svg"
   xmlns="http://www.w3.org/2000/svg"
   xmlns:sodipodi="http://sodipodi.sourceforge.net/DTD/sodipodi-0.dtd"
   xmlns:inkscape="http://www.inkscape.org/namespaces/inkscape"
   width="256"
   height="256"
   viewBox="0 0 256 256"
   id="svg29137"
   version="1.1"
   inkscape:version="0.92.3 (2405546, 2018-03-11)"
   sodipodi:docname="fix-1.svg">
  <defs
     id="defs29139" />
  <sodipodi:namedview
     id="base"
     pagecolor="#ffffff"
     bordercolor="#666666"
     borderopacity="1.0"
     inkscape:pageopacity="0.0"
     inkscape:pageshadow="2"
     inkscape:zoom="0.35"
     inkscape:cx="-1305.4745"
     inkscape:cy="478.40372"
     inkscape:document-units="px"
     inkscape:current-layer="layer1"
     showgrid="false"
     units="px"
     inkscape:window-width="1920"
     inkscape:window-height="1054"
     inkscape:window-x="2560"
     inkscape:window-y="360"
     inkscape:window-maximized="1" />
  <metadata
     id="metadata29142">
    <rdf:RDF>
      <cc:Work
         rdf:about="">
        <dc:format>image/svg+xml</dc:format>
        <dc:type
           rdf:resource="http://purl.org/dc/dcmitype/StillImage" />
        <dc:title />
      </cc:Work>
    </rdf:RDF>
  </metadata>
  <g
     inkscape:label="Layer 1"
     inkscape:groupmode="layer"
     id="layer1"
     transform="translate(0,-796.36216)">
    <path
       inkscape:connector-curvature="0"
       id="path20362"
       style="fill:#00c0c0;fill-opacity:1;fill-rule:evenodd;stroke:none"
       d="m 57.119986,1029.8661 c 10.74001,0.6504 21.72001,-3.01 30.08001,-11.03 11.94,-11.43 15.250004,-28.48003 9.78,-43.02003 l 83.770004,-80.24 c 14.28,6.1 31.45,3.52 43.38,-7.91 8.39,-8.03 12.51,-18.83 12.32,-29.59 -4.96,5.27 -10.51,9.72 -14.08,13.15 -10.73,10.27 -27.77,9.9 -38.03,-0.82 -10.28,-10.73 -9.91,-27.76 0.81,-38.03 3.58,-3.43 8.26,-8.77 13.74,-13.52 -10.74,-0.64 -21.71,3.02 -30.09,11.05 -11.94,11.43 -15.25,28.47 -9.76,43 l -83.780004,80.26 c -14.29001,-6.1 -31.46001,-3.53 -43.38001,7.89 -8.39,8.04 -12.52,18.85 -12.33,29.6 4.97,-5.26 10.52,-9.71 14.1,-13.14 10.72,-10.28 27.74,-9.91 38.02001,0.82 10.28,10.72 9.91,27.74003 -0.82,38.02003 -3.57,3.43 -8.25001,8.79 -13.73001,13.51 l 0,0 z M 168.23,883.85607 l 0,0 c 3.11,3.25 3.01,8.43 -0.2496,11.55002 l -66.3,63.51 c -3.240004,3.11 -8.440004,3 -11.560004,-0.24 l 0,0 c -3.1,-3.24 -2.99,-8.44 0.26,-11.54 l 66.300004,-63.54 c 3.25,-3.11 8.44,-2.99 11.55,0.26 l 0,0" />
  </g>
</svg>
