<?xml version="1.0" encoding="UTF-8" standalone="no"?>
<!-- Created with Inkscape (http://www.inkscape.org/) -->

<svg
   xmlns:dc="http://purl.org/dc/elements/1.1/"
   xmlns:cc="http://creativecommons.org/ns#"
   xmlns:rdf="http://www.w3.org/1999/02/22-rdf-syntax-ns#"
   xmlns:svg="http://www.w3.org/2000/svg"
   xmlns="http://www.w3.org/2000/svg"
   xmlns:sodipodi="http://sodipodi.sourceforge.net/DTD/sodipodi-0.dtd"
   xmlns:inkscape="http://www.inkscape.org/namespaces/inkscape"
   width="256"
   height="256"
   viewBox="0 0 256 256"
   id="svg29137"
   version="1.1"
   inkscape:version="0.91 r13725"
   sodipodi:docname="08.svg">
  <defs
     id="defs29139" />
  <sodipodi:namedview
     id="base"
     pagecolor="#ffffff"
     bordercolor="#666666"
     borderopacity="1.0"
     inkscape:pageopacity="0.0"
     inkscape:pageshadow="2"
     inkscape:zoom="0.35"
     inkscape:cx="144.52546"
     inkscape:cy="484.11801"
     inkscape:document-units="px"
     inkscape:current-layer="layer1"
     showgrid="false"
     units="px"
     inkscape:window-width="1366"
     inkscape:window-height="702"
     inkscape:window-x="0"
     inkscape:window-y="0"
     inkscape:window-maximized="1" />
  <metadata
     id="metadata29142">
    <rdf:RDF>
      <cc:Work
         rdf:about="">
        <dc:format>image/svg+xml</dc:format>
        <dc:type
           rdf:resource="http://purl.org/dc/dcmitype/StillImage" />
        <dc:title></dc:title>
      </cc:Work>
    </rdf:RDF>
  </metadata>
  <g
     inkscape:label="Layer 1"
     inkscape:groupmode="layer"
     id="layer1"
     transform="translate(0,-796.36216)">
    <path
       inkscape:connector-curvature="0"
       id="path20344"
       style="fill:#231f20;fill-opacity:1;fill-rule:nonzero;stroke:none"
       d="m 136.33,838.22713 c 47.86,0 78.63,22.29 92.19,50.81 5.31,11.16 7.96,23.25 7.96,35.33 0,12.08 -2.65,24.16 -7.96,35.32 -13.56,28.53002 -44.33,50.81007 -92.19,50.81007 -6.01,0 -11.38,-2.91 -15.22,-7.6 -3.58,-4.38007 -5.81,-10.37005 -5.81,-16.90007 l 0,-123.27 c 0,-6.53 2.23,-12.52 5.81,-16.9 3.84,-4.69 9.21,-7.6 15.22,-7.6 l 0,0 z m -111.339992,141.84 c -3.01,0 -5.47,-2.46 -5.47,-5.48 0,-3.03 2.46,-5.48 5.47,-5.48 l 74.48999,0 c 3.040002,0 5.490002,2.45 5.490002,5.48 0,3.02 -2.45,5.48 -5.490002,5.48 l -74.48999,0 0,0 z m 0,-26.44998 c -3.01,0 -5.47,-2.45 -5.47,-5.48 0,-3.03002 2.46,-5.47 5.47,-5.47 l 74.49999,0 c 3.030002,0 5.480002,2.44 5.480002,5.47 0,3.03 -2.45,5.48 -5.480002,5.48 l -74.49999,0 0,0 z m 0,-26.44 c -3.01,0 -5.47,-2.45 -5.47,-5.48 0,-3.02 2.46,-5.48 5.47,-5.48 l 74.49999,0 c 3.030002,0 5.480002,2.46 5.480002,5.48 0,3.03 -2.45,5.48 -5.480002,5.48 l -74.49999,0 0,0 z m 0,-26.44 c -3.01,0 -5.47,-2.46 -5.47,-5.48 0,-3.02 2.46,-5.48 5.47,-5.48 l 74.49999,0 c 3.030002,0 5.480002,2.46 5.480002,5.48 0,3.02 -2.45,5.48 -5.480002,5.48 l -74.49999,0 0,0 z m 0,-26.44002 c -3.01,0 -5.47,-2.44998 -5.47,-5.48 0,-3.02 2.46,-5.48 5.47,-5.48 l 74.48999,0 c 3.040002,0 5.490002,2.46 5.490002,5.48 0,3.03002 -2.45,5.48 -5.490002,5.48 l -74.48999,0 0,0 z m 193.649992,19.41 c -11.89,-24.98998 -39.29,-44.52 -82.31,-44.52 -2.55,0 -4.94,1.37 -6.74,3.57002 -2.06,2.52 -3.34,6.03998 -3.34,9.96998 l 0,123.27 c 0,3.93 1.28,7.46 3.34,9.97 1.8,2.21 4.19,3.57 6.74,3.57 43.02,0 70.42,-19.52 82.31,-44.52 4.59,-9.65 6.88,-20.15 6.88,-30.65 0,-10.51 -2.29,-21.01 -6.88,-30.66 l 0,0" />
  </g>
</svg>
