<?xml version="1.0" encoding="UTF-8" standalone="no"?>
<!-- Created with Inkscape (http://www.inkscape.org/) -->

<svg
   xmlns:dc="http://purl.org/dc/elements/1.1/"
   xmlns:cc="http://creativecommons.org/ns#"
   xmlns:rdf="http://www.w3.org/1999/02/22-rdf-syntax-ns#"
   xmlns:svg="http://www.w3.org/2000/svg"
   xmlns="http://www.w3.org/2000/svg"
   xmlns:xlink="http://www.w3.org/1999/xlink"
   xmlns:sodipodi="http://sodipodi.sourceforge.net/DTD/sodipodi-0.dtd"
   xmlns:inkscape="http://www.inkscape.org/namespaces/inkscape"
   width="420"
   height="420"
   viewBox="0 0 111.125 111.125"
   version="1.1"
   id="svg3049"
   sodipodi:docname="water-meter-bg.svg"
   inkscape:version="0.92.3 (2405546, 2018-03-11)">
  <defs
     id="defs3043">
    <linearGradient
       inkscape:collect="always"
       id="linearGradient3642">
      <stop
         style="stop-color:#000080;stop-opacity:1;"
         offset="0"
         id="stop3638" />
      <stop
         style="stop-color:#000080;stop-opacity:0;"
         offset="1"
         id="stop3640" />
    </linearGradient>
    <inkscape:path-effect
       effect="ruler"
       id="path-effect3636"
       is_visible="true"
       unit="px"
       mark_distance="66"
       mark_length="60"
       minor_mark_length="30"
       major_mark_steps="5"
       shift="0"
       offset="0"
       mark_dir="left"
       border_marks="both" />
    <radialGradient
       inkscape:collect="always"
       xlink:href="#linearGradient3642"
       id="radialGradient3644"
       cx="210"
       cy="159.73395"
       fx="210"
       fy="159.73395"
       r="179.8125"
       gradientTransform="matrix(0.26458333,0,0,0.23476305,0,197.44328)"
       gradientUnits="userSpaceOnUse" />
  </defs>
  <sodipodi:namedview
     id="base"
     pagecolor="#ffffff"
     bordercolor="#666666"
     borderopacity="1.0"
     inkscape:pageopacity="0.0"
     inkscape:pageshadow="2"
     inkscape:zoom="2.8"
     inkscape:cx="307.75914"
     inkscape:cy="218.97333"
     inkscape:document-units="mm"
     inkscape:current-layer="layer1"
     showgrid="false"
     inkscape:pagecheckerboard="true"
     units="px"
     inkscape:window-width="2560"
     inkscape:window-height="1387"
     inkscape:window-x="0"
     inkscape:window-y="0"
     inkscape:window-maximized="1" />
  <metadata
     id="metadata3046">
    <rdf:RDF>
      <cc:Work
         rdf:about="">
        <dc:format>image/svg+xml</dc:format>
        <dc:type
           rdf:resource="http://purl.org/dc/dcmitype/StillImage" />
        <dc:title></dc:title>
      </cc:Work>
    </rdf:RDF>
  </metadata>
  <g
     inkscape:label="Layer 1"
     inkscape:groupmode="layer"
     id="layer1"
     transform="translate(0,-185.87499)">
    <path
       style="fill:url(#radialGradient3644);fill-opacity:1;stroke:#ffffff;stroke-width:1.32291663;stroke-miterlimit:4;stroke-dasharray:none;stroke-opacity:1"
       d="m 85.192215,276.64332 c 10.927382,-8.90153 17.273785,-22.24421 17.284215,-36.33835 -5e-5,-25.90983 -21.004103,-46.91388 -46.913931,-46.91393 -25.909828,5e-5 -46.9138787,21.0041 -46.9139314,46.91393 0.012205,14.09534 6.3613644,27.43823 17.2914504,36.33835 m 59.252197,0 -2.652786,-3.25652 m 6.085768,0.16711 -1.479962,-1.49005 m 4.592462,-1.922 -1.619398,-1.3372 m 4.38108,-2.36455 -1.743086,-1.17141 m 4.127368,-2.78396 -1.849792,-0.99439 m 3.833804,-3.17617 -3.877114,-1.6156 m 5.441641,-2.72975 -2.008574,-0.61332 m 3.138224,-3.86481 -2.059169,-0.41277 m 2.742719,-4.15478 -2.08979,-0.20815 m 2.32082,-4.40449 -2.10013,-0.002 m 1.87674,-4.61126 -4.18045,0.40752 m 3.50676,-4.97653 -2.060019,0.4085 m 0.938339,-4.88861 -2.009451,0.61046 m 0.449429,-4.95741 -1.939092,0.80652 m -0.04333,-4.9778 -1.849951,0.9941 m -0.533969,-4.94969 -3.486425,2.34244 m 0.725763,-6.04497 -1.620081,1.33637 m -1.489604,-4.75102 -1.481693,1.48833 m -1.946828,-4.58272 -1.329106,1.62605 m -2.38575,-4.37009 -1.163384,1.74845 m -2.802892,-4.11455 -1.971493,3.70883 m -2.208707,-5.67239 -0.797732,1.94272 m -3.55623,-3.48303 -0.60135,2.0122 m -3.883795,-3.11353 -0.39919,2.06184 m -4.172813,-2.71496 -0.194397,2.09112 m -4.419611,-2.29402 0.019,4.20021 m -4.630957,-3.95524 0.213611,2.08924 m -4.77938,-1.39391 0.418303,2.05805 m -4.893014,-0.91502 0.620046,2.00651 m -4.959498,-0.42579 0.815742,1.93523 m -4.977556,0.067 2.005725,3.69043 m -5.94999,-1.28781 1.179444,1.73766 m -4.868908,1.04043 1.34398,1.61377 m -4.743964,1.51194 1.495284,1.47468 m -4.573503,1.96837 1.632288,1.32143 m -4.358776,2.40633 3.507862,2.31021 m -5.855151,1.66723 1.859072,0.97693 m -3.80273,3.21255 1.946502,0.78847 m -3.466025,3.57279 2.01504,0.59175 m -3.0950386,3.8986 2.0637166,0.38938 m -2.6951773,4.18566 4.1840113,0.3691 m -4.3649492,4.24581 2.1000212,-0.0214 m -1.8258716,4.63169 2.0877496,-0.2277 m -1.3614642,4.78865 2.0552122,-0.43203 m -0.883702,4.8994 2.00275,-0.6321 m -0.397646,4.96262 3.861837,-1.65178 m -1.838916,5.8036 1.840414,-1.01164 m 0.580764,4.94454 1.732048,-1.18767 m 1.064159,4.8634 1.606808,-1.3523 m 1.537501,4.73507 1.465954,-1.50384 m 1.661407,4.29129 2.652137,-3.25704"
       id="path3596"
       inkscape:connector-curvature="0" />
  </g>
  <g
     inkscape:groupmode="layer"
     id="layer3"
     inkscape:label="Text"
     transform="translate(0,26.458333)">
    <text
       xml:space="preserve"
       style="font-style:normal;font-weight:normal;font-size:10.58333302px;line-height:1.25;font-family:sans-serif;letter-spacing:0px;word-spacing:0px;fill:#ffffff;fill-opacity:1;stroke:none;stroke-width:0.26458332"
       x="30.59543"
       y="62.695702"
       id="text3648"><tspan
         sodipodi:role="line"
         id="tspan3646"
         x="30.59543"
         y="62.695702"
         style="font-size:7.05555534px;fill:#ffffff;stroke-width:0.26458332">0</tspan></text>
    <text
       id="text3655"
       y="46.764008"
       x="16.40242"
       style="font-style:normal;font-weight:normal;font-size:10.58333302px;line-height:1.25;font-family:sans-serif;letter-spacing:0px;word-spacing:0px;fill:#ffffff;fill-opacity:1;stroke:none;stroke-width:0.26458332"
       xml:space="preserve"><tspan
         style="font-size:7.05555534px;fill:#ffffff;stroke-width:0.26458332"
         y="46.764008"
         x="16.40242"
         id="tspan3653"
         sodipodi:role="line">10</tspan></text>
    <text
       xml:space="preserve"
       style="font-style:normal;font-weight:normal;font-size:10.58333302px;line-height:1.25;font-family:sans-serif;letter-spacing:0px;word-spacing:0px;fill:#ffffff;fill-opacity:1;stroke:none;stroke-width:0.26458332"
       x="12.452572"
       y="26.920258"
       id="text3659"><tspan
         sodipodi:role="line"
         id="tspan3657"
         x="12.452572"
         y="26.920258"
         style="font-size:7.05555534px;fill:#ffffff;stroke-width:0.26458332">20</tspan></text>
    <text
       id="text3663"
       y="9.6845541"
       x="19.369534"
       style="font-style:normal;font-weight:normal;font-size:10.58333302px;line-height:1.25;font-family:sans-serif;letter-spacing:0px;word-spacing:0px;fill:#ffffff;fill-opacity:1;stroke:none;stroke-width:0.26458332"
       xml:space="preserve"><tspan
         style="font-size:7.05555534px;fill:#ffffff;stroke-width:0.26458332"
         y="9.6845541"
         x="19.369534"
         id="tspan3661"
         sodipodi:role="line">30</tspan></text>
    <text
       xml:space="preserve"
       style="font-style:normal;font-weight:normal;font-size:10.58333302px;line-height:1.25;font-family:sans-serif;letter-spacing:0px;word-spacing:0px;fill:#ffffff;fill-opacity:1;stroke:none;stroke-width:0.26458332"
       x="32.239624"
       y="-3.6768906"
       id="text3667"><tspan
         sodipodi:role="line"
         id="tspan3665"
         x="32.239624"
         y="-3.6768906"
         style="font-size:7.05555534px;fill:#ffffff;stroke-width:0.26458332">40</tspan></text>
    <text
       id="text3671"
       y="-9.3843336"
       x="50.987244"
       style="font-style:normal;font-weight:normal;font-size:10.58333302px;line-height:1.25;font-family:sans-serif;letter-spacing:0px;word-spacing:0px;fill:#ffffff;fill-opacity:1;stroke:none;stroke-width:0.26458332"
       xml:space="preserve"><tspan
         style="font-size:7.05555534px;fill:#ffffff;stroke-width:0.26458332"
         y="-9.3843336"
         x="50.987244"
         id="tspan3669"
         sodipodi:role="line">50</tspan></text>
    <text
       xml:space="preserve"
       style="font-style:normal;font-weight:normal;font-size:10.58333302px;line-height:1.25;font-family:sans-serif;letter-spacing:0px;word-spacing:0px;fill:#ffffff;fill-opacity:1;stroke:none;stroke-width:0.26458332"
       x="69.1679"
       y="-3.6012933"
       id="text3675"><tspan
         sodipodi:role="line"
         id="tspan3673"
         x="69.1679"
         y="-3.6012933"
         style="font-size:7.05555534px;fill:#ffffff;stroke-width:0.26458332">60</tspan></text>
    <text
       id="text3679"
       y="9.1931868"
       x="82.77504"
       style="font-style:normal;font-weight:normal;font-size:10.58333302px;line-height:1.25;font-family:sans-serif;letter-spacing:0px;word-spacing:0px;fill:#ffffff;fill-opacity:1;stroke:none;stroke-width:0.26458332"
       xml:space="preserve"><tspan
         style="font-size:7.05555534px;fill:#ffffff;stroke-width:0.26458332"
         y="9.1931868"
         x="82.77504"
         id="tspan3677"
         sodipodi:role="line">70</tspan></text>
    <text
       xml:space="preserve"
       style="font-style:normal;font-weight:normal;font-size:10.58333302px;line-height:1.25;font-family:sans-serif;letter-spacing:0px;word-spacing:0px;fill:#ffffff;fill-opacity:1;stroke:none;stroke-width:0.26458332"
       x="89.408524"
       y="27.165943"
       id="text3683"><tspan
         sodipodi:role="line"
         id="tspan3681"
         x="89.408524"
         y="27.165943"
         style="font-size:7.05555534px;fill:#ffffff;stroke-width:0.26458332">80</tspan></text>
    <text
       id="text3687"
       y="46.820702"
       x="85.761055"
       style="font-style:normal;font-weight:normal;font-size:10.58333302px;line-height:1.25;font-family:sans-serif;letter-spacing:0px;word-spacing:0px;fill:#ffffff;fill-opacity:1;stroke:none;stroke-width:0.26458332"
       xml:space="preserve"><tspan
         style="font-size:7.05555534px;fill:#ffffff;stroke-width:0.26458332"
         y="46.820702"
         x="85.761055"
         id="tspan3685"
         sodipodi:role="line">90</tspan></text>
    <text
       xml:space="preserve"
       style="font-style:normal;font-weight:normal;font-size:10.58333302px;line-height:1.25;font-family:sans-serif;letter-spacing:0px;word-spacing:0px;fill:#ffffff;fill-opacity:1;stroke:none;stroke-width:0.26458332"
       x="69.035606"
       y="61.883049"
       id="text3691"><tspan
         sodipodi:role="line"
         id="tspan3689"
         x="69.035606"
         y="61.883049"
         style="font-size:7.05555534px;fill:#ffffff;stroke-width:0.26458332">100</tspan></text>
    <text
       xml:space="preserve"
       style="font-style:normal;font-weight:normal;font-size:10.58333302px;line-height:1.25;font-family:sans-serif;letter-spacing:0px;word-spacing:0px;fill:#000000;fill-opacity:1;stroke:none;stroke-width:0.26458332"
       x="73.988838"
       y="14.363094"
       id="text3695"><tspan
         sodipodi:role="line"
         id="tspan3693"
         x="73.988838"
         y="23.726864"
         style="stroke-width:0.26458332" /></text>
  </g>
</svg>
