<?xml version="1.0" encoding="UTF-8" standalone="no"?>
<!-- Created with Inkscape (http://www.inkscape.org/) -->

<svg
   xmlns:dc="http://purl.org/dc/elements/1.1/"
   xmlns:cc="http://creativecommons.org/ns#"
   xmlns:rdf="http://www.w3.org/1999/02/22-rdf-syntax-ns#"
   xmlns:svg="http://www.w3.org/2000/svg"
   xmlns="http://www.w3.org/2000/svg"
   xmlns:sodipodi="http://sodipodi.sourceforge.net/DTD/sodipodi-0.dtd"
   xmlns:inkscape="http://www.inkscape.org/namespaces/inkscape"
   width="256"
   height="256"
   viewBox="0 0 256 256"
   id="svg29137"
   version="1.1"
   inkscape:version="0.91 r13725"
   sodipodi:docname="09.svg">
  <defs
     id="defs29139" />
  <sodipodi:namedview
     id="base"
     pagecolor="#ffffff"
     bordercolor="#666666"
     borderopacity="1.0"
     inkscape:pageopacity="0.0"
     inkscape:pageshadow="2"
     inkscape:zoom="0.35"
     inkscape:cx="-325.47454"
     inkscape:cy="478.40372"
     inkscape:document-units="px"
     inkscape:current-layer="layer1"
     showgrid="false"
     units="px"
     inkscape:window-width="1366"
     inkscape:window-height="702"
     inkscape:window-x="0"
     inkscape:window-y="0"
     inkscape:window-maximized="1" />
  <metadata
     id="metadata29142">
    <rdf:RDF>
      <cc:Work
         rdf:about="">
        <dc:format>image/svg+xml</dc:format>
        <dc:type
           rdf:resource="http://purl.org/dc/dcmitype/StillImage" />
        <dc:title />
      </cc:Work>
    </rdf:RDF>
  </metadata>
  <g
     inkscape:label="Layer 1"
     inkscape:groupmode="layer"
     id="layer1"
     transform="translate(0,-796.36216)">
    <path
       inkscape:connector-curvature="0"
       id="path20348"
       style="fill:#231f20;fill-opacity:1;fill-rule:nonzero;stroke:none"
       d="m 119.66422,838.22713 c -47.869985,0 -78.630005,22.29 -92.190005,50.81 -5.3,11.16 -7.94998,23.25 -7.94998,35.33 0,12.08 2.65,24.16 7.94998,35.32 13.56,28.53002 44.32002,50.81007 92.190005,50.81007 6.01002,0 11.39,-2.91 15.22,-7.6 3.58,-4.38007 5.82,-10.37005 5.82,-16.90007 l 0,-123.27 c 0,-6.53 -2.23998,-12.52 -5.82,-16.9 -3.83,-4.69 -9.21,-7.6 -15.22,-7.6 l 0,0 z m 67.09001,158.7 c 2.13998,2.06 5.55,2.03 7.65998,-0.08 2.14,-2.14 2.14,-5.61 0,-7.74 l -0.008,-0.008 c -0.22,-0.20962 -0.44,-0.4096 -0.7,-0.5896 -0.89,-0.7496 -4.18,-3.59 -7.76,-7.83 l -0.008,-0.016 0.008,-0.008 -0.49042,-0.58 45.54,0 c 3.03002,0 5.48,-2.46 5.48,-5.48 0,-3.03 -2.44998,-5.48 -5.48,-5.48 l -52.59,0 c -2.1804,-4.7408 -3.5104,-10.0208 -2.8204,-15.4908 l 55.41,0 c 3.03,0 5.48,-2.45 5.48,-5.48 0,-3.03 -2.45,-5.47 -5.48,-5.47 l -51.12,0 c 1.66,-2.4 3.81,-4.8 6.59,-7.13 l 0.008,-0.016 0.016,0.016 c 3.28,-2.77 6.11,-5.56 8.54,-8.36 l 35.96,0 c 3.03,0 5.48,-2.45 5.48,-5.48 0,-3.02 -2.45,-5.48 -5.48,-5.48 l -28.4,0 c 2.73,-5.25 4.25,-10.44 4.86,-15.48 l 23.54,0 c 3.03,0 5.48,-2.46 5.48,-5.48 0,-3.02 -2.45,-5.48 -5.48,-5.48 l -23.61,0 c -0.32,-2.64 -0.87,-5.22 -1.57,-7.71 -0.7704,-2.71 -1.74,-5.32 -2.83,-7.77 l 28.01,0 c 3.03,0 5.48,-2.45 5.48,-5.48 0,-3.02 -2.45,-5.48 -5.48,-5.48 l -34.13,0 c -3.76,-5.57 -7.5,-9.58 -9.36,-11.44 -2.11,-2.14 -5.57,-2.15 -7.72,-0.016 -2.13,2.13 -2.15,5.59 -0.016,7.73 0.81,0.7896 2.01,2.07 3.43,3.73 l -26.7,0 c -3.01999,0 -5.46999,2.46 -5.46999,5.48 0,3.03 2.45,5.48 5.46999,5.48 l 34.3,0 c 1.79,3.23 3.39,6.83 4.49,10.72 0.44,1.54 0.8,3.13998 1.04,4.76 l -39.83,0 c -3.01999,0 -5.46999,2.46 -5.46999,5.48 0,3.02 2.45,5.48 5.46999,5.48 l 39.78,0 c -0.84,5 -2.87,10.21 -6.58,15.48 l -33.19998,0 c -3.01999,0 -5.46999,2.46 -5.46999,5.48 0,3.03 2.45,5.48 5.46999,5.48 l 22.94998,0 -0.016,0.008 0.008,0.016 c -6.04,5.09 -10.01,10.29 -12.43,15.46 l -10.51,0 c -3.02,0 -5.47,2.44 -5.47,5.47 0,3.03 2.45,5.48 5.47,5.48 l 7.58,0 c -0.44,5.40998 0.5296,10.63998 2.3,15.48998 l -9.88,0 c -3.02,0 -5.47,2.45 -5.47,5.48 0,3.02 2.45,5.48 5.47,5.48 l 15.43,0 c 1.8,2.82002 3.79,5.39 5.67,7.64 l 0.016,0 c 4.1508,4.9204 7.9708,8.2504 9.1408,9.2204 l 0,0 z m -149.389995,-103.22 c 11.88,-24.98998 39.28,-44.52 82.300005,-44.52 2.55,0 4.95,1.37 6.75,3.57002 2.05,2.52 3.31999,6.03998 3.31999,9.96998 l 0,123.27 c 0,3.93 -1.26999,7.46 -3.31999,9.97 -1.8,2.21 -4.2,3.57 -6.75,3.57 -43.020005,0 -70.420005,-19.52 -82.300005,-44.52 -4.59,-9.65 -6.89,-20.15 -6.89,-30.65 0,-10.51 2.3,-21.01 6.89,-30.66 l 0,0" />
  </g>
</svg>
