<?xml version="1.0" encoding="UTF-8" standalone="no"?>
<!-- Created with Inkscape (http://www.inkscape.org/) -->

<svg
   xmlns:dc="http://purl.org/dc/elements/1.1/"
   xmlns:cc="http://creativecommons.org/ns#"
   xmlns:rdf="http://www.w3.org/1999/02/22-rdf-syntax-ns#"
   xmlns:svg="http://www.w3.org/2000/svg"
   xmlns="http://www.w3.org/2000/svg"
   xmlns:sodipodi="http://sodipodi.sourceforge.net/DTD/sodipodi-0.dtd"
   xmlns:inkscape="http://www.inkscape.org/namespaces/inkscape"
   width="256"
   height="256"
   viewBox="0 0 256 256"
   id="svg29137"
   version="1.1"
   inkscape:version="0.92.3 (2405546, 2018-03-11)"
   sodipodi:docname="sate-belt-1.svg">
  <defs
     id="defs29139" />
  <sodipodi:namedview
     id="base"
     pagecolor="#ffffff"
     bordercolor="#666666"
     borderopacity="1.0"
     inkscape:pageopacity="0.0"
     inkscape:pageshadow="2"
     inkscape:zoom="0.35"
     inkscape:cx="-1067.8571"
     inkscape:cy="400"
     inkscape:document-units="px"
     inkscape:current-layer="layer1"
     showgrid="false"
     units="px"
     inkscape:window-width="2560"
     inkscape:window-height="1387"
     inkscape:window-x="0"
     inkscape:window-y="0"
     inkscape:window-maximized="1" />
  <metadata
     id="metadata29142">
    <rdf:RDF>
      <cc:Work
         rdf:about="">
        <dc:format>image/svg+xml</dc:format>
        <dc:type
           rdf:resource="http://purl.org/dc/dcmitype/StillImage" />
        <dc:title />
      </cc:Work>
    </rdf:RDF>
  </metadata>
  <g
     inkscape:label="Layer 1"
     inkscape:groupmode="layer"
     id="layer1"
     transform="translate(0,-796.36216)">
    <path
       inkscape:connector-curvature="0"
       id="path20340"
       style="fill:#c00000;fill-opacity:1;fill-rule:evenodd;stroke:none"
       d="m 102.45956,982.9832 12.97,28.95 c 1.73,3.86 0.85,8.05 -1.94,9.3 l -8.39,3.77 c -2.8,1.25 -6.500004,-0.88 -8.230004,-4.74 l -15.92,-35.48 c -0.97,-2.16 -1.11,-4.41 -0.5696,-6.2 -0.032,-2.92998 -0.064,-7.17 -0.1104,-12.21 l -25.73,17.17 c -2.38,1.61002 -5.61,0.96 -7.21,-1.42 -1.6,-2.39 -0.96,-5.61 1.44,-7.21 l 21.38,-14.28 c 1.42,0.97 3.15,1.55 5.03,1.55 l 113.000004,0 19.07,12.73 c 2.37,1.6 3.02,4.82 1.43,7.21 -1.6,2.38 -4.83,3.03002 -7.22,1.42 l -26.73,-17.83 c -0.04,5.32002 -0.072,9.80002 -0.1096,12.87 0.54,1.79 0.3904,4.04 -0.58,6.2 l -15.91,35.48 c -1.73,3.86 -5.44,5.99 -8.24,4.74 l -8.37,-3.77 c -2.81,-1.25 -3.69,-5.44 -1.97,-9.3 l 13,-28.95 -50.09,0 0,0 z m -22.370004,-45.27 c -0.072,-17.96 -0.032,-35.73 0.3296,-41.55 0.81,-13.11 17.55,-14.93 22.740004,-14.93 4.75,0 8.14,-9.81 8.7,-11.5 -4.83,-4.88 -7.88,-11.89 -7.88,-19.7 0,-14.73 10.84,-26.67 24.19,-26.67 13.37,0 24.19,11.94 24.19,26.67 0,8.34 -3.46,15.79 -8.89,20.68 0.5496,1.5 1.59,4.13 3.03,6.39 l -66.410004,60.61 0,0 z m 84.520004,-54.03 c 5.05,2.07 9.56,5.82 9.97,12.48 0.4,6.65 0.3904,28.87 0.2896,49.16 l -77.790004,0 67.530004,-61.64 0,0" />
  </g>
</svg>
