<?xml version="1.0" encoding="UTF-8" standalone="no"?>
<!-- Created with Inkscape (http://www.inkscape.org/) -->

<svg
   xmlns:dc="http://purl.org/dc/elements/1.1/"
   xmlns:cc="http://creativecommons.org/ns#"
   xmlns:rdf="http://www.w3.org/1999/02/22-rdf-syntax-ns#"
   xmlns:svg="http://www.w3.org/2000/svg"
   xmlns="http://www.w3.org/2000/svg"
   xmlns:xlink="http://www.w3.org/1999/xlink"
   xmlns:sodipodi="http://sodipodi.sourceforge.net/DTD/sodipodi-0.dtd"
   xmlns:inkscape="http://www.inkscape.org/namespaces/inkscape"
   width="420"
   height="420"
   viewBox="0 0 111.125 111.125"
   version="1.1"
   id="svg3049"
   sodipodi:docname="oil-meter-bg.svg"
   inkscape:version="0.92.3 (2405546, 2018-03-11)">
  <defs
     id="defs3043">
    <linearGradient
       inkscape:collect="always"
       id="linearGradient3642">
      <stop
         style="stop-color:#000080;stop-opacity:1;"
         offset="0"
         id="stop3638" />
      <stop
         style="stop-color:#000080;stop-opacity:0;"
         offset="1"
         id="stop3640" />
    </linearGradient>
    <inkscape:path-effect
       effect="ruler"
       id="path-effect3636"
       is_visible="true"
       unit="px"
       mark_distance="54.9"
       mark_length="60"
       minor_mark_length="30"
       major_mark_steps="10"
       shift="0"
       offset="0"
       mark_dir="left"
       border_marks="both" />
    <radialGradient
       inkscape:collect="always"
       xlink:href="#linearGradient3642"
       id="radialGradient3644"
       cx="210"
       cy="159.73395"
       fx="210"
       fy="159.73395"
       r="179.8125"
       gradientTransform="matrix(0.26458333,0,0,0.23476305,-0.04960929,197.44328)"
       gradientUnits="userSpaceOnUse" />
  </defs>
  <sodipodi:namedview
     id="base"
     pagecolor="#ffffff"
     bordercolor="#666666"
     borderopacity="1.0"
     inkscape:pageopacity="0.0"
     inkscape:pageshadow="2"
     inkscape:zoom="1.979899"
     inkscape:cx="193.90953"
     inkscape:cy="190.98807"
     inkscape:document-units="mm"
     inkscape:current-layer="layer1"
     showgrid="false"
     inkscape:pagecheckerboard="true"
     units="px"
     inkscape:window-width="2560"
     inkscape:window-height="1387"
     inkscape:window-x="0"
     inkscape:window-y="0"
     inkscape:window-maximized="1" />
  <metadata
     id="metadata3046">
    <rdf:RDF>
      <cc:Work
         rdf:about="">
        <dc:format>image/svg+xml</dc:format>
        <dc:type
           rdf:resource="http://purl.org/dc/dcmitype/StillImage" />
        <dc:title></dc:title>
      </cc:Work>
    </rdf:RDF>
  </metadata>
  <g
     inkscape:label="Layer 1"
     inkscape:groupmode="layer"
     id="layer1"
     transform="translate(0,-185.87499)">
    <path
       style="fill:url(#radialGradient3644);fill-opacity:1;stroke:#ffffff;stroke-width:1.32291663;stroke-miterlimit:4;stroke-dasharray:none;stroke-opacity:1"
       d="m 85.142606,276.64332 c 10.927382,-8.90153 17.273784,-22.24421 17.284214,-36.33835 -5e-5,-25.90982 -21.004102,-46.91388 -46.91393,-46.91393 -25.909828,5e-5 -46.913879,21.00411 -46.9139317,46.91393 0.012205,14.09535 6.3613647,27.43824 17.2914507,36.33835 m 59.252197,0 -2.652786,-3.25651 m 5.52994,0.7101 -1.455076,-1.51437 m 4.114199,-1.25894 -1.574186,-1.39014 m 3.997272,-1.59162 -1.682734,-1.25657 m 3.853579,-1.91355 -1.779929,-1.11463 m 3.684122,-2.22248 -1.865138,-0.9653 m 3.490021,-2.51636 -1.937832,-0.80953 m 3.272512,-2.79336 -1.997562,-0.6483 m 3.032952,-3.05173 -2.043926,-0.48262 m 2.772896,-3.28975 -2.076581,-0.31362 m 2.494191,-3.50578 -4.190567,-0.28512 m 4.293907,-3.55565 -2.09991,0.0302 m 1.88953,-3.86659 -2.09058,0.20003 m 1.56851,-4.00656 -2.067199,0.37046 m 1.234309,-4.12125 -2.029678,0.53939 m 0.890473,-4.20876 -1.978281,0.70494 m 0.540451,-4.26791 -1.913491,0.8655 m 0.18745,-4.29813 -1.835947,1.01973 m -0.16569,-4.29931 -1.746348,1.16654 m -0.516514,-4.27166 -1.645383,1.30509 m -0.862912,-4.21555 -3.067431,2.86934 m 0.330706,-5.56612 -1.41196,1.55464 m -1.535091,-4.01984 -1.280719,1.66443 m -1.85743,-3.88125 -1.140619,1.76339 m -2.168223,-3.71628 -0.992397,1.85086 m -2.465485,-3.52573 -0.836943,1.92615 m -2.747047,-3.31075 -0.675373,1.98857 m -3.010575,-3.07295 -0.509082,2.03749 m -3.253684,-2.81448 -0.339736,2.07247 m -3.474098,-2.53821 -0.169254,2.09329 m -3.66984,-2.2476 5.3e-4,4.20026 m -3.839631,-4.04491 0.169831,2.09326 m -3.983535,-1.62646 0.340312,2.07238 m -4.102862,-1.29434 0.509649,2.03735 m -4.195294,-0.95194 0.675928,1.98838 m -4.259532,-0.60278 0.83748,1.92592 m -4.294897,-0.25008 0.992913,1.85058 m -4.301212,0.10322 1.141108,1.76307 m -4.278643,0.45462 1.281176,1.66407 m -4.227546,0.80194 1.412387,1.55426 m -4.148371,1.14328 3.06822,2.86849 m -5.575712,0.0427 1.645743,1.30464 m -3.907748,1.8011 1.746669,1.16606 m -3.747397,2.11408 1.83623,1.01922 m -3.561317,2.41389 1.913733,0.86497 m -3.350569,2.6984 1.97848,0.70439 m -3.116663,2.9653 2.029832,0.53882 m -2.8616724,3.2122 2.0673014,0.36988 m -2.5883186,3.43679 2.0906376,0.19946 m -2.2999698,3.63702 2.0999218,0.0296 m -1.9951135,3.81112 4.1904575,-0.2868 m -3.7713043,4.10603 2.0764543,-0.31445 m -1.3459601,4.08653 2.0437291,-0.48344 m -1.00685,4.18305 1.9973,-0.6491 m -0.661171,4.25146 1.937507,-0.81032 m -0.31122,4.29133 1.864749,-0.96605 m 0.04079,4.30239 1.77948,-1.11535 m 0.392642,4.28459 1.682227,-1.25724 m 0.74206,4.23802 1.573624,-1.39077 m 1.086617,4.16301 1.454464,-1.51495 m 1.416299,4.05417 2.652137,-3.25704"
       id="path3596"
       inkscape:connector-curvature="0" />
  </g>
  <g
     inkscape:groupmode="layer"
     id="layer3"
     inkscape:label="Text"
     transform="translate(0,26.458333)">
    <text
       xml:space="preserve"
       style="font-style:normal;font-weight:normal;font-size:10.58333302px;line-height:1.25;font-family:sans-serif;letter-spacing:0px;word-spacing:0px;fill:#ffffff;fill-opacity:1;stroke:none;stroke-width:0.26458332"
       x="29.461502"
       y="66.399864"
       id="text3648"><tspan
         sodipodi:role="line"
         id="tspan3646"
         x="29.461502"
         y="66.399864"
         style="font-size:7.05555534px;fill:#ffffff;stroke-width:0.26458332">70</tspan></text>
    <text
       xml:space="preserve"
       style="font-style:normal;font-weight:normal;font-size:10.58333302px;line-height:1.25;font-family:sans-serif;letter-spacing:0px;word-spacing:0px;fill:#ffffff;fill-opacity:1;stroke:none;stroke-width:0.26458332"
       x="13.775489"
       y="36.955521"
       id="text3659"><tspan
         sodipodi:role="line"
         id="tspan3657"
         x="13.775489"
         y="36.955521"
         style="font-size:7.05555534px;fill:#ffffff;stroke-width:0.26458332">80</tspan></text>
    <text
       xml:space="preserve"
       style="font-style:normal;font-weight:normal;font-size:10.58333302px;line-height:1.25;font-family:sans-serif;letter-spacing:0px;word-spacing:0px;fill:#ffffff;fill-opacity:1;stroke:none;stroke-width:0.26458332"
       x="23.376081"
       y="8.4183397"
       id="text3667"><tspan
         sodipodi:role="line"
         id="tspan3665"
         x="23.376081"
         y="8.4183397"
         style="font-size:7.05555534px;fill:#ffffff;stroke-width:0.26458332">90</tspan></text>
    <text
       xml:space="preserve"
       style="font-style:normal;font-weight:normal;font-size:10.58333302px;line-height:1.25;font-family:sans-serif;letter-spacing:0px;word-spacing:0px;fill:#ffffff;fill-opacity:1;stroke:none;stroke-width:0.26458332"
       x="48.662693"
       y="-5.0943012"
       id="text3675"><tspan
         sodipodi:role="line"
         id="tspan3673"
         x="48.662693"
         y="-5.0943012"
         style="font-size:7.05555534px;fill:#ffffff;stroke-width:0.26458332">100</tspan></text>
    <text
       xml:space="preserve"
       style="font-style:normal;font-weight:normal;font-size:10.58333302px;line-height:1.25;font-family:sans-serif;letter-spacing:0px;word-spacing:0px;fill:#ffffff;fill-opacity:1;stroke:none;stroke-width:0.26458332"
       x="76.122665"
       y="8.5128317"
       id="text3683"><tspan
         sodipodi:role="line"
         id="tspan3681"
         x="76.122665"
         y="8.5128317"
         style="font-size:7.05555534px;fill:#ffffff;stroke-width:0.26458332">110</tspan></text>
    <text
       xml:space="preserve"
       style="font-style:normal;font-weight:normal;font-size:10.58333302px;line-height:1.25;font-family:sans-serif;letter-spacing:0px;word-spacing:0px;fill:#ffffff;fill-opacity:1;stroke:none;stroke-width:0.26458332"
       x="69.035606"
       y="66.645546"
       id="text3691"><tspan
         sodipodi:role="line"
         id="tspan3689"
         x="69.035606"
         y="66.645546"
         style="font-size:7.05555534px;fill:#ffffff;stroke-width:0.26458332">130</tspan></text>
    <text
       xml:space="preserve"
       style="font-style:normal;font-weight:normal;font-size:10.58333302px;line-height:1.25;font-family:sans-serif;letter-spacing:0px;word-spacing:0px;fill:#000000;fill-opacity:1;stroke:none;stroke-width:0.26458332"
       x="73.988838"
       y="14.363094"
       id="text3695"><tspan
         sodipodi:role="line"
         id="tspan3693"
         x="73.988838"
         y="23.726864"
         style="stroke-width:0.26458332"></tspan></text>
    <text
       id="text4442"
       y="37.2957"
       x="84.211357"
       style="font-style:normal;font-weight:normal;font-size:10.58333302px;line-height:1.25;font-family:sans-serif;letter-spacing:0px;word-spacing:0px;fill:#ffffff;fill-opacity:1;stroke:none;stroke-width:0.26458332"
       xml:space="preserve"><tspan
         style="font-size:7.05555534px;fill:#ffffff;stroke-width:0.26458332"
         y="37.2957"
         x="84.211357"
         id="tspan4440"
         sodipodi:role="line">120</tspan></text>
  </g>
</svg>
