<?xml version="1.0" encoding="UTF-8" standalone="no"?>
<!-- Created with Inkscape (http://www.inkscape.org/) -->

<svg
   xmlns:dc="http://purl.org/dc/elements/1.1/"
   xmlns:cc="http://creativecommons.org/ns#"
   xmlns:rdf="http://www.w3.org/1999/02/22-rdf-syntax-ns#"
   xmlns:svg="http://www.w3.org/2000/svg"
   xmlns="http://www.w3.org/2000/svg"
   xmlns:sodipodi="http://sodipodi.sourceforge.net/DTD/sodipodi-0.dtd"
   xmlns:inkscape="http://www.inkscape.org/namespaces/inkscape"
   width="256"
   height="256"
   viewBox="0 0 256 256"
   id="svg29137"
   version="1.1"
   inkscape:version="0.92.3 (2405546, 2018-03-11)"
   sodipodi:docname="water_temp.svg">
  <defs
     id="defs29139" />
  <sodipodi:namedview
     id="base"
     pagecolor="#ffffff"
     bordercolor="#666666"
     borderopacity="1.0"
     inkscape:pageopacity="0.0"
     inkscape:pageshadow="2"
     inkscape:zoom="1.4"
     inkscape:cx="37.504586"
     inkscape:cy="275.85495"
     inkscape:document-units="px"
     inkscape:current-layer="layer1"
     showgrid="false"
     units="px"
     inkscape:window-width="2560"
     inkscape:window-height="1387"
     inkscape:window-x="0"
     inkscape:window-y="0"
     inkscape:window-maximized="1" />
  <metadata
     id="metadata29142">
    <rdf:RDF>
      <cc:Work
         rdf:about="">
        <dc:format>image/svg+xml</dc:format>
        <dc:type
           rdf:resource="http://purl.org/dc/dcmitype/StillImage" />
        <dc:title />
      </cc:Work>
    </rdf:RDF>
  </metadata>
  <g
     inkscape:label="Layer 1"
     inkscape:groupmode="layer"
     id="layer1"
     transform="translate(0,-796.36216)">
    <path
       inkscape:connector-curvature="0"
       id="path20376"
       style="fill:#00ffff;fill-opacity:1;fill-rule:evenodd;stroke:none"
       d="m 130.79331,882.8459 24.5,0 c 1.08,0 1.96,0.86998 1.96,1.94998 0,1.07 -0.88,1.95 -1.96,1.95 l -24.5,0 0,12.97 24.5,0 c 1.08,0 1.96,0.88002 1.96,1.95 0,1.08 -0.88,1.94 -1.96,1.94 l -24.5,0 0,33.12 c 8.02,1.47 14.27,8.04 15.25,16.23 2.13,1.12 4.27,2.45 6.44998,4.06 20,14.84 37.49,-0.2896 37.54,-0.3296 0.072,-0.048 23.25,-20.02 49.29,-0.18 2.14,1.62 2.55002,4.67 0.92,6.8 -1.63,2.15 -4.69,2.54 -6.83,0.92 -19.78,-15.06 -37.07998,-0.1304 -37.11998,-0.1 -0.08,0.056 -23.35,20.18 -49.6,0.7104 -0.7696,-0.58 -1.54,-1.11 -2.31,-1.6 -3.01,6.36 -9.5,10.76 -17,10.76 -7.23,0 -13.51,-4.08 -16.64,-10.09 -1.02,0.7 -1.57,1.18 -1.58,1.19 -0.08,0.048 -23.25,20.03 -49.29,0.2 -19.78,-15.05 -37.08,-0.1504 -37.13,-0.12 -2.05,1.74 -5.11,1.48 -6.84,-0.58 -1.73,-2.05 -1.47,-5.12 0.5896,-6.84 0.072,-0.048 23.25,-20.01 49.28998,-0.2 19.77,15.05 37.07002,0.1504 37.12,0.1104 0.016,-0.016 2.13,-1.84 5.75,-3.84 0.6096,-8.23 6.52,-14.99 14.33,-16.86 l 0,-85.83 c 0,-2.14 1.75,-3.88 3.9,-3.88 2.16,0 3.91,1.74 3.91,3.88 l 0,14.84 24.5,0 c 1.08,0 1.96,0.87 1.96,1.94 0,1.09 -0.88,1.96 -1.96,1.96 l -24.5,0 0,12.97 z m -88.2,111.43998 c -1.64,1.38 -4.1,1.17 -5.49,-0.46 -1.38,-1.64 -1.18,-4.1 0.4496,-5.47998 0.064,-0.072 18.85,-16.24 39.94,-0.1696 16.07,12.22 30.13,0.1 30.17,0.08 0.056,-0.056 18.9,-16.33 40.17,-0.5104 16.27,12.05 30.46,-0.2496 30.51,-0.26958 0.048,-0.048 18.84,-16.24 39.94,-0.1704 1.7,1.3 2.03,3.73998 0.7304,5.44998 -1.31,1.71 -3.75,2.05002 -5.46,0.74 -16.08,-12.22998 -30.14,-0.1104 -30.18,-0.08 -0.048,0.048 -18.9,16.35 -40.17,0.58 -16.25,-12.1 -30.47,0.16 -30.51,0.2104 -0.048,0.04 -18.84,16.21 -39.94,0.16 -16.07,-12.23 -30.12,-0.12 -30.16,-0.08 l 0,0" />
  </g>
</svg>
